<svg width="400" height="255" viewBox="0 0 400 255" fill="none" xmlns="http://www.w3.org/2000/svg">
<path d="M190.389 172.259C190.389 172.259 206.612 150.029 198.694 144.819C190.46 139.384 186.588 155.832 184.851 163.913C181.133 181.147 182.185 184.804 184.678 181.014L190.389 172.259Z" fill="#007AFF"/>
<path d="M196.498 185.918C196.498 185.918 219.065 170.175 213.273 162.666C207.245 154.851 198.245 169.153 193.974 176.223C184.862 191.322 184.668 195.123 188.253 192.354L196.498 185.918Z" fill="#007AFF"/>
<path d="M196.957 204.235C196.957 204.235 216.491 195.46 213.15 188.911C209.677 182.066 200.717 191.69 196.426 196.481C187.232 206.697 186.578 209.589 189.725 207.985L196.957 204.235Z" fill="#007AFF"/>
<path d="M198.122 222.522C198.122 222.522 217.655 213.757 214.315 207.198C210.831 200.353 201.882 209.977 197.591 214.768C188.396 224.984 187.732 227.875 190.879 226.271L198.122 222.522Z" fill="#007AFF"/>
<path d="M175.177 181.545C175.177 181.545 153.723 164.311 148.145 171.983C142.342 179.962 158.596 184.58 166.534 186.694C183.585 191.2 187.293 190.311 183.615 187.644L175.177 181.545Z" fill="#007AFF"/>
<path d="M175.861 195.93C175.861 195.93 151.404 183.313 147.461 191.935C143.374 200.905 160.21 202.202 168.465 202.682C186.067 203.704 189.52 202.11 185.393 200.22L175.861 195.93Z" fill="#007AFF"/>
<path d="M178.814 212.071C178.814 212.071 157.809 201.957 154.745 209.343C151.486 217.026 165.758 217.731 172.745 217.955C187.661 218.405 190.542 216.934 187.048 215.483L178.814 212.071Z" fill="#007AFF"/>
<path d="M179.815 225.107C179.815 225.107 160.037 212.847 156.134 219.835C152.048 227.13 166.197 229.346 173.123 230.307C187.906 232.35 190.93 231.226 187.569 229.357L179.815 225.107Z" fill="#007AFF"/>
<path d="M177.966 159.714C177.966 159.714 174.247 127.441 162.07 130.741C149.402 134.174 160.026 150.509 165.359 158.386C176.791 175.181 180.99 177.04 180.091 171.789L177.966 159.714Z" fill="#007AFF"/>
<path opacity="0.5" d="M190.389 172.259C190.389 172.259 206.612 150.029 198.694 144.819C190.46 139.384 186.588 155.832 184.851 163.913C181.133 181.147 182.185 184.804 184.678 181.014L190.389 172.259Z" fill="white"/>
<path opacity="0.5" d="M196.498 185.918C196.498 185.918 219.065 170.175 213.273 162.666C207.245 154.851 198.245 169.153 193.974 176.223C184.862 191.322 184.668 195.123 188.253 192.354L196.498 185.918Z" fill="white"/>
<path opacity="0.5" d="M196.957 204.235C196.957 204.235 216.491 195.46 213.15 188.911C209.677 182.066 200.717 191.69 196.426 196.481C187.232 206.697 186.578 209.589 189.725 207.985L196.957 204.235Z" fill="white"/>
<path opacity="0.5" d="M198.122 222.522C198.122 222.522 217.655 213.757 214.315 207.198C210.831 200.353 201.882 209.977 197.591 214.768C188.396 224.984 187.732 227.875 190.879 226.271L198.122 222.522Z" fill="white"/>
<path opacity="0.5" d="M175.177 181.545C175.177 181.545 153.723 164.311 148.145 171.983C142.342 179.962 158.596 184.58 166.534 186.694C183.585 191.2 187.293 190.311 183.615 187.644L175.177 181.545Z" fill="white"/>
<path opacity="0.5" d="M175.861 195.93C175.861 195.93 151.404 183.313 147.461 191.935C143.374 200.905 160.21 202.202 168.465 202.682C186.067 203.704 189.52 202.11 185.393 200.22L175.861 195.93Z" fill="white"/>
<path opacity="0.5" d="M178.814 212.071C178.814 212.071 157.809 201.957 154.745 209.343C151.486 217.026 165.758 217.731 172.745 217.955C187.661 218.405 190.542 216.934 187.048 215.483L178.814 212.071Z" fill="white"/>
<path opacity="0.5" d="M179.815 225.107C179.815 225.107 160.037 212.847 156.134 219.835C152.048 227.13 166.197 229.346 173.123 230.307C187.906 232.35 190.93 231.226 187.569 229.357L179.815 225.107Z" fill="white"/>
<path opacity="0.5" d="M177.966 159.714C177.966 159.714 174.247 127.441 162.07 130.741C149.402 134.174 160.026 150.509 165.359 158.386C176.791 175.181 180.99 177.04 180.091 171.789L177.966 159.714Z" fill="white"/>
<path d="M164.552 142.469C164.552 142.469 183.105 177.204 186.006 193.396C189.316 211.938 189.857 232.636 187.569 248.869" stroke="#263238" stroke-width="0.581765" stroke-linecap="round" stroke-linejoin="round"/>
<path d="M183.053 182.659L192.146 154.82" stroke="#263238" stroke-width="0.581765" stroke-linecap="round" stroke-linejoin="round"/>
<path d="M185.985 193.396L203.097 171.881" stroke="#263238" stroke-width="0.581765" stroke-linecap="round" stroke-linejoin="round"/>
<path d="M184.892 189.483L160.118 179.073" stroke="#263238" stroke-width="0.581765" stroke-linecap="round" stroke-linejoin="round"/>
<path d="M188.131 207.964L206.755 193.682" stroke="#263238" stroke-width="0.581765" stroke-linecap="round" stroke-linejoin="round"/>
<path d="M187.14 201.835L167.678 197.789" stroke="#263238" stroke-width="0.581765" stroke-linecap="round" stroke-linejoin="round"/>
<path d="M188.08 216.74L173.011 214.349" stroke="#263238" stroke-width="0.581765" stroke-linecap="round" stroke-linejoin="round"/>
<path d="M189.346 226.384L199.481 217.312" stroke="#263238" stroke-width="0.581765" stroke-linecap="round" stroke-linejoin="round"/>
<path d="M189.142 230.47L171.826 226.118" stroke="#263238" stroke-width="0.581765" stroke-linecap="round" stroke-linejoin="round"/>
<path d="M223.049 210.794C223.049 210.794 222.089 192.681 228.341 192.65C234.849 192.65 231.059 203.091 229.108 208.179C224.95 219.038 223.049 220.683 223.039 217.69L223.049 210.794Z" fill="#007AFF"/>
<path d="M214.754 216.137C214.754 216.137 207.96 199.311 213.865 197.258C219.995 195.112 219.821 206.248 219.637 211.693C219.229 223.309 217.962 225.485 216.981 222.655L214.754 216.137Z" fill="#007AFF"/>
<path d="M207.919 226.057C207.919 226.057 200.298 214.176 204.507 211.754C208.89 209.231 210.371 217.772 211.015 221.97C212.384 230.909 211.73 232.748 210.575 230.736L207.919 226.057Z" fill="#007AFF"/>
<path d="M200.717 235.762C200.717 235.762 193.096 223.881 197.305 221.46C201.698 218.926 203.169 227.467 203.812 231.676C205.181 240.615 204.538 242.454 203.373 240.431L200.717 235.762Z" fill="#007AFF"/>
<path d="M228.076 221.388C228.076 221.388 246.127 219.6 246.464 225.842C246.791 232.34 236.156 229.04 230.987 227.324C219.944 223.666 218.217 221.848 221.21 221.695L228.076 221.388Z" fill="#007AFF"/>
<path d="M222.538 229.101C222.538 229.101 240.59 230.94 239.65 237.121C238.69 243.547 228.923 238.204 224.193 235.497C214.1 229.714 212.772 227.589 215.735 228.039L222.538 229.101Z" fill="#007AFF"/>
<path d="M215.091 236.927C215.091 236.927 230.313 238.898 229.393 244.078C228.423 249.492 220.291 244.742 216.348 242.351C207.95 237.243 206.877 235.394 209.37 235.844L215.091 236.927Z" fill="#007AFF"/>
<path d="M209.85 243.782C209.85 243.782 225.174 244.129 224.817 249.401C224.429 254.887 215.837 251.025 211.669 249.063C202.77 244.865 201.453 243.159 204.027 243.332L209.85 243.782Z" fill="#007AFF"/>
<path d="M234.43 208.322C234.43 208.322 248.109 191.843 253.646 198.106C259.398 204.562 247.67 209.762 241.878 212.183C229.506 217.343 226.553 216.852 228.903 214.278L234.43 208.322Z" fill="#007AFF"/>
<path opacity="0.5" d="M223.049 210.794C223.049 210.794 222.089 192.681 228.341 192.65C234.849 192.65 231.059 203.091 229.108 208.179C224.95 219.038 223.049 220.683 223.039 217.69L223.049 210.794Z" fill="white"/>
<path opacity="0.5" d="M214.754 216.137C214.754 216.137 207.96 199.311 213.865 197.258C219.995 195.112 219.821 206.248 219.637 211.693C219.229 223.309 217.962 225.485 216.981 222.655L214.754 216.137Z" fill="white"/>
<path opacity="0.5" d="M207.919 226.057C207.919 226.057 200.298 214.176 204.507 211.754C208.89 209.231 210.371 217.772 211.015 221.97C212.384 230.909 211.73 232.748 210.575 230.736L207.919 226.057Z" fill="white"/>
<path opacity="0.5" d="M200.717 235.762C200.717 235.762 193.096 223.881 197.305 221.46C201.698 218.926 203.169 227.467 203.812 231.676C205.181 240.615 204.538 242.454 203.373 240.431L200.717 235.762Z" fill="white"/>
<path opacity="0.5" d="M228.076 221.388C228.076 221.388 246.127 219.6 246.464 225.842C246.791 232.34 236.156 229.04 230.987 227.324C219.944 223.666 218.217 221.848 221.21 221.695L228.076 221.388Z" fill="white"/>
<path opacity="0.5" d="M222.538 229.101C222.538 229.101 240.59 230.94 239.65 237.121C238.69 243.547 228.923 238.204 224.193 235.497C214.1 229.714 212.772 227.589 215.735 228.039L222.538 229.101Z" fill="white"/>
<path opacity="0.5" d="M215.091 236.927C215.091 236.927 230.313 238.898 229.393 244.078C228.423 249.492 220.291 244.742 216.348 242.351C207.95 237.243 206.877 235.394 209.37 235.844L215.091 236.927Z" fill="white"/>
<path opacity="0.5" d="M209.85 243.782C209.85 243.782 225.174 244.129 224.817 249.401C224.429 254.887 215.837 251.025 211.669 249.063C202.77 244.865 201.453 243.159 204.027 243.332L209.85 243.782Z" fill="white"/>
<path opacity="0.5" d="M234.43 208.322C234.43 208.322 248.109 191.843 253.646 198.106C259.398 204.562 247.67 209.762 241.878 212.183C229.506 217.343 226.553 216.852 228.903 214.278L234.43 208.322Z" fill="white"/>
<path d="M248.038 203.653C248.038 203.653 225.266 216.178 217.86 224.085C209.452 233.011 202.427 243.145 197.019 254.151" stroke="#263238" stroke-width="0.581765" stroke-linecap="round" stroke-linejoin="round"/>
<path d="M223.346 219.181L228.362 200.537" stroke="#263238" stroke-width="0.581765" stroke-linecap="round" stroke-linejoin="round"/>
<path d="M217.86 224.044L216.164 206.013" stroke="#263238" stroke-width="0.581765" stroke-linecap="round" stroke-linejoin="round"/>
<path d="M219.872 222.287L237.301 225.464" stroke="#263238" stroke-width="0.581765" stroke-linecap="round" stroke-linejoin="round"/>
<path d="M211.434 231.318L206.285 216.73" stroke="#263238" stroke-width="0.581765" stroke-linecap="round" stroke-linejoin="round"/>
<path d="M214.182 228.294L226.38 233.065" stroke="#263238" stroke-width="0.581765" stroke-linecap="round" stroke-linejoin="round"/>
<path d="M208.297 236.191L217.482 240.298" stroke="#263238" stroke-width="0.581765" stroke-linecap="round" stroke-linejoin="round"/>
<path d="M204.119 241.054L201.8 232.391" stroke="#263238" stroke-width="0.581765" stroke-linecap="round" stroke-linejoin="round"/>
<path d="M202.76 243.383L213.886 247.214" stroke="#263238" stroke-width="0.581765" stroke-linecap="round" stroke-linejoin="round"/>
<path d="M53.5239 36.273L50.1117 26.9457L51.9302 28.9889V25.8015L55.7918 31.7166L52.3797 10.5591L56.936 22.1646L57.3855 11.9281L58.07 15.3403L58.9792 3.7348L60.5729 21.4801L62.8511 15.3403L62.3914 23.2986L68.5313 5.10375L65.5788 27.8549L69.9002 24.6675L67.3973 28.7642L70.5847 26.486L66.9478 36.9472L53.7486 37.1822" fill="#007AFF"/>
<path d="M68.1125 59.2387H53.8917L50.0607 34.5975H71.9435L68.1125 59.2387Z" fill="#263238" stroke="#263238" stroke-width="0.581765" stroke-linecap="round" stroke-linejoin="round"/>
<path d="M393.056 67.4416C396.612 46.6817 382.665 26.9698 361.906 23.4138C341.146 19.8578 321.434 33.8043 317.878 54.5642C314.322 75.3241 328.268 95.036 349.028 98.592C369.788 102.148 389.5 88.2015 393.056 67.4416Z" fill="#263238"/>
<path d="M355.47 91.6543C372.397 91.6543 386.118 77.9326 386.118 61.0061C386.118 44.0795 372.397 30.3578 355.47 30.3578C338.544 30.3578 324.822 44.0795 324.822 61.0061C324.822 77.9326 338.544 91.6543 355.47 91.6543Z" fill="white" stroke="#263238" stroke-width="0.581765" stroke-linecap="round" stroke-linejoin="round"/>
<path d="M358.198 61.0061C358.198 61.5456 358.038 62.0729 357.738 62.5215C357.438 62.9701 357.012 63.3197 356.514 63.5261C356.015 63.7326 355.467 63.7866 354.938 63.6813C354.409 63.5761 353.923 63.3163 353.541 62.9348C353.16 62.5534 352.9 62.0673 352.795 61.5382C352.689 61.0091 352.743 60.4606 352.95 59.9622C353.156 59.4638 353.506 59.0378 353.955 58.7381C354.403 58.4383 354.931 58.2784 355.47 58.2784C356.193 58.2811 356.885 58.5693 357.396 59.0803C357.907 59.5912 358.195 60.2835 358.198 61.0061Z" fill="#263238"/>
<path d="M346.337 74.8386L355.47 61.0061L370.896 73.7659" stroke="#263238" stroke-width="0.581765" stroke-linecap="round" stroke-linejoin="round"/>
<path d="M123.259 59.0752H12.4246V250.065H123.259V59.0752Z" fill="#263238" stroke="#263238" stroke-width="0.581765" stroke-linecap="round" stroke-linejoin="round"/>
<path d="M123.259 59.0752H51.4601V250.065H123.259V59.0752Z" fill="white" stroke="#263238" stroke-width="0.581765" stroke-linecap="round" stroke-linejoin="round"/>
<path d="M118.375 65.3479H55.6385V111.351H118.375V65.3479Z" fill="white" stroke="#263238" stroke-width="0.581765" stroke-linecap="round" stroke-linejoin="round"/>
<path d="M99.5472 84.1659H74.4565V92.5329H99.5472V84.1659Z" fill="#263238"/>
<path d="M118.375 119.023H55.6385V165.026H118.375V119.023Z" fill="white" stroke="#263238" stroke-width="0.581765" stroke-linecap="round" stroke-linejoin="round"/>
<path d="M99.5472 137.841H74.4565V146.208H99.5472V137.841Z" fill="#263238"/>
<path d="M118.375 172.698H55.6385V218.701H118.375V172.698Z" fill="white" stroke="#263238" stroke-width="0.581765" stroke-linecap="round" stroke-linejoin="round"/>
<path d="M99.5472 191.516H74.4565V199.883H99.5472V191.516Z" fill="#263238"/>
<path d="M247.537 114.15C247.537 114.15 246.812 108.327 240.498 98.3866C234.185 88.4464 240.263 85.2896 246.812 77.2904C253.36 69.2913 263.536 70.9871 269.114 72.1824C274.692 73.3777 284.152 75.8193 286.328 83.3383C288.504 90.8574 289.239 107.346 289.484 108.807C289.73 110.268 287.063 110.738 285.847 110.503C284.632 110.268 281.965 96.6805 278.574 93.7689C275.182 90.8574 260.185 92.7984 256.017 97.8554C251.848 102.912 253.115 110.227 253.35 113.384C253.585 116.541 252.145 117.47 250.684 117.746C249.223 118.022 247.537 114.15 247.537 114.15Z" fill="#263238" stroke="#263238" stroke-width="0.581765" stroke-linecap="round" stroke-linejoin="round"/>
<path d="M268.736 130.945C268.736 130.945 246.26 136.053 239.364 138.096C232.469 140.14 226.083 141.672 227.36 144.737C228.637 147.802 220.465 173.342 220.465 173.342L208.972 201.17L225.317 213.941L238.343 188.656L250.091 246.121H329.01C329.01 246.121 326.712 150.346 322.881 145.493C319.05 140.64 288.657 130.169 281.25 129.403C277.015 128.899 272.721 129.428 268.736 130.945Z" fill="#007AFF" stroke="#263238" stroke-width="0.581765" stroke-linecap="round" stroke-linejoin="round"/>
<path d="M305.942 186.01C302.545 178.727 299.657 171.217 297.3 163.534" stroke="#263238" stroke-width="0.581765" stroke-linecap="round" stroke-linejoin="round"/>
<path d="M298.567 183.926C301.164 187.133 304.852 189.271 308.926 189.933" stroke="#263238" stroke-width="0.581765" stroke-linecap="round" stroke-linejoin="round"/>
<path d="M295.522 178.695C295.91 179.766 296.41 180.794 297.014 181.76" stroke="#263238" stroke-width="0.581765" stroke-linecap="round" stroke-linejoin="round"/>
<path d="M233.97 164.883L238.343 188.666L230.364 164.873" stroke="#263238" stroke-width="0.581765" stroke-linecap="round" stroke-linejoin="round"/>
<path d="M232.438 156.567L233.357 161.573" stroke="#263238" stroke-width="0.581765" stroke-linecap="round" stroke-linejoin="round"/>
<path d="M250.929 116.816C250.929 116.816 248.508 110.993 246.321 110.993C244.135 110.993 244.626 114.15 245.596 117.787C246.567 121.424 249.478 125.541 251.654 125.541H253.84L250.929 116.816Z" fill="white" stroke="#263238" stroke-width="0.581765" stroke-linecap="round" stroke-linejoin="round"/>
<path d="M286.093 107.111C286.093 107.111 288.514 100.082 289.73 103.719C290.895 107.75 290.979 112.017 289.975 116.091C289.004 119.963 288.759 121.424 287.789 121.199C286.818 120.974 286.093 107.111 286.093 107.111Z" fill="white" stroke="#263238" stroke-width="0.581765" stroke-linecap="round" stroke-linejoin="round"/>
<path d="M262.698 166.078L263.495 166.957L265.344 168.98L269.451 177.898L267.04 233.617L274.998 245.917L281.986 230.48L271.617 177.663L273.793 168.009L275.958 161.501L274.518 160.296L272.097 165.118L264.864 164.883L261.492 162.227L260.042 165.363L262.698 166.078Z" fill="#263238" stroke="#263238" stroke-width="0.581765" stroke-linecap="round" stroke-linejoin="round"/>
<path d="M258.356 129.423C258.356 129.423 252.563 136.421 252.083 143.174C251.603 149.927 257.191 170.42 257.191 170.42C257.191 170.42 264.669 164.873 269.451 164.873C274.232 164.873 285.367 174.282 285.367 174.282C285.367 174.282 292.845 150.162 288.984 135.931C285.122 121.7 268.48 118.083 258.356 129.423Z" fill="white" stroke="#263238" stroke-width="0.581765" stroke-linecap="round" stroke-linejoin="round"/>
<path d="M258.836 131.834C258.836 131.834 260.767 140.763 262.207 146.545C263.648 152.327 267.52 165.843 269.451 164.873C271.381 163.902 279.82 143.889 280.065 138.832C280.31 133.775 263.903 120.464 258.836 131.834Z" fill="#007AFF"/>
<mask id="mask0_830_362" style="mask-type:luminance" maskUnits="userSpaceOnUse" x="258" y="127" width="23" height="38">
<path d="M258.836 131.834C258.836 131.834 260.767 140.763 262.207 146.545C263.648 152.327 267.52 165.843 269.451 164.873C271.381 163.902 279.82 143.889 280.065 138.832C280.31 133.775 263.903 120.464 258.836 131.834Z" fill="white"/>
</mask>
<g mask="url(#mask0_830_362)">
<path opacity="0.5" d="M258.836 131.834C258.836 131.834 260.767 140.763 262.207 146.545C263.648 152.327 267.52 165.843 269.451 164.873C271.381 163.902 279.82 143.889 280.065 138.832C280.31 133.775 263.903 120.464 258.836 131.834Z" fill="white" stroke="#263238" stroke-width="0.581765" stroke-linecap="round" stroke-linejoin="round"/>
</g>
<path d="M258.836 131.834C258.836 131.834 260.767 140.763 262.207 146.545C263.648 152.327 267.52 165.843 269.451 164.873C271.381 163.902 279.82 143.889 280.065 138.832C280.31 133.775 263.903 120.464 258.836 131.834Z" stroke="#263238" stroke-width="0.581765" stroke-linecap="round" stroke-linejoin="round"/>
<path d="M252.328 95.1583C252.328 95.1583 249.039 100.89 249.54 105.303C250.04 109.716 250.633 118.512 253.033 125.051C255.434 131.589 263.127 138.526 268.879 144.114C274.63 149.702 279.799 146.096 281.638 143.439C283.477 140.783 286.225 131.047 287.584 123.579C288.943 116.111 286.164 98.0393 283.62 93.4522C281.076 88.8652 264.782 81.7344 252.328 95.1583Z" fill="white"/>
<mask id="mask1_830_362" style="mask-type:luminance" maskUnits="userSpaceOnUse" x="249" y="87" width="39" height="61">
<path d="M252.328 95.1583C252.328 95.1583 249.039 100.89 249.54 105.303C250.04 109.716 250.633 118.512 253.033 125.051C255.434 131.589 263.127 138.526 268.879 144.114C274.63 149.702 279.799 146.096 281.638 143.439C283.477 140.783 286.225 131.047 287.584 123.579C288.943 116.111 286.164 98.0393 283.62 93.4522C281.076 88.8652 264.782 81.7344 252.328 95.1583Z" fill="white"/>
</mask>
<g mask="url(#mask1_830_362)">
<path d="M252.328 95.1584C251.444 96.7838 250.729 98.4954 250.193 100.266C250.806 100.583 257.171 103.842 259.98 103.842C262.79 103.842 252.093 105.487 255.383 109.43C258.673 113.374 274.426 109.757 279.35 106.141C284.274 102.524 284.611 103.515 284.611 103.515C284.611 103.515 286.91 119.932 285.265 128.8C283.62 137.667 280.995 142.918 276.724 144.236C272.454 145.554 266.375 140.15 262.606 136.064C260.609 133.983 258.397 132.12 256.006 130.506C259.459 135.338 264.68 140.13 268.878 144.206C274.62 149.794 279.799 146.188 281.638 143.531C283.477 140.875 286.225 131.139 287.584 123.671C288.943 116.203 286.164 98.1313 283.62 93.5442C281.076 88.9572 264.782 81.7345 252.328 95.1584Z" fill="#007AFF"/>
<path opacity="0.5" d="M252.328 95.1584C251.444 96.7838 250.729 98.4954 250.193 100.266C250.806 100.583 257.171 103.842 259.98 103.842C262.79 103.842 252.093 105.487 255.383 109.43C258.673 113.374 274.426 109.757 279.35 106.141C284.274 102.524 284.611 103.515 284.611 103.515C284.611 103.515 286.91 119.932 285.265 128.8C283.62 137.667 280.995 142.918 276.724 144.236C272.454 145.554 266.375 140.15 262.606 136.064C260.609 133.983 258.397 132.12 256.006 130.506C259.459 135.338 264.68 140.13 268.878 144.206C274.62 149.794 279.799 146.188 281.638 143.531C283.477 140.875 286.225 131.139 287.584 123.671C288.943 116.203 286.164 98.1313 283.62 93.5442C281.076 88.9572 264.782 81.7345 252.328 95.1584Z" fill="white"/>
<path d="M264.966 119.575C265.211 120.944 264.853 122.159 264.169 122.282C263.484 122.405 262.728 121.393 262.473 120.024C262.218 118.655 262.585 117.429 263.27 117.307C263.954 117.184 264.721 118.196 264.966 119.575Z" fill="#263238"/>
<path d="M277.44 116.806C277.685 118.175 277.337 119.391 276.643 119.513C275.948 119.636 275.202 118.625 274.947 117.256C274.691 115.887 275.059 114.661 275.744 114.538C276.428 114.416 277.194 115.427 277.44 116.806Z" fill="#263238"/>
<path d="M256.527 115.907C256.527 115.907 257.089 112.842 265.242 112.842" stroke="#263238" stroke-width="0.581765" stroke-linecap="round" stroke-linejoin="round"/>
<path d="M272.229 111.688C272.229 111.688 274.763 105.783 279.82 109.165" stroke="#263238" stroke-width="0.581765" stroke-linecap="round" stroke-linejoin="round"/>
<path d="M272.822 116.183C272.822 116.183 273.108 121.24 275.355 123.488C277.603 125.735 277.317 126.552 275.355 128.269C274.728 128.758 273.992 129.09 273.21 129.236C272.428 129.382 271.622 129.337 270.86 129.106" stroke="#263238" stroke-width="0.581765" stroke-linecap="round" stroke-linejoin="round"/>
<path d="M272.229 135.287C272.229 135.287 276.724 134.725 278.696 133.04" stroke="#263238" stroke-width="0.581765" stroke-linecap="round" stroke-linejoin="round"/>
</g>
<path d="M252.328 95.1583C252.328 95.1583 249.039 100.89 249.54 105.303C250.04 109.716 250.633 118.512 253.033 125.051C255.434 131.589 263.127 138.526 268.879 144.114C274.63 149.702 279.799 146.096 281.638 143.439C283.477 140.783 286.225 131.047 287.584 123.579C288.943 116.111 286.164 98.0393 283.62 93.4522C281.076 88.8652 264.782 81.7344 252.328 95.1583Z" stroke="#263238" stroke-width="0.581765" stroke-linecap="round" stroke-linejoin="round"/>
<path d="M243.778 95.5261C243.778 95.5261 253.309 99.2652 257.866 99.2652C262.422 99.2652 259.909 100.093 257.038 102.575C254.167 105.058 253.728 108.378 264.506 108.378C275.284 108.378 284.805 96.7725 288.126 86.8322C291.446 76.892 293.101 78.5368 287.298 75.5946C281.495 72.6523 266.57 80.1509 266.57 80.1509" fill="#263238"/>
<path d="M243.778 95.5261C243.778 95.5261 253.309 99.2652 257.866 99.2652C262.422 99.2652 259.909 100.093 257.038 102.575C254.167 105.058 253.728 108.378 264.506 108.378C275.284 108.378 284.805 96.7725 288.126 86.8322C291.446 76.892 293.101 78.5368 287.298 75.5946C281.495 72.6523 266.57 80.1509 266.57 80.1509" stroke="#263238" stroke-width="0.581765" stroke-linecap="round" stroke-linejoin="round"/>
<path d="M282.987 83.1545C282.987 83.1545 285.582 98.7135 270.891 103.035" stroke="white" stroke-width="0.581765" stroke-linecap="round" stroke-linejoin="round"/>
<path d="M279.963 83.1545C279.963 83.1545 273.895 92.7678 263.117 93.9631C252.339 95.1583 246.26 88.7733 246.26 88.7733" stroke="white" stroke-width="0.581765" stroke-linecap="round" stroke-linejoin="round"/>
<path d="M250.582 98.7135C250.582 98.7135 244.534 99.1426 241.51 95.6487" stroke="white" stroke-width="0.581765" stroke-linecap="round" stroke-linejoin="round"/>
<path d="M228.637 207.566C228.637 207.566 227.105 201.436 218.421 198.116C209.738 194.796 208.716 196.328 207.439 198.882C206.162 201.436 202.331 205.267 203.097 207.821C203.864 210.375 206.928 216.505 218.166 218.803C229.404 221.102 227.105 215.483 228.382 213.951C229.659 212.418 230.936 213.185 228.637 207.566Z" fill="white" stroke="#263238" stroke-width="0.581765" stroke-linecap="round" stroke-linejoin="round"/>
<path d="M146.143 229.019C146.143 229.019 134.65 232.85 135.16 235.405C135.671 237.959 146.398 232.34 146.398 232.34C146.398 232.34 148.186 235.66 151.506 234.383C154.826 233.106 152.017 227.998 150.229 228.253C148.441 228.509 146.143 229.019 146.143 229.019Z" fill="white" stroke="#263238" stroke-width="0.581765" stroke-linecap="round" stroke-linejoin="round"/>
<path d="M207.694 226.976C207.694 226.976 223.274 218.538 223.274 214.451C223.274 210.365 211.525 205.001 208.461 205.257C205.396 205.512 204.119 206.534 201.82 210.365C199.522 214.196 180.877 231.563 180.877 231.563C180.877 231.563 168.618 222.88 165.042 222.88C161.467 222.88 153.294 232.329 152.783 236.16C152.272 239.991 169.64 241.779 176.535 241.779C185.025 241.789 207.694 226.976 207.694 226.976Z" fill="white"/>
<mask id="mask2_830_362" style="mask-type:luminance" maskUnits="userSpaceOnUse" x="152" y="205" width="72" height="37">
<path d="M207.694 226.976C207.694 226.976 223.274 218.538 223.274 214.451C223.274 210.365 211.525 205.001 208.461 205.257C205.396 205.512 204.119 206.534 201.82 210.365C199.522 214.196 180.877 231.563 180.877 231.563C180.877 231.563 168.618 222.88 165.042 222.88C161.467 222.88 153.294 232.329 152.783 236.16C152.272 239.991 169.64 241.779 176.535 241.779C185.025 241.789 207.694 226.976 207.694 226.976Z" fill="white"/>
</mask>
<g mask="url(#mask2_830_362)">
<path d="M223.274 214.451C223.274 210.365 211.525 205.001 208.461 205.257C207.667 205.262 206.883 205.423 206.152 205.732C205.421 206.04 204.758 206.49 204.201 207.055C207.639 206.588 211.134 207.274 214.141 209.006C220.424 212.776 215.081 218.119 210.994 220.939C206.908 223.758 183.993 238.531 178.967 239.154C173.941 239.777 169.19 236.263 166.064 232.84C162.938 229.418 160.752 226.905 156.982 229.101L156.747 229.275C155.391 230.859 154.238 232.605 153.314 234.475C153.098 235.203 152.941 235.948 152.844 236.702C153.948 240.155 169.977 241.81 176.535 241.81C185.025 241.81 207.694 226.997 207.694 226.997C207.694 226.997 223.274 218.538 223.274 214.451Z" fill="#007AFF"/>
<path opacity="0.5" d="M223.274 214.451C223.274 210.365 211.525 205.001 208.461 205.257C207.667 205.262 206.883 205.423 206.152 205.732C205.421 206.04 204.758 206.49 204.201 207.055C207.639 206.588 211.134 207.274 214.141 209.006C220.424 212.776 215.081 218.119 210.994 220.939C206.908 223.758 183.993 238.531 178.967 239.154C173.941 239.777 169.19 236.263 166.064 232.84C162.938 229.418 160.752 226.905 156.982 229.101L156.747 229.275C155.391 230.859 154.238 232.605 153.314 234.475C153.098 235.203 152.941 235.948 152.844 236.702C153.948 240.155 169.977 241.81 176.535 241.81C185.025 241.81 207.694 226.997 207.694 226.997C207.694 226.997 223.274 218.538 223.274 214.451Z" fill="white"/>
</g>
<path d="M207.694 226.976C207.694 226.976 223.274 218.538 223.274 214.451C223.274 210.365 211.525 205.001 208.461 205.257C205.396 205.512 204.119 206.534 201.82 210.365C199.522 214.196 180.877 231.563 180.877 231.563C180.877 231.563 168.618 222.88 165.042 222.88C161.467 222.88 153.294 232.329 152.783 236.16C152.272 239.991 169.64 241.779 176.535 241.779C185.025 241.789 207.694 226.976 207.694 226.976Z" stroke="#263238" stroke-width="0.581765" stroke-linecap="round" stroke-linejoin="round"/>
<path d="M150.74 223.401C150.74 223.401 145.887 225.699 145.377 227.232C144.866 228.764 141.546 237.703 143.844 238.725C146.143 239.746 149.208 229.275 150.229 228.253C151.251 227.232 152.783 224.933 150.74 223.401Z" fill="white" stroke="#263238" stroke-width="0.581765" stroke-linecap="round" stroke-linejoin="round"/>
<path d="M155.848 223.145C155.848 223.145 152.783 220.591 150.74 223.401C148.697 226.21 147.164 236.171 148.186 238.214C149.208 240.257 151.762 238.214 152.783 236.171C153.805 234.127 155.848 223.145 155.848 223.145Z" fill="white" stroke="#263238" stroke-width="0.581765" stroke-linecap="round" stroke-linejoin="round"/>
<path d="M166.575 224.422C166.575 224.422 161.722 220.336 158.913 220.08C156.103 219.825 155.082 221.868 154.826 224.167C154.571 226.465 150.995 236.937 152.017 237.448C153.039 237.959 155.082 237.703 156.359 235.404C157.801 232.237 159.079 228.998 160.19 225.699L162.233 227.232" fill="white"/>
<path d="M166.575 224.422C166.575 224.422 161.722 220.336 158.913 220.08C156.103 219.825 155.082 221.868 154.826 224.167C154.571 226.465 150.995 236.937 152.017 237.448C153.039 237.959 155.082 237.703 156.359 235.404C157.801 232.237 159.079 228.998 160.19 225.699L162.233 227.232" stroke="#263238" stroke-width="0.581765" stroke-linecap="round" stroke-linejoin="round"/>
<path d="M179.856 236.927C179.856 236.927 180.877 230.797 179.09 228.243C177.302 225.689 172.96 225.944 169.64 222.113C166.32 218.282 163.766 220.581 164.532 223.901C165.298 227.221 172.705 229.265 172.705 229.265C172.705 229.265 166.575 229.775 166.064 232.84C165.553 235.905 172.367 237.274 172.367 237.274" fill="white"/>
<path d="M179.856 236.927C179.856 236.927 180.877 230.797 179.09 228.243C177.302 225.689 172.96 225.944 169.64 222.113C166.32 218.282 163.766 220.581 164.532 223.901C165.298 227.221 172.705 229.265 172.705 229.265C172.705 229.265 166.575 229.775 166.064 232.84C165.553 235.905 172.367 237.274 172.367 237.274" stroke="#263238" stroke-width="0.581765" stroke-linecap="round" stroke-linejoin="round"/>
<path d="M162.458 215.136C166.106 215.48 169.636 216.609 172.807 218.446" stroke="#263238" stroke-width="0.581765" stroke-linecap="round" stroke-linejoin="round"/>
<path d="M166.595 213.481C166.595 213.481 171.979 215.136 174.462 217.21" stroke="#263238" stroke-width="0.581765" stroke-linecap="round" stroke-linejoin="round"/>
<path d="M309.089 156.485C307.527 159.194 306.162 162.01 305.003 164.914C303.981 167.978 306.79 205.778 306.79 205.778C310.18 204.716 313.785 204.54 317.262 205.267C322.625 206.544 333.352 212.418 333.352 212.418C333.352 212.418 334.374 201.436 332.586 193.263C330.798 185.09 327.478 152.144 325.179 148.823C322.881 145.503 323.647 143.715 318.794 145.503" fill="#007AFF"/>
<path d="M309.089 156.485C307.527 159.194 306.162 162.01 305.003 164.914C303.981 167.978 306.79 205.778 306.79 205.778C310.18 204.716 313.785 204.54 317.262 205.267C322.625 206.544 333.352 212.418 333.352 212.418C333.352 212.418 334.374 201.436 332.586 193.263C330.798 185.09 327.478 152.144 325.179 148.823C322.881 145.503 323.647 143.715 318.794 145.503" stroke="#263238" stroke-width="0.581765" stroke-linecap="round" stroke-linejoin="round"/>
<path d="M336.928 206.033C336.928 206.033 330.032 200.159 324.669 198.882C319.305 197.605 309.089 198.882 307.557 199.393C306.024 199.904 305.003 201.691 304.747 204.246C304.492 206.8 302.704 208.587 303.981 210.12C305.258 211.652 312.409 216.505 318.283 218.037C324.158 219.57 333.097 219.059 334.374 215.228C335.651 211.397 338.205 208.843 336.928 206.033Z" fill="white" stroke="#263238" stroke-width="0.581765" stroke-linecap="round" stroke-linejoin="round"/>
<path d="M200.155 226.711C200.155 226.711 191.982 230.235 189.285 231.114C186.588 231.992 185.751 234.424 188.11 235.2C190.47 235.977 201.197 231.972 202.209 232.268C203.22 232.564 214.253 236.089 217.778 236.355C220.1 236.427 222.377 235.707 224.234 234.311C224.234 234.311 207.49 223.748 200.155 226.711Z" fill="white" stroke="#263238" stroke-width="0.581765" stroke-linecap="round" stroke-linejoin="round"/>
<path d="M325.956 222.399C327.291 221.953 328.47 221.132 329.351 220.033C330.232 218.935 330.778 217.607 330.925 216.206C331.071 214.806 330.812 213.393 330.177 212.136C329.542 210.879 328.559 209.832 327.345 209.119C325.545 208.099 323.613 207.332 321.604 206.84C315.505 205.389 309.115 205.744 303.215 207.862C300.661 208.884 243.328 226.435 239.211 227.017C235.094 227.599 208.083 218.507 203.966 218.211C198.521 217.823 192.227 232.207 190.46 236.048C190.126 236.657 189.94 237.336 189.919 238.03C189.916 238.377 190.026 238.715 190.232 238.993C190.439 239.271 190.73 239.475 191.063 239.573C191.849 239.705 192.524 239.062 193.014 238.439C196.651 233.913 198.643 228.008 203.23 224.443L196.876 236.702C196.484 237.343 196.233 238.061 196.14 238.806C196.1 239.18 196.176 239.556 196.359 239.884C196.542 240.211 196.823 240.474 197.162 240.635C198.183 241.003 199.205 240.114 199.767 239.236C201.064 237.1 202.221 234.881 203.23 232.595C204.255 230.293 205.991 228.38 208.185 227.14C205.682 231.433 203.654 235.985 202.137 240.717C202.008 241.078 202.014 241.474 202.155 241.831C202.296 242.189 202.562 242.482 202.903 242.658C203.925 243.097 204.64 242.127 205.12 241.299L211.955 229.346C210.146 233.433 208.522 237.642 207.071 241.882C206.944 242.163 206.905 242.476 206.959 242.781C207.007 242.928 207.088 243.063 207.196 243.174C207.304 243.286 207.436 243.371 207.582 243.424C207.971 243.561 208.39 243.585 208.792 243.492C209.193 243.4 209.56 243.196 209.85 242.903C210.422 242.317 210.87 241.622 211.168 240.86C212.394 238.173 213.262 235.302 214.529 232.687C218.054 233.443 220.996 236.773 224.847 237.325C228.699 237.877 235.707 236.15 235.707 236.15C235.707 236.15 305.789 226.527 314.984 224.739C318.678 224.144 322.34 223.363 325.956 222.399Z" fill="white"/>
<mask id="mask3_830_362" style="mask-type:luminance" maskUnits="userSpaceOnUse" x="189" y="205" width="142" height="39">
<path d="M325.956 222.399C327.291 221.953 328.47 221.132 329.351 220.033C330.232 218.935 330.778 217.607 330.925 216.206C331.071 214.806 330.812 213.393 330.177 212.136C329.542 210.879 328.559 209.832 327.345 209.119C325.545 208.099 323.613 207.332 321.604 206.84C315.505 205.389 309.115 205.744 303.215 207.862C300.661 208.884 243.328 226.435 239.211 227.017C235.094 227.599 208.083 218.507 203.966 218.211C198.521 217.823 192.227 232.207 190.46 236.048C190.126 236.657 189.94 237.336 189.919 238.03C189.916 238.377 190.026 238.715 190.232 238.993C190.439 239.271 190.73 239.475 191.063 239.573C191.849 239.705 192.524 239.062 193.014 238.439C196.651 233.913 198.643 228.008 203.23 224.443L196.876 236.702C196.484 237.343 196.233 238.061 196.14 238.806C196.1 239.18 196.176 239.556 196.359 239.884C196.542 240.211 196.823 240.474 197.162 240.635C198.183 241.003 199.205 240.114 199.767 239.236C201.064 237.1 202.221 234.881 203.23 232.595C204.255 230.293 205.991 228.38 208.185 227.14C205.682 231.433 203.654 235.985 202.137 240.717C202.008 241.078 202.014 241.474 202.155 241.831C202.296 242.189 202.562 242.482 202.903 242.658C203.925 243.097 204.64 242.127 205.12 241.299L211.955 229.346C210.146 233.433 208.522 237.642 207.071 241.882C206.944 242.163 206.905 242.476 206.959 242.781C207.007 242.928 207.088 243.063 207.196 243.174C207.304 243.286 207.436 243.371 207.582 243.424C207.971 243.561 208.39 243.585 208.792 243.492C209.193 243.4 209.56 243.196 209.85 242.903C210.422 242.317 210.87 241.622 211.168 240.86C212.394 238.173 213.262 235.302 214.529 232.687C218.054 233.443 220.996 236.773 224.847 237.325C228.699 237.877 235.707 236.15 235.707 236.15C235.707 236.15 305.789 226.527 314.984 224.739C318.678 224.144 322.34 223.363 325.956 222.399Z" fill="white"/>
</mask>
<g mask="url(#mask3_830_362)">
<path d="M324.689 212.469C323.116 216.556 281.659 226.608 263.76 229.745C245.862 232.881 235.809 236.344 228.903 233.831C221.997 231.318 215.714 227.865 214.141 230.062C212.864 231.839 210.555 239.001 209.728 242.985L209.83 242.903C210.401 242.317 210.849 241.622 211.148 240.86C212.373 238.173 213.242 235.302 214.509 232.687C218.033 233.443 220.975 236.773 224.827 237.325C228.678 237.877 235.687 236.15 235.687 236.15C235.687 236.15 305.769 226.527 314.963 224.739C318.663 224.165 322.332 223.404 325.956 222.461C327.291 222.014 328.47 221.193 329.351 220.095C330.232 218.996 330.778 217.668 330.925 216.267C331.071 214.867 330.812 213.454 330.177 212.197C329.542 210.941 328.559 209.893 327.345 209.18C325.545 208.16 323.613 207.393 321.604 206.902C321.604 206.902 326.262 208.393 324.689 212.469Z" fill="#007AFF"/>
<path opacity="0.5" d="M324.689 212.469C323.116 216.556 281.659 226.608 263.76 229.745C245.862 232.881 235.809 236.344 228.903 233.831C221.997 231.318 215.714 227.865 214.141 230.062C212.864 231.839 210.555 239.001 209.728 242.985L209.83 242.903C210.401 242.317 210.849 241.622 211.148 240.86C212.373 238.173 213.242 235.302 214.509 232.687C218.033 233.443 220.975 236.773 224.827 237.325C228.678 237.877 235.687 236.15 235.687 236.15C235.687 236.15 305.769 226.527 314.963 224.739C318.663 224.165 322.332 223.404 325.956 222.461C327.291 222.014 328.47 221.193 329.351 220.095C330.232 218.996 330.778 217.668 330.925 216.267C331.071 214.867 330.812 213.454 330.177 212.197C329.542 210.941 328.559 209.893 327.345 209.18C325.545 208.16 323.613 207.393 321.604 206.902C321.604 206.902 326.262 208.393 324.689 212.469Z" fill="white"/>
</g>
<path d="M325.956 222.399C327.291 221.953 328.47 221.132 329.351 220.033C330.232 218.935 330.778 217.607 330.925 216.206C331.071 214.806 330.812 213.393 330.177 212.136C329.542 210.879 328.559 209.832 327.345 209.119C325.545 208.099 323.613 207.332 321.604 206.84C315.505 205.389 309.115 205.744 303.215 207.862C300.661 208.884 243.328 226.435 239.211 227.017C235.094 227.599 208.083 218.507 203.966 218.211C198.521 217.823 192.227 232.207 190.46 236.048C190.126 236.657 189.94 237.336 189.919 238.03C189.916 238.377 190.026 238.715 190.232 238.993C190.439 239.271 190.73 239.475 191.063 239.573C191.849 239.705 192.524 239.062 193.014 238.439C196.651 233.913 198.643 228.008 203.23 224.443L196.876 236.702C196.484 237.343 196.233 238.061 196.14 238.806C196.1 239.18 196.176 239.556 196.359 239.884C196.542 240.211 196.823 240.474 197.162 240.635C198.183 241.003 199.205 240.114 199.767 239.236C201.064 237.1 202.221 234.881 203.23 232.595C204.255 230.293 205.991 228.38 208.185 227.14C205.682 231.433 203.654 235.985 202.137 240.717C202.008 241.078 202.014 241.474 202.155 241.831C202.296 242.189 202.562 242.482 202.903 242.658C203.925 243.097 204.64 242.127 205.12 241.299L211.955 229.346C210.146 233.433 208.522 237.642 207.071 241.882C206.944 242.163 206.905 242.476 206.959 242.781C207.007 242.928 207.088 243.063 207.196 243.174C207.304 243.286 207.436 243.371 207.582 243.424C207.971 243.561 208.39 243.585 208.792 243.492C209.193 243.4 209.56 243.196 209.85 242.903C210.422 242.317 210.87 241.622 211.168 240.86C212.394 238.173 213.262 235.302 214.529 232.687C218.054 233.443 220.996 236.773 224.847 237.325C228.699 237.877 235.707 236.15 235.707 236.15C235.707 236.15 305.789 226.527 314.984 224.739C318.678 224.144 322.34 223.363 325.956 222.399Z" stroke="#263238" stroke-width="0.581765" stroke-linecap="round" stroke-linejoin="round"/>
<path d="M94.1634 245.549H139.492V243.434H94.1634V245.549Z" fill="white" stroke="#263238" stroke-width="0.581765" stroke-linecap="round" stroke-linejoin="round"/>
<path d="M59.3062 231.594H157.013V168.581H59.3062L59.3062 231.594Z" fill="white" stroke="#263238" stroke-width="0.581765" stroke-linecap="round" stroke-linejoin="round"/>
<path d="M59.3062 231.594H151.68V168.581H59.3062L59.3062 231.594Z" fill="#263238" stroke="#263238" stroke-width="0.581765" stroke-linecap="round" stroke-linejoin="round"/>
<path d="M93.111 246.509H114.493V197.86H93.111V246.509Z" fill="white" stroke="#263238" stroke-width="0.581765" stroke-linecap="round" stroke-linejoin="round"/>
<path d="M91.1395 246.509H112.522V197.86H91.1395V246.509Z" fill="#263238" stroke="#263238" stroke-width="0.581765" stroke-linecap="round" stroke-linejoin="round"/>
<path d="M113.942 198.443H90.6388V231.747" stroke="white" stroke-width="0.581765" stroke-linecap="round" stroke-linejoin="round"/>
<path d="M157.687 245.733H223.141V242.311H157.687V245.733Z" fill="white" stroke="#263238" stroke-width="0.581765" stroke-linecap="round" stroke-linejoin="round"/>
<path d="M124.321 245.733H206.223V242.311H124.321V245.733Z" fill="white" stroke="#263238" stroke-width="0.581765" stroke-linecap="round" stroke-linejoin="round"/>
<path d="M281.996 245.764H315.351L314.83 241.044L281.996 242.862V245.764Z" fill="white" stroke="#263238" stroke-width="0.581765" stroke-linecap="round" stroke-linejoin="round"/>
<path d="M258.611 246.009H291.967L291.446 241.289L258.611 243.107V246.009Z" fill="white" stroke="#263238" stroke-width="0.581765" stroke-linecap="round" stroke-linejoin="round"/>
<path d="M344.835 242.862C344.835 242.862 336.979 243.261 334.231 243.261C331.483 243.261 319.305 240.513 314.197 241.289C310.947 241.906 307.907 243.337 305.36 245.447C302.813 243.337 299.773 241.906 296.523 241.289C291.415 240.513 279.238 243.261 276.49 243.261C273.741 243.261 265.885 242.862 265.885 242.862V246.009L305.36 245.621L344.835 246.009V242.862Z" fill="white" stroke="#263238" stroke-width="0.581765" stroke-linecap="round" stroke-linejoin="round"/>
<path d="M265.885 242.862H232.53V245.764H265.885V242.862Z" fill="white" stroke="#263238" stroke-width="0.581765" stroke-linecap="round" stroke-linejoin="round"/>
<path d="M36.1463 253.426L379.519 253.426V245.702L36.1463 245.702V253.426Z" fill="white" stroke="#263238" stroke-width="0.581765" stroke-linecap="round" stroke-linejoin="round"/>
<path d="M7.58226 253.426L256.282 253.426V245.702L7.58226 245.702V253.426Z" fill="#263238" stroke="#263238" stroke-width="0.581765" stroke-linecap="round" stroke-linejoin="round"/>
</svg>
