<svg width="295" height="264" viewBox="0 0 295 264" fill="none" xmlns="http://www.w3.org/2000/svg">
<path d="M279.766 132.592C279.766 132.592 279.766 128.897 274.593 123.776C269.421 118.655 266.14 115.685 266.14 115.685C266.14 115.685 263.568 124.138 268.356 129.289C271.872 132.906 275.683 136.223 279.751 139.206L279.766 132.592Z" fill="#007AFF"/>
<path d="M272.303 155.544C272.303 155.544 272.303 151.849 267.13 146.728C261.957 141.607 258.691 138.637 258.691 138.637C258.691 138.637 256.112 147.09 260.908 152.241C264.423 155.858 268.234 159.176 272.303 162.158V155.544Z" fill="#007AFF"/>
<path d="M279.441 138.851C279.441 138.851 279.833 135.2 285.493 130.626C291.154 126.052 294.752 123.48 294.752 123.48C294.752 123.48 296.415 132.156 291.124 136.782C287.247 140.008 283.106 142.905 278.746 145.442L279.441 138.851Z" fill="#007AFF"/>
<path d="M270.426 165.957C270.426 165.957 271.165 162.365 277.305 158.412C283.446 154.458 287.259 152.278 287.259 152.278C287.259 152.278 287.998 161.087 282.256 165.114C278.061 167.916 273.639 170.363 269.036 172.43L270.426 165.957Z" fill="#007AFF"/>
<path d="M272.118 195.515C272.118 195.515 272.118 191.82 277.291 186.692C282.463 181.563 285.737 178.607 285.737 178.607C285.737 178.607 288.316 187.061 283.52 192.204C280.006 195.825 276.195 199.145 272.125 202.129L272.118 195.515Z" fill="#007AFF"/>
<path d="M272.036 202.727C272.036 202.727 272.554 199.091 268.194 193.268C263.834 187.445 260.974 184.061 260.974 184.061C260.974 184.061 257.228 192.064 261.225 197.835C264.189 201.916 267.489 205.743 271.091 209.274L272.036 202.727Z" fill="#007AFF"/>
<path d="M266.96 224.106C266.96 224.106 266.96 220.411 272.133 215.29C277.305 210.169 280.586 207.198 280.586 207.198C280.586 207.198 283.158 215.652 278.37 220.803C274.853 224.421 271.042 227.741 266.975 230.727L266.96 224.106Z" fill="#007AFF"/>
<path d="M270.396 243.488C270.396 243.488 269.465 239.934 273.137 233.653C276.81 227.371 279.271 223.691 279.271 223.691C279.271 223.691 283.897 231.214 280.579 237.407C278.097 241.797 275.252 245.972 272.073 249.888L270.396 243.488Z" fill="#007AFF"/>
<path d="M280.232 131.653C279.973 135.479 279.504 139.288 278.828 143.063C276.788 153.571 271.704 160.355 269.672 169.843C267.64 179.331 273.478 191.561 271.889 203.754C270.3 215.947 265.585 222.723 266.938 230.859C268.29 238.995 275.414 261.031 275.414 261.031" stroke="#263238" stroke-width="0.58" stroke-linecap="round" stroke-linejoin="round"/>
<path d="M279.397 141.296L284.939 137.04" stroke="#263238" stroke-width="0.58" stroke-linecap="round" stroke-linejoin="round"/>
<path d="M279.655 136.397L277.328 132.267" stroke="#263238" stroke-width="0.58" stroke-linecap="round" stroke-linejoin="round"/>
<path d="M269.982 169.407C269.982 169.407 274.623 165.927 279.397 162.446" stroke="#263238" stroke-width="0.58" stroke-linecap="round" stroke-linejoin="round"/>
<path d="M272.303 162.157C272.303 162.157 268.43 154.576 264.048 149.551" stroke="#263238" stroke-width="0.58" stroke-linecap="round" stroke-linejoin="round"/>
<path d="M272.303 200.747C274.95 195.854 278.296 191.373 282.234 187.445" stroke="#263238" stroke-width="0.58" stroke-linecap="round" stroke-linejoin="round"/>
<path d="M271.401 205.904C269.993 202.587 268.309 199.393 266.369 196.357C263.664 192.359 263.272 191.842 263.272 191.842" stroke="#263238" stroke-width="0.58" stroke-linecap="round" stroke-linejoin="round"/>
<path d="M266.96 230.86C268.138 227.947 269.536 225.128 271.142 222.428C272.75 219.918 274.561 217.546 276.559 215.334" stroke="#263238" stroke-width="0.58" stroke-linecap="round" stroke-linejoin="round"/>
<path d="M272.073 249.888C271.804 247.103 272.284 244.297 273.463 241.759C275.399 238.02 277.586 233.121 278.488 231.185" stroke="#263238" stroke-width="0.58" stroke-linecap="round" stroke-linejoin="round"/>
<path d="M237.778 181.696C237.778 181.696 237.379 179.391 240.047 175.6C242.715 171.809 244.481 169.614 244.481 169.614C244.481 169.614 247.008 174.639 244.569 178.378C242.758 181.031 240.729 183.527 238.502 185.842L237.778 181.696Z" fill="#007AFF"/>
<path d="M244.954 195.278C244.954 195.278 244.554 192.973 247.222 189.182C249.89 185.391 251.656 183.196 251.656 183.196C251.656 183.196 254.183 188.221 251.745 191.968C249.932 194.617 247.903 197.111 245.678 199.424L244.954 195.278Z" fill="#007AFF"/>
<path d="M238.658 185.583C238.658 185.583 238.022 183.366 233.973 181.083C229.923 178.8 227.396 177.603 227.396 177.603C227.396 177.603 227.292 183.226 231.091 185.546C233.872 187.147 236.781 188.514 239.788 189.633L238.658 185.583Z" fill="#007AFF"/>
<path d="M247.259 201.604C247.259 201.604 246.387 199.431 242.131 197.613C237.874 195.795 235.214 194.85 235.214 194.85C235.214 194.85 235.702 200.451 239.751 202.357C242.686 203.658 245.724 204.711 248.833 205.505L247.259 201.604Z" fill="#007AFF"/>
<path d="M249.402 220.322C249.402 220.322 249.011 218.016 245.22 215.348C241.429 212.681 239.042 211.195 239.042 211.195C239.042 211.195 238.347 216.775 241.902 219.479C244.498 221.37 247.25 223.038 250.126 224.467L249.402 220.322Z" fill="#007AFF"/>
<path d="M250.245 224.836C250.245 224.836 249.506 222.62 251.626 218.481C253.747 214.343 255.151 211.927 255.151 211.927C255.151 211.927 258.366 216.538 256.489 220.595C255.075 223.475 253.421 226.231 251.545 228.834L250.245 224.836Z" fill="#007AFF"/>
<path d="M256.703 243.422C256.703 243.422 256.969 241.102 260.597 238.249C264.226 235.397 266.509 233.749 266.509 233.749C266.509 233.749 267.522 239.284 264.13 242.188C261.645 244.221 258.996 246.042 256.208 247.634L256.703 243.422Z" fill="#007AFF"/>
<path d="M255.735 237.688C255.735 237.688 255.336 235.382 251.553 232.715C247.769 230.047 245.39 228.562 245.39 228.562C245.39 228.562 244.695 234.141 248.249 236.853C250.848 238.74 253.599 240.409 256.474 241.841L255.735 237.688Z" fill="#007AFF"/>
<path d="M255.735 250.221C255.735 250.221 255.927 247.885 252.942 244.346C249.956 240.806 248.02 238.767 248.02 238.767C248.02 238.767 245.929 243.984 248.685 247.509C250.706 249.991 252.93 252.3 255.336 254.41L255.735 250.221Z" fill="#007AFF"/>
<path d="M237.386 181.149C237.965 183.522 238.673 185.86 239.507 188.155C241.924 194.525 245.848 198.227 248.153 203.954C250.459 209.681 248.153 217.994 250.429 225.465C252.705 232.936 256.474 236.675 256.474 241.922C256.474 247.168 254.434 261.763 254.434 261.763" stroke="#263238" stroke-width="0.58" stroke-linecap="round" stroke-linejoin="round"/>
<path d="M238.96 187.106L235.022 185.044" stroke="#263238" stroke-width="0.58" stroke-linecap="round" stroke-linejoin="round"/>
<path d="M238.266 184.061L239.271 181.224" stroke="#263238" stroke-width="0.58" stroke-linecap="round" stroke-linejoin="round"/>
<path d="M247.909 203.718C247.909 203.718 244.621 202.04 241.259 200.37" stroke="#263238" stroke-width="0.58" stroke-linecap="round" stroke-linejoin="round"/>
<path d="M245.67 199.424C246.64 196.379 247.915 193.44 249.476 190.652" stroke="#263238" stroke-width="0.58" stroke-linecap="round" stroke-linejoin="round"/>
<path d="M249.86 223.617C247.667 220.843 245.084 218.401 242.19 216.368" stroke="#263238" stroke-width="0.58" stroke-linecap="round" stroke-linejoin="round"/>
<path d="M250.983 226.751C251.509 224.521 252.219 222.339 253.104 220.226C254.368 217.425 254.582 217.056 254.582 217.056" stroke="#263238" stroke-width="0.58" stroke-linecap="round" stroke-linejoin="round"/>
<path d="M256.297 245.904C257.578 244.317 258.997 242.845 260.538 241.508C261.518 240.786 262.438 239.985 263.287 239.113" stroke="#263238" stroke-width="0.58" stroke-linecap="round" stroke-linejoin="round"/>
<path d="M256.474 241.922C255.418 240.219 254.235 238.598 252.934 237.074C251.653 235.676 250.259 234.386 248.767 233.217" stroke="#263238" stroke-width="0.58" stroke-linecap="round" stroke-linejoin="round"/>
<path d="M255.336 254.41C255.204 252.633 254.599 250.924 253.585 249.459C251.966 247.324 250.06 244.486 249.284 243.37" stroke="#263238" stroke-width="0.58" stroke-linecap="round" stroke-linejoin="round"/>
<path d="M27.8905 149.507L24.6538 140.262L27.8905 144.186L25.3484 130.316L29.2797 140.262L30.669 120.835L32.9819 139.331L35.524 135.636V140.262L38.5315 134.018L36.9132 144.881L39.6843 143.033L35.2949 149.041L27.8905 149.507Z" fill="#007AFF"/>
<path d="M38.0659 147.193H26.043L28.2081 171.468H35.9007L38.0659 147.193Z" fill="#263238" stroke="#263238" stroke-width="0.58" stroke-linecap="round" stroke-linejoin="round"/>
<path d="M60.6192 171.195H19.6584V257.95H60.6192V171.195Z" fill="white" stroke="#263238" stroke-width="0.58" stroke-linecap="round" stroke-linejoin="round"/>
<path d="M62.8581 171.195H40.135V257.95H62.8581V171.195Z" fill="white" stroke="#263238" stroke-width="0.58" stroke-linecap="round" stroke-linejoin="round"/>
<path d="M60.3013 171.195H40.135V257.95H60.3013V171.195Z" fill="#263238" stroke="#263238" stroke-width="0.58" stroke-linecap="round" stroke-linejoin="round"/>
<path d="M58.0327 237.776H40.135V255.541H58.0327V237.776Z" fill="#007AFF" stroke="#263238" stroke-width="0.58" stroke-linecap="round" stroke-linejoin="round"/>
<path d="M58.0327 238.736H40.135V241.012H58.0327V238.736Z" fill="white" stroke="#263238" stroke-width="0.58" stroke-linecap="round" stroke-linejoin="round"/>
<path d="M58.0327 251.816H40.135V254.092H58.0327V251.816Z" fill="white" stroke="#263238" stroke-width="0.58" stroke-linecap="round" stroke-linejoin="round"/>
<path d="M43.5269 238.146V260.61" stroke="#263238" stroke-width="0.58" stroke-linecap="round" stroke-linejoin="round"/>
<path d="M49.771 238.146V260.61" stroke="#263238" stroke-width="0.58" stroke-linecap="round" stroke-linejoin="round"/>
<path d="M55.2542 238.146V260.61" stroke="#263238" stroke-width="0.58" stroke-linecap="round" stroke-linejoin="round"/>
<path d="M58.0327 174.417H40.135V200.539H58.0327V174.417Z" fill="#007AFF" stroke="#263238" stroke-width="0.58" stroke-linecap="round" stroke-linejoin="round"/>
<path d="M58.0327 175.511H40.135V178.097H58.0327V175.511Z" fill="white" stroke="#263238" stroke-width="0.58" stroke-linecap="round" stroke-linejoin="round"/>
<path d="M58.0327 192.256H40.135V194.842H58.0327V192.256Z" fill="white" stroke="#263238" stroke-width="0.58" stroke-linecap="round" stroke-linejoin="round"/>
<path d="M43.5269 174.831V200.362" stroke="#263238" stroke-width="0.58" stroke-linecap="round" stroke-linejoin="round"/>
<path d="M49.771 174.831V200.362" stroke="#263238" stroke-width="0.58" stroke-linecap="round" stroke-linejoin="round"/>
<path d="M55.2542 174.831V200.362" stroke="#263238" stroke-width="0.58" stroke-linecap="round" stroke-linejoin="round"/>
<path d="M58.0327 205.897H40.135V232.02H58.0327V205.897Z" fill="#007AFF" stroke="#263238" stroke-width="0.58" stroke-linecap="round" stroke-linejoin="round"/>
<path d="M58.0327 206.991H40.135V209.578H58.0327V206.991Z" fill="white" stroke="#263238" stroke-width="0.58" stroke-linecap="round" stroke-linejoin="round"/>
<path d="M58.0327 223.735H40.135V226.322H58.0327V223.735Z" fill="white" stroke="#263238" stroke-width="0.58" stroke-linecap="round" stroke-linejoin="round"/>
<path d="M43.5269 206.318V231.842" stroke="#263238" stroke-width="0.58" stroke-linecap="round" stroke-linejoin="round"/>
<path d="M49.771 206.318V231.842" stroke="#263238" stroke-width="0.58" stroke-linecap="round" stroke-linejoin="round"/>
<path d="M55.2542 206.318V231.842" stroke="#263238" stroke-width="0.58" stroke-linecap="round" stroke-linejoin="round"/>
<path d="M60.6117 200.178H40.135V203.148H60.6117V200.178Z" fill="white" stroke="#263238" stroke-width="0.58" stroke-linecap="round" stroke-linejoin="round"/>
<path d="M60.6117 231.856H40.135V234.827H60.6117V231.856Z" fill="white" stroke="#263238" stroke-width="0.58" stroke-linecap="round" stroke-linejoin="round"/>
<path d="M60.6116 171.195V257.942" stroke="#263238" stroke-width="0.58" stroke-linecap="round" stroke-linejoin="round"/>
<path d="M37.2458 171.195V257.942H40.1352V174.417H60.2572V171.158L37.2458 171.195Z" fill="white" stroke="#263238" stroke-width="0.58" stroke-linecap="round" stroke-linejoin="round"/>
<path d="M40.135 174.417V171.195" stroke="#263238" stroke-width="0.58" stroke-linecap="round" stroke-linejoin="round"/>
<path d="M60.457 131.344C58.3066 127.199 57.405 124.228 57.405 123.541C57.405 122.181 60.3609 121.368 60.3609 121.368C64.972 118.93 86.6606 122.455 96.4223 124.08C101.887 125.033 107.415 125.576 112.96 125.706C112.96 125.706 114.313 124.627 115.916 123.267C117.52 121.908 125.131 112.966 128.116 112.183C131.102 111.4 133.806 113.269 133.806 113.269C133.806 113.269 138.691 116.225 137.871 116.794C137.05 117.363 125.131 127.635 122.146 129.534C119.16 131.433 112.931 130.62 107.507 131.706C102.836 132.637 83.919 133.79 79.5813 134.145C76.3237 134.918 72.9046 134.633 69.8196 133.332" fill="white"/>
<mask id="mask0_11_364" style="mask-type:luminance" maskUnits="userSpaceOnUse" x="57" y="111" width="81" height="24">
<path d="M60.457 131.344C58.3066 127.199 57.405 124.228 57.405 123.541C57.405 122.181 60.3609 121.368 60.3609 121.368C64.972 118.93 86.6606 122.455 96.4223 124.08C101.887 125.033 107.415 125.576 112.96 125.706C112.96 125.706 114.313 124.627 115.916 123.267C117.52 121.908 125.131 112.966 128.116 112.183C131.102 111.4 133.806 113.269 133.806 113.269C133.806 113.269 138.691 116.225 137.871 116.794C137.05 117.363 125.131 127.635 122.146 129.534C119.16 131.433 112.931 130.62 107.507 131.706C102.836 132.637 83.919 133.79 79.5813 134.145C76.3237 134.918 72.9046 134.633 69.8196 133.332" fill="white"/>
</mask>
<g mask="url(#mask0_11_364)">
<path d="M133.858 113.24C133.858 113.24 131.146 111.341 128.168 112.153C125.19 112.966 117.594 121.915 115.968 123.238C114.342 124.561 113.012 125.677 113.012 125.677C107.467 125.547 101.939 125.003 96.474 124.051C86.7123 122.425 65.0238 118.878 60.4126 121.339C60.4126 121.339 57.4568 122.152 57.4568 123.511C57.5595 124.272 57.7555 125.016 58.0406 125.728L58.447 125.876C58.447 125.876 63.8636 125.307 75.554 125.588C87.2444 125.869 114.283 127.472 116.02 128.1C116.759 128.381 121.998 127.199 127.806 125.144C132.24 121.531 137.45 117.016 137.974 116.698C138.743 116.218 133.858 113.24 133.858 113.24Z" fill="#007AFF"/>
<path opacity="0.5" d="M133.858 113.24C133.858 113.24 131.146 111.341 128.168 112.153C125.19 112.966 117.594 121.915 115.968 123.238C114.342 124.561 113.012 125.677 113.012 125.677C107.467 125.547 101.939 125.003 96.474 124.051C86.7123 122.425 65.0238 118.878 60.4126 121.339C60.4126 121.339 57.4568 122.152 57.4568 123.511C57.5595 124.272 57.7555 125.016 58.0406 125.728L58.447 125.876C58.447 125.876 63.8636 125.307 75.554 125.588C87.2444 125.869 114.283 127.472 116.02 128.1C116.759 128.381 121.998 127.199 127.806 125.144C132.24 121.531 137.45 117.016 137.974 116.698C138.743 116.218 133.858 113.24 133.858 113.24Z" fill="white"/>
</g>
<path d="M60.457 131.344C58.3066 127.199 57.405 124.228 57.405 123.541C57.405 122.181 60.3609 121.368 60.3609 121.368C64.972 118.93 86.6606 122.455 96.4223 124.08C101.887 125.033 107.415 125.576 112.96 125.706C112.96 125.706 114.313 124.627 115.916 123.267C117.52 121.908 125.131 112.966 128.116 112.183C131.102 111.4 133.806 113.269 133.806 113.269C133.806 113.269 138.691 116.225 137.871 116.794C137.05 117.363 125.131 127.635 122.146 129.534C119.16 131.433 112.931 130.62 107.507 131.706C102.836 132.637 83.919 133.79 79.5813 134.145C76.3237 134.918 72.9046 134.633 69.8196 133.332" stroke="#263238" stroke-width="0.58" stroke-linecap="round" stroke-linejoin="round"/>
<path d="M167.54 155.449C168.031 154.518 168.766 153.738 169.667 153.195C170.569 152.652 171.601 152.366 172.654 152.367H221.943C221.943 152.367 225.504 152.367 224.44 159.136C223.376 165.905 208.759 207.235 205.227 219.731C201.695 232.227 200.949 258.564 200.949 258.564H141.832C141.832 258.564 146.517 195.582 167.54 155.449Z" fill="white"/>
<mask id="mask1_11_364" style="mask-type:luminance" maskUnits="userSpaceOnUse" x="141" y="152" width="84" height="107">
<path d="M167.54 155.449C168.031 154.518 168.766 153.738 169.667 153.195C170.569 152.652 171.601 152.366 172.654 152.367H221.943C221.943 152.367 225.504 152.367 224.44 159.136C223.376 165.905 208.759 207.235 205.227 219.731C201.695 232.227 200.949 258.564 200.949 258.564H141.832C141.832 258.564 146.517 195.582 167.54 155.449Z" fill="white"/>
</mask>
<g mask="url(#mask1_11_364)">
<path opacity="0.16" d="M189.739 152.367H172.654C171.602 152.366 170.569 152.652 169.668 153.195C168.766 153.738 168.031 154.518 167.54 155.449C146.517 195.582 141.78 258.541 141.78 258.541H168.294L174.834 233.705L202.102 239.328C202.294 237.245 202.515 235.124 202.774 233.032L202.175 226.382C202.175 226.382 196.589 220.507 194.83 219.036C193.071 217.566 194.239 214.913 193.943 203.452C193.648 191.99 183.362 183.751 179.534 176.694C175.706 169.637 181.595 165.225 186.886 158.168C188.771 155.619 189.539 153.742 189.739 152.367Z" fill="black"/>
</g>
<path d="M167.54 155.449C168.031 154.518 168.766 153.738 169.667 153.195C170.569 152.652 171.601 152.366 172.654 152.367H221.943C221.943 152.367 225.504 152.367 224.44 159.136C223.376 165.905 208.759 207.235 205.227 219.731C201.695 232.227 200.949 258.564 200.949 258.564H141.832C141.832 258.564 146.517 195.582 167.54 155.449Z" stroke="#263238" stroke-width="0.58" stroke-linecap="round" stroke-linejoin="round"/>
<path d="M213.393 164.125C208.412 175.749 197.875 221.764 196.16 258.542H200.919C200.919 258.542 201.658 232.176 205.198 219.71C208.737 207.243 223.369 165.906 224.411 159.115C225.453 152.324 221.913 152.346 221.913 152.346C221.913 152.346 217.391 154.806 213.393 164.125Z" fill="#263238" stroke="#263238" stroke-width="0.58" stroke-linecap="round" stroke-linejoin="round"/>
<path d="M126.808 140.891C126.808 140.891 118.946 136.28 115.968 128.152C112.99 120.023 139.282 107.003 150.699 106.19C162.116 105.377 165.338 108.355 172.129 120.016C178.92 131.677 183.516 147.668 179.992 155.53C176.467 163.393 170.503 165.292 174.819 171.787C179.134 178.283 191.357 196.727 190.544 205.403C189.731 214.078 181.329 221.66 169.114 222.488C156.899 223.315 140.642 215.977 127.089 204.014C113.537 192.05 117.054 174.455 121.916 168.765C126.779 163.075 134.117 160.903 134.656 155.213C135.196 149.523 126.808 140.891 126.808 140.891Z" fill="#263238" stroke="#263238" stroke-width="0.58" stroke-linecap="round" stroke-linejoin="round"/>
<path d="M160.32 128.026C164.495 135.8 169.72 146.212 171.353 152.501C174.205 163.511 159.53 170.443 163.601 175.741" stroke="white" stroke-width="0.58" stroke-linecap="round" stroke-linejoin="round"/>
<path d="M154.63 117.843C154.63 117.843 156.256 120.614 158.503 124.693" stroke="white" stroke-width="0.58" stroke-linecap="round" stroke-linejoin="round"/>
<path d="M176.533 137.403C177.015 138.86 177.327 140.368 177.464 141.896" stroke="white" stroke-width="0.58" stroke-linecap="round" stroke-linejoin="round"/>
<path d="M157.453 113.801C157.453 113.801 170.296 123.289 175.425 134.647" stroke="white" stroke-width="0.58" stroke-linecap="round" stroke-linejoin="round"/>
<path d="M139.629 120.917C130.459 123.489 117.268 127.664 118.34 130.073" stroke="white" stroke-width="0.58" stroke-linecap="round" stroke-linejoin="round"/>
<path d="M148.105 118.656C148.105 118.656 146.147 119.144 143.228 119.927" stroke="white" stroke-width="0.58" stroke-linecap="round" stroke-linejoin="round"/>
<path d="M136.762 113.868C142.015 112.212 147.517 111.487 153.019 111.725" stroke="white" stroke-width="0.58" stroke-linecap="round" stroke-linejoin="round"/>
<path d="M133.023 115.398C133.853 114.965 134.713 114.59 135.595 114.274" stroke="white" stroke-width="0.58" stroke-linecap="round" stroke-linejoin="round"/>
<path d="M60.4568 131.344C59.2122 129.065 58.221 126.657 57.5009 124.162C58.2175 126.658 59.2089 129.067 60.4568 131.344ZM57.4196 123.741C57.4196 123.785 57.4196 123.837 57.4196 123.903C57.4344 123.837 57.427 123.785 57.4196 123.741ZM60.4568 131.337C63.2205 136.572 66.6589 141.421 70.684 145.762C80.4457 156.336 108.645 183.996 111.327 185.895C114.009 187.794 113.226 193.21 111.327 198.634C109.428 204.058 102.378 211.936 102.652 220.596C102.925 229.257 105.607 242.558 105.364 245.27C105.12 247.982 98.336 257.205 98.336 257.205H168.286C168.286 257.205 159.567 246.12 159.567 242.329C159.567 238.538 171.538 189.966 172.077 186.442C172.617 182.917 170.451 180.478 166.114 180.205C161.776 179.931 145.238 176.406 144.425 173.694C143.612 170.982 148.763 160.681 148.763 160.681L132.506 161.494C132.506 161.494 131.693 168.544 130.607 169.904C129.52 171.263 127.895 168.544 124.096 166.652C120.298 164.76 113.012 163.127 110.27 160.955C107.529 158.782 81.532 134.352 81.532 134.352" fill="white"/>
<mask id="mask2_11_364" style="mask-type:luminance" maskUnits="userSpaceOnUse" x="57" y="123" width="116" height="135">
<path d="M60.4568 131.344C59.2122 129.065 58.221 126.657 57.5009 124.162C58.2175 126.658 59.2089 129.067 60.4568 131.344ZM57.4196 123.741C57.4196 123.785 57.4196 123.837 57.4196 123.903C57.4344 123.837 57.427 123.785 57.4196 123.741ZM60.4568 131.337C63.2205 136.572 66.6589 141.421 70.684 145.762C80.4457 156.336 108.645 183.996 111.327 185.895C114.009 187.794 113.226 193.21 111.327 198.634C109.428 204.058 102.378 211.936 102.652 220.596C102.925 229.257 105.607 242.558 105.364 245.27C105.12 247.982 98.336 257.205 98.336 257.205H168.286C168.286 257.205 159.567 246.12 159.567 242.329C159.567 238.538 171.538 189.966 172.077 186.442C172.617 182.917 170.451 180.478 166.114 180.205C161.776 179.931 145.238 176.406 144.425 173.694C143.612 170.982 148.763 160.681 148.763 160.681L132.506 161.494C132.506 161.494 131.693 168.544 130.607 169.904C129.52 171.263 127.895 168.544 124.096 166.652C120.298 164.76 113.012 163.127 110.27 160.955C107.529 158.782 81.532 134.352 81.532 134.352" fill="white"/>
</mask>
<g mask="url(#mask2_11_364)">
<path d="M114.423 163.046C115.776 165.411 117.128 167.546 117.128 167.546C117.128 167.546 121.687 170.11 122.825 170.11C123.963 170.11 130.806 173.805 130.806 173.805C130.806 173.805 136.511 172.379 134.501 167.531C133.867 166.29 133.066 165.142 132.122 164.117C131.782 166.268 131.235 169.083 130.592 169.889C129.506 171.241 127.88 168.529 124.082 166.637C121.621 165.411 117.638 164.287 114.423 163.046Z" fill="#007AFF"/>
<path d="M100.501 152.073C92.1288 144.321 81.532 134.382 81.532 134.382L75.3691 133.495L74.6301 133.909C74.6301 133.909 92.0253 149.302 95.7275 151.016C97.2253 151.704 98.8529 152.065 100.501 152.073Z" fill="#007AFF"/>
<path d="M109.273 160.098L108.608 159.507C108.948 160.068 109.14 160.423 109.14 160.423L109.273 160.098Z" fill="#007AFF"/>
<g opacity="0.5">
<path d="M114.423 163.046C115.776 165.411 117.128 167.546 117.128 167.546C117.128 167.546 121.687 170.11 122.825 170.11C123.963 170.11 130.806 173.805 130.806 173.805C130.806 173.805 136.511 172.379 134.501 167.531C133.867 166.29 133.066 165.142 132.122 164.117C131.782 166.268 131.235 169.083 130.592 169.889C129.506 171.241 127.88 168.529 124.082 166.637C121.621 165.411 117.638 164.287 114.423 163.046Z" fill="white"/>
<path d="M100.501 152.073C92.1288 144.321 81.532 134.382 81.532 134.382L75.3691 133.495L74.6301 133.909C74.6301 133.909 92.0253 149.302 95.7275 151.016C97.2253 151.704 98.8529 152.065 100.501 152.073Z" fill="white"/>
<path d="M109.273 160.098L108.608 159.507C108.948 160.068 109.14 160.423 109.14 160.423L109.273 160.098Z" fill="white"/>
</g>
</g>
<path d="M57.4049 123.541C57.4015 123.593 57.4015 123.645 57.4049 123.696M57.5009 124.162C58.221 126.657 59.2122 129.065 60.4568 131.344C59.2089 129.067 58.2175 126.658 57.5009 124.162ZM57.5009 124.162C57.4805 124.092 57.4657 124.02 57.4566 123.947M60.4568 131.337C63.2205 136.572 66.6589 141.421 70.684 145.762C80.4457 156.336 108.645 183.996 111.327 185.895C114.009 187.794 113.226 193.21 111.327 198.634C109.428 204.058 102.378 211.936 102.652 220.596C102.925 229.257 105.607 242.558 105.364 245.27C105.12 247.982 98.336 257.205 98.336 257.205H168.286C168.286 257.205 159.567 246.12 159.567 242.329C159.567 238.538 171.538 189.966 172.077 186.442C172.617 182.917 170.451 180.478 166.114 180.205C161.776 179.931 145.238 176.406 144.425 173.694C143.612 170.982 148.763 160.681 148.763 160.681L132.506 161.494C132.506 161.494 131.693 168.544 130.607 169.904C129.52 171.263 127.895 168.544 124.096 166.652C120.298 164.76 113.012 163.127 110.27 160.955C107.529 158.782 81.532 134.352 81.532 134.352M57.4196 123.741C57.4196 123.785 57.4196 123.837 57.4196 123.903C57.4344 123.837 57.427 123.785 57.4196 123.741Z" stroke="#263238" stroke-width="0.58" stroke-linecap="round" stroke-linejoin="round"/>
<path d="M81.532 134.381C81.532 134.381 72.8714 134.544 68.0386 130.561" stroke="#263238" stroke-width="0.58" stroke-linecap="round" stroke-linejoin="round"/>
<path d="M144.433 173.694C143.62 170.989 148.77 160.681 148.77 160.681L132.513 161.494C132.513 161.494 131.7 168.543 130.614 169.903C129.528 171.263 127.902 168.543 124.104 166.651C123.816 166.504 123.498 166.363 123.173 166.223L122.19 181.675C122.19 181.675 123.616 196.639 140.716 193.794C147.64 192.641 155.029 186.463 161.407 179.517C154.845 178.312 145.053 175.77 144.433 173.694Z" fill="white"/>
<mask id="mask3_11_364" style="mask-type:luminance" maskUnits="userSpaceOnUse" x="122" y="160" width="40" height="35">
<path d="M144.433 173.694C143.62 170.989 148.77 160.681 148.77 160.681L132.513 161.494C132.513 161.494 131.7 168.543 130.614 169.903C129.528 171.263 127.902 168.543 124.104 166.651C123.816 166.504 123.498 166.363 123.173 166.223L122.19 181.675C122.19 181.675 123.616 196.639 140.716 193.794C147.64 192.641 155.029 186.463 161.407 179.517C154.845 178.312 145.053 175.77 144.433 173.694Z" fill="white"/>
</mask>
<g mask="url(#mask3_11_364)">
<path d="M143.975 162.727C143.975 162.727 142.992 168.24 142.201 174.336C141.41 180.433 140.827 184.97 140.827 184.97L144.433 173.693L148.497 161.744C148.497 161.744 144.566 161.744 143.975 162.727Z" fill="#007AFF"/>
<path opacity="0.5" d="M143.975 162.727C143.975 162.727 142.992 168.24 142.201 174.336C141.41 180.433 140.827 184.97 140.827 184.97L144.433 173.693L148.497 161.744C148.497 161.744 144.566 161.744 143.975 162.727Z" fill="white"/>
</g>
<path d="M144.433 173.694C143.62 170.989 148.77 160.681 148.77 160.681L132.513 161.494C132.513 161.494 131.7 168.543 130.614 169.903C129.528 171.263 127.902 168.543 124.104 166.651C123.816 166.504 123.498 166.363 123.173 166.223L122.19 181.675C122.19 181.675 123.616 196.639 140.716 193.794C147.64 192.641 155.029 186.463 161.407 179.517C154.845 178.312 145.053 175.77 144.433 173.694Z" stroke="#263238" stroke-width="0.58" stroke-linecap="round" stroke-linejoin="round"/>
<path d="M130.607 169.904C129.52 171.256 127.895 168.544 124.096 166.652C121.702 165.448 117.889 164.354 114.734 163.172C113.84 161.051 112.657 158.287 111.896 156.617C110.544 153.661 108.371 155.531 108.371 155.531C107.238 154.242 106.322 152.776 105.659 151.193C104.307 148.237 102.134 148.481 99.1563 147.942C96.1783 147.402 89.9341 141.705 89.9341 141.705C89.9341 141.705 87.0152 139.488 85.8107 138.387C84.4066 141.15 81.0443 146.013 73.7729 149.05C85.3673 161.162 108.888 184.173 111.357 185.902C114.069 187.794 113.256 193.218 111.357 198.642C109.457 204.066 102.408 211.943 102.681 220.604C102.955 229.264 105.637 242.566 105.393 245.278C105.149 247.694 99.7401 255.269 98.5652 256.894L101.322 257.205H115.672C115.591 249.933 115.598 220.256 120.571 208.433C126.269 194.844 130.607 169.904 130.607 169.904Z" fill="#007AFF"/>
<mask id="mask4_11_364" style="mask-type:luminance" maskUnits="userSpaceOnUse" x="73" y="138" width="58" height="120">
<path d="M130.607 169.904C129.52 171.256 127.895 168.544 124.096 166.652C121.702 165.448 117.889 164.354 114.734 163.172C113.84 161.051 112.657 158.287 111.896 156.617C110.544 153.661 108.371 155.531 108.371 155.531C107.238 154.242 106.322 152.776 105.659 151.193C104.307 148.237 102.134 148.481 99.1563 147.942C96.1783 147.402 89.9341 141.705 89.9341 141.705C89.9341 141.705 87.0152 139.488 85.8107 138.387C84.4066 141.15 81.0443 146.013 73.7729 149.05C85.3673 161.162 108.888 184.173 111.357 185.902C114.069 187.794 113.256 193.218 111.357 198.642C109.457 204.066 102.408 211.943 102.681 220.604C102.955 229.264 105.637 242.566 105.393 245.278C105.149 247.694 99.7401 255.269 98.5652 256.894L101.322 257.205H115.672C115.591 249.933 115.598 220.256 120.571 208.433C126.269 194.844 130.607 169.904 130.607 169.904Z" fill="white"/>
</mask>
<g mask="url(#mask4_11_364)">
<path opacity="0.16" d="M124.096 166.652C121.702 165.448 117.889 164.354 114.734 163.172C113.84 161.051 112.657 158.287 111.896 156.617C110.544 153.661 108.371 155.531 108.371 155.531C107.238 154.242 106.322 152.776 105.659 151.193C104.307 148.237 102.134 148.481 99.1563 147.942C96.1783 147.402 89.9341 141.705 89.9341 141.705C89.9341 141.705 87.0152 139.488 85.8107 138.387C85.2096 139.56 84.4943 140.672 83.675 141.705C88.5226 145.806 93.8727 150.151 95.7423 151.016C99.4371 152.723 100.302 151.296 103.132 153.011C105.962 154.725 109.118 160.4 109.118 160.4C109.118 160.4 110.832 155.834 112.258 158.974C113.684 162.115 117.106 167.524 117.106 167.524C117.106 167.524 121.665 170.088 122.803 170.088C123.697 170.088 128.079 172.364 129.942 173.347C130.355 171.182 130.584 169.881 130.584 169.881C129.52 171.256 127.895 168.544 124.096 166.652Z" fill="black"/>
</g>
<path d="M130.607 169.904C129.52 171.256 127.895 168.544 124.096 166.652C121.702 165.448 117.889 164.354 114.734 163.172C113.84 161.051 112.657 158.287 111.896 156.617C110.544 153.661 108.371 155.531 108.371 155.531C107.238 154.242 106.322 152.776 105.659 151.193C104.307 148.237 102.134 148.481 99.1563 147.942C96.1783 147.402 89.9341 141.705 89.9341 141.705C89.9341 141.705 87.0152 139.488 85.8107 138.387C84.4066 141.15 81.0443 146.013 73.7729 149.05C85.3673 161.162 108.888 184.173 111.357 185.902C114.069 187.794 113.256 193.218 111.357 198.642C109.457 204.066 102.408 211.943 102.681 220.604C102.955 229.264 105.637 242.566 105.393 245.278C105.149 247.694 99.7401 255.269 98.5652 256.894L101.322 257.205H115.672C115.591 249.933 115.598 220.256 120.571 208.433C126.269 194.844 130.607 169.904 130.607 169.904Z" stroke="#263238" stroke-width="0.58" stroke-linecap="round" stroke-linejoin="round"/>
<path d="M130.799 168.957C130.799 168.957 127.429 167.923 125.353 169.741C123.276 171.558 120.18 180.884 118.355 191C117.23 196.89 118.006 202.984 120.572 208.403C120.572 208.403 124.835 197.223 126.129 191.776C127.422 186.33 130.799 168.957 130.799 168.957Z" fill="#007AFF"/>
<mask id="mask5_11_364" style="mask-type:luminance" maskUnits="userSpaceOnUse" x="117" y="168" width="14" height="41">
<path d="M130.799 168.957C130.799 168.957 127.429 167.923 125.353 169.741C123.276 171.558 120.18 180.884 118.355 191C117.23 196.89 118.006 202.984 120.572 208.403C120.572 208.403 124.835 197.223 126.129 191.776C127.422 186.33 130.799 168.957 130.799 168.957Z" fill="white"/>
</mask>
<g mask="url(#mask5_11_364)">
<path opacity="0.16" d="M124.333 170.606C124.333 170.606 126.772 170.014 127.777 170.354C128.623 170.717 129.414 171.197 130.126 171.78L130.799 168.958C129.79 168.442 128.646 168.254 127.525 168.418C125.848 168.758 124.333 170.606 124.333 170.606Z" fill="black"/>
</g>
<path d="M130.799 168.957C130.799 168.957 127.429 167.923 125.353 169.741C123.276 171.558 120.18 180.884 118.355 191C117.23 196.89 118.006 202.984 120.572 208.403C120.572 208.403 124.835 197.223 126.129 191.776C127.422 186.33 130.799 168.957 130.799 168.957Z" stroke="#263238" stroke-width="0.58" stroke-linecap="round" stroke-linejoin="round"/>
<path d="M108.105 169.844L112.443 187.468L102.681 165.232" stroke="#263238" stroke-width="0.58" stroke-linecap="round" stroke-linejoin="round"/>
<path d="M136.681 257.205H168.294C168.294 257.205 159.574 246.12 159.574 242.329C159.574 238.538 171.545 189.966 172.084 186.441C172.624 182.917 170.459 180.478 166.121 180.205C161.783 179.931 145.245 176.406 144.432 173.694C144.432 173.694 138.196 195.656 136.03 210.569C134.168 223.36 136.097 249.904 136.681 257.205Z" fill="#007AFF"/>
<mask id="mask6_11_364" style="mask-type:luminance" maskUnits="userSpaceOnUse" x="135" y="173" width="38" height="85">
<path d="M136.681 257.205H168.294C168.294 257.205 159.574 246.12 159.574 242.329C159.574 238.538 171.545 189.966 172.084 186.441C172.624 182.917 170.459 180.478 166.121 180.205C161.783 179.931 145.245 176.406 144.432 173.694C144.432 173.694 138.196 195.656 136.03 210.569C134.168 223.36 136.097 249.904 136.681 257.205Z" fill="white"/>
</mask>
<g mask="url(#mask6_11_364)">
<path opacity="0.16" d="M166.121 180.204C162.567 179.983 150.824 177.574 146.25 175.224L147.913 179.066C150.925 180.664 154.165 181.791 157.519 182.406C163.025 183.389 168.146 183.197 171.493 188.119L171.656 188.362C171.863 187.417 172.003 186.751 172.047 186.441C172.631 182.916 170.459 180.478 166.121 180.204Z" fill="black"/>
</g>
<path d="M136.681 257.205H168.294C168.294 257.205 159.574 246.12 159.574 242.329C159.574 238.538 171.545 189.966 172.084 186.441C172.624 182.917 170.459 180.478 166.121 180.205C161.783 179.931 145.245 176.406 144.432 173.694C144.432 173.694 138.196 195.656 136.03 210.569C134.168 223.36 136.097 249.904 136.681 257.205Z" stroke="#263238" stroke-width="0.58" stroke-linecap="round" stroke-linejoin="round"/>
<path d="M144.433 173.694C144.433 173.694 136.067 200.297 136.031 210.569C136.031 210.569 147.913 196.181 149.465 186.072C151.017 175.963 144.433 173.694 144.433 173.694Z" fill="#007AFF"/>
<mask id="mask7_11_364" style="mask-type:luminance" maskUnits="userSpaceOnUse" x="136" y="173" width="14" height="38">
<path d="M144.433 173.694C144.433 173.694 136.067 200.297 136.031 210.569C136.031 210.569 147.913 196.181 149.465 186.072C151.017 175.963 144.433 173.694 144.433 173.694Z" fill="white"/>
</mask>
<g mask="url(#mask7_11_364)">
<path opacity="0.16" d="M142.991 177.094C144.248 177.051 145.497 177.316 146.628 177.865C147.76 178.413 148.741 179.229 149.487 180.242C149.487 180.242 147.846 175.416 144.432 173.694L142.991 177.094Z" fill="black"/>
</g>
<path d="M144.433 173.694C144.433 173.694 136.067 200.297 136.031 210.569C136.031 210.569 147.913 196.181 149.465 186.072C151.017 175.963 144.433 173.694 144.433 173.694Z" stroke="#263238" stroke-width="0.58" stroke-linecap="round" stroke-linejoin="round"/>
<path d="M233.736 252.201C233.736 252.201 239.862 252.452 243.875 253.029C246.551 253.392 249.245 253.606 251.944 253.672C251.944 253.672 249.728 249.194 247.363 247.93C244.998 246.666 240.712 244.405 237.121 244.908C233.53 245.41 228.394 249.031 228.822 250.184C229.251 251.337 231.165 251.854 233.736 252.201Z" fill="white"/>
<mask id="mask8_11_364" style="mask-type:luminance" maskUnits="userSpaceOnUse" x="228" y="244" width="24" height="10">
<path d="M233.736 252.201C233.736 252.201 239.862 252.452 243.875 253.029C246.551 253.392 249.245 253.606 251.944 253.672C251.944 253.672 249.728 249.194 247.363 247.93C244.998 246.666 240.712 244.405 237.121 244.908C233.53 245.41 228.394 249.031 228.822 250.184C229.251 251.337 231.165 251.854 233.736 252.201Z" fill="white"/>
</mask>
<g mask="url(#mask8_11_364)">
<path d="M233.736 252.201C233.736 252.201 239.862 252.452 243.875 253.029C246.551 253.392 249.245 253.606 251.944 253.672C251.944 253.672 249.728 249.194 247.363 247.93C244.998 246.666 240.712 244.405 237.121 244.908C233.53 245.41 228.394 249.031 228.822 250.184C229.251 251.337 231.165 251.854 233.736 252.201Z" fill="#007AFF"/>
<path opacity="0.5" d="M233.736 252.201C233.736 252.201 239.862 252.452 243.875 253.029C246.551 253.392 249.245 253.606 251.944 253.672C251.944 253.672 249.728 249.194 247.363 247.93C244.998 246.666 240.712 244.405 237.121 244.908C233.53 245.41 228.394 249.031 228.822 250.184C229.251 251.337 231.165 251.854 233.736 252.201Z" fill="white"/>
</g>
<path d="M233.736 252.201C233.736 252.201 239.862 252.452 243.875 253.029C246.551 253.392 249.245 253.606 251.944 253.672C251.944 253.672 249.728 249.194 247.363 247.93C244.998 246.666 240.712 244.405 237.121 244.908C233.53 245.41 228.394 249.031 228.822 250.184C229.251 251.337 231.165 251.854 233.736 252.201Z" stroke="#263238" stroke-width="0.58" stroke-linecap="round" stroke-linejoin="round"/>
<path d="M243.912 250.369C243.912 250.369 248.767 247.849 249.979 247.886C251.191 247.923 259.245 253.369 258.846 254.241C258.575 254.646 258.184 254.955 257.728 255.124C257.272 255.294 256.774 255.316 256.304 255.187C255.41 254.766 249.986 252.46 249.986 252.46L246.439 253.295L243.912 250.369Z" fill="white"/>
<mask id="mask9_11_364" style="mask-type:luminance" maskUnits="userSpaceOnUse" x="243" y="247" width="16" height="9">
<path d="M243.912 250.369C243.912 250.369 248.767 247.849 249.979 247.886C251.191 247.923 259.245 253.369 258.846 254.241C258.575 254.646 258.184 254.955 257.728 255.124C257.272 255.294 256.774 255.316 256.304 255.187C255.41 254.766 249.986 252.46 249.986 252.46L246.439 253.295L243.912 250.369Z" fill="white"/>
</mask>
<g mask="url(#mask9_11_364)">
<path d="M243.912 250.369C243.912 250.369 248.767 247.849 249.979 247.886C251.191 247.923 259.245 253.369 258.846 254.241C258.447 255.113 256.541 255.823 256.304 255.187C256.068 254.552 249.986 252.46 249.986 252.46L246.439 253.295L243.912 250.369Z" fill="#007AFF"/>
<path opacity="0.5" d="M243.912 250.369C243.912 250.369 248.767 247.849 249.979 247.886C251.191 247.923 259.245 253.369 258.846 254.241C258.447 255.113 256.541 255.823 256.304 255.187C256.068 254.552 249.986 252.46 249.986 252.46L246.439 253.295L243.912 250.369Z" fill="white"/>
</g>
<path d="M243.912 250.369C243.912 250.369 248.767 247.849 249.979 247.886C251.191 247.923 259.245 253.369 258.846 254.241C258.575 254.646 258.184 254.955 257.728 255.124C257.272 255.294 256.774 255.316 256.304 255.187C255.41 254.766 249.986 252.46 249.986 252.46L246.439 253.295L243.912 250.369Z" stroke="#263238" stroke-width="0.58" stroke-linecap="round" stroke-linejoin="round"/>
<path d="M240.446 246.223C240.446 246.223 246.92 246.016 248.205 246.666C249.491 247.316 255.299 257.278 254.427 258.002C253.556 258.726 251.146 258.512 251.22 257.706C251.294 256.901 245.87 251.565 245.87 251.565L241.651 250.642L240.446 246.223Z" fill="white"/>
<mask id="mask10_11_364" style="mask-type:luminance" maskUnits="userSpaceOnUse" x="240" y="246" width="15" height="13">
<path d="M240.446 246.223C240.446 246.223 246.92 246.016 248.205 246.666C249.491 247.316 255.299 257.278 254.427 258.002C253.556 258.726 251.146 258.512 251.22 257.706C251.294 256.901 245.87 251.565 245.87 251.565L241.651 250.642L240.446 246.223Z" fill="white"/>
</mask>
<g mask="url(#mask10_11_364)">
<path d="M240.446 246.223C240.446 246.223 246.92 246.016 248.205 246.666C249.491 247.316 255.299 257.278 254.427 258.002C253.556 258.726 251.146 258.512 251.22 257.706C251.294 256.901 245.87 251.565 245.87 251.565L241.651 250.642L240.446 246.223Z" fill="#007AFF"/>
<path opacity="0.5" d="M240.446 246.223C240.446 246.223 246.92 246.016 248.205 246.666C249.491 247.316 255.299 257.278 254.427 258.002C253.556 258.726 251.146 258.512 251.22 257.706C251.294 256.901 245.87 251.565 245.87 251.565L241.651 250.642L240.446 246.223Z" fill="white"/>
</g>
<path d="M240.446 246.223C240.446 246.223 246.92 246.016 248.205 246.666C249.491 247.316 255.299 257.278 254.427 258.002C253.556 258.726 251.146 258.512 251.22 257.706C251.294 256.901 245.87 251.565 245.87 251.565L241.651 250.642L240.446 246.223Z" stroke="#263238" stroke-width="0.58" stroke-linecap="round" stroke-linejoin="round"/>
<path d="M236.611 244.885C236.611 244.885 243.165 244.671 244.466 245.336C245.767 246.001 251.649 256.073 250.762 256.812C249.875 257.551 247.451 257.322 247.525 256.509C247.599 255.696 242.109 250.295 242.109 250.295L237.838 249.356L236.611 244.885Z" fill="white"/>
<mask id="mask11_11_364" style="mask-type:luminance" maskUnits="userSpaceOnUse" x="236" y="244" width="15" height="14">
<path d="M236.611 244.885C236.611 244.885 243.165 244.671 244.466 245.336C245.767 246.001 251.649 256.073 250.762 256.812C249.875 257.551 247.451 257.322 247.525 256.509C247.599 255.696 242.109 250.295 242.109 250.295L237.838 249.356L236.611 244.885Z" fill="white"/>
</mask>
<g mask="url(#mask11_11_364)">
<path d="M236.611 244.885C236.611 244.885 243.165 244.671 244.466 245.336C245.767 246.001 251.649 256.073 250.762 256.812C249.875 257.551 247.451 257.322 247.525 256.509C247.599 255.696 242.109 250.295 242.109 250.295L237.838 249.356L236.611 244.885Z" fill="#007AFF"/>
<path opacity="0.5" d="M236.611 244.885C236.611 244.885 243.165 244.671 244.466 245.336C245.767 246.001 251.649 256.073 250.762 256.812C249.875 257.551 247.451 257.322 247.525 256.509C247.599 255.696 242.109 250.295 242.109 250.295L237.838 249.356L236.611 244.885Z" fill="white"/>
</g>
<path d="M236.611 244.885C236.611 244.885 243.165 244.671 244.466 245.336C245.767 246.001 251.649 256.073 250.762 256.812C249.875 257.551 247.451 257.322 247.525 256.509C247.599 255.696 242.109 250.295 242.109 250.295L237.838 249.356L236.611 244.885Z" stroke="#263238" stroke-width="0.58" stroke-linecap="round" stroke-linejoin="round"/>
<path d="M162.086 207.331C166.831 214.64 176.356 233.158 179.134 235.242C183.472 238.493 212.469 246.385 215.262 248.543C218.056 250.701 217.863 252.866 220.509 253.657C223.154 254.448 233.071 256.716 236.855 257.071C240.638 257.426 238.946 255.083 238.946 255.083L232.495 250.649L238.118 249.26C238.118 249.26 243.757 256.044 244.813 256.413C245.87 256.783 247.732 256.413 247.614 255.578C247.407 254.241 241.392 243.297 239.256 242.831C237.121 242.365 224.159 244.161 224.159 244.161C224.159 244.161 196.973 225.827 196.485 225.177C196.485 225.177 194.859 220.566 193.529 218.667C192.199 216.768 191.357 217.315 191.357 217.315C191.357 217.315 191.904 214.869 191.091 214.056L186.753 209.718L186.598 209.925C185.859 208.447 185.12 206.762 184.307 204.841C182.038 199.498 174.006 184.505 172.654 182.339C171.641 180.721 163.158 179.561 158.857 179.073" fill="#007AFF"/>
<mask id="mask12_11_364" style="mask-type:luminance" maskUnits="userSpaceOnUse" x="158" y="179" width="90" height="79">
<path d="M162.086 207.331C166.831 214.64 176.356 233.158 179.134 235.242C183.472 238.493 212.469 246.385 215.262 248.543C218.056 250.701 217.863 252.866 220.509 253.657C223.154 254.448 233.071 256.716 236.855 257.071C240.638 257.426 238.946 255.083 238.946 255.083L232.495 250.649L238.118 249.26C238.118 249.26 243.757 256.044 244.813 256.413C245.87 256.783 247.732 256.413 247.614 255.578C247.407 254.241 241.392 243.297 239.256 242.831C237.121 242.365 224.159 244.161 224.159 244.161C224.159 244.161 196.973 225.827 196.485 225.177C196.485 225.177 194.859 220.566 193.529 218.667C192.199 216.768 191.357 217.315 191.357 217.315C191.357 217.315 191.904 214.869 191.091 214.056L186.753 209.718L186.598 209.925C185.859 208.447 185.12 206.762 184.307 204.841C182.038 199.498 174.006 184.505 172.654 182.339C171.641 180.721 163.158 179.561 158.857 179.073" fill="white"/>
</mask>
<g mask="url(#mask12_11_364)">
<path opacity="0.16" d="M180.974 207.796C184.521 210.944 183.339 210.944 182.548 213.708C181.758 216.472 183.139 212.725 186.487 212.925C189.834 213.124 188.852 217.447 188.453 218.238C188.054 219.029 192.591 220.011 191.8 221.778C191.009 223.544 186.487 226.108 183.93 228.672C181.373 231.236 190.618 224.534 193.766 224.342C194.726 224.275 195.517 224.401 196.182 224.386C195.484 222.409 194.588 220.507 193.507 218.711C192.147 216.812 191.335 217.359 191.335 217.359C191.335 217.359 191.881 214.913 191.069 214.1L186.731 209.762L186.576 209.969C185.837 208.491 185.098 206.806 184.285 204.885C182.016 199.542 173.984 184.549 172.631 182.383C171.619 180.765 163.136 179.605 158.835 179.117L159.227 182.539L159.323 182.612C159.323 182.612 164.636 183.595 166.409 183.795C168.183 183.994 170.348 185.561 170.148 186.751C169.949 187.94 164.835 193.246 166.409 193.645C167.983 194.044 169.757 189.707 171.53 190.298C173.304 190.889 177.405 204.648 180.974 207.796Z" fill="black"/>
</g>
<path d="M162.086 207.331C166.831 214.64 176.356 233.158 179.134 235.242C183.472 238.493 212.469 246.385 215.262 248.543C218.056 250.701 217.863 252.866 220.509 253.657C223.154 254.448 233.071 256.716 236.855 257.071C240.638 257.426 238.946 255.083 238.946 255.083L232.495 250.649L238.118 249.26C238.118 249.26 243.757 256.044 244.813 256.413C245.87 256.783 247.732 256.413 247.614 255.578C247.407 254.241 241.392 243.297 239.256 242.831C237.121 242.365 224.159 244.161 224.159 244.161C224.159 244.161 196.973 225.827 196.485 225.177C196.485 225.177 194.859 220.566 193.529 218.667C192.199 216.768 191.357 217.315 191.357 217.315C191.357 217.315 191.904 214.869 191.091 214.056L186.753 209.718L186.598 209.925C185.859 208.447 185.12 206.762 184.307 204.841C182.038 199.498 174.006 184.505 172.654 182.339C171.641 180.721 163.158 179.561 158.857 179.073" stroke="#263238" stroke-width="0.58" stroke-linecap="round" stroke-linejoin="round"/>
<path d="M162.16 197.304C161.961 197.969 161.791 198.634 161.658 199.314" stroke="#263238" stroke-width="0.58" stroke-linecap="round" stroke-linejoin="round"/>
<path d="M169.343 185.074C167.021 187.721 165.063 190.666 163.52 193.831" stroke="#263238" stroke-width="0.58" stroke-linecap="round" stroke-linejoin="round"/>
<path d="M180.198 227.033C182.194 224.077 185.371 220.33 188.874 219.259" stroke="#263238" stroke-width="0.58" stroke-linecap="round" stroke-linejoin="round"/>
<path d="M177.989 230.668C177.989 230.668 178.344 229.973 178.979 228.924" stroke="#263238" stroke-width="0.58" stroke-linecap="round" stroke-linejoin="round"/>
<path d="M177.989 225.998C177.989 225.998 181.617 216.924 185.246 214.588C188.874 212.253 186.797 216.924 186.797 216.924" stroke="#263238" stroke-width="0.58" stroke-linecap="round" stroke-linejoin="round"/>
<path d="M215.262 248.551C218.063 250.716 217.864 252.874 220.509 253.665C223.154 254.456 233.071 256.724 236.855 257.079C240.638 257.434 238.946 255.091 238.946 255.091L232.495 250.657L238.119 249.268C238.119 249.268 243.757 256.052 244.814 256.421C245.87 256.791 247.88 256.924 247.614 255.586C247.097 253 241.392 243.305 239.257 242.839C237.121 242.374 224.159 244.169 224.159 244.169C224.159 244.169 199.397 227.173 196.685 225.333C186.169 226.345 181.167 231.851 179.061 235.154L179.134 235.213C183.472 238.494 212.469 246.386 215.262 248.551Z" fill="white"/>
<mask id="mask13_11_364" style="mask-type:luminance" maskUnits="userSpaceOnUse" x="179" y="225" width="69" height="33">
<path d="M215.262 248.551C218.063 250.716 217.864 252.874 220.509 253.665C223.154 254.456 233.071 256.724 236.855 257.079C240.638 257.434 238.946 255.091 238.946 255.091L232.495 250.657L238.119 249.268C238.119 249.268 243.757 256.052 244.814 256.421C245.87 256.791 247.88 256.924 247.614 255.586C247.097 253 241.392 243.305 239.257 242.839C237.121 242.374 224.159 244.169 224.159 244.169C224.159 244.169 199.397 227.173 196.685 225.333C186.169 226.345 181.167 231.851 179.061 235.154L179.134 235.213C183.472 238.494 212.469 246.386 215.262 248.551Z" fill="white"/>
</mask>
<g mask="url(#mask13_11_364)">
<path d="M247.607 255.615C246.262 252.327 241.385 243.334 239.249 242.868C237.114 242.403 224.152 244.198 224.152 244.198C224.152 244.198 199.39 227.202 196.678 225.362C193.918 225.602 191.21 226.258 188.645 227.306C192.554 229.523 218.61 244.302 221.898 244.96C225.386 245.699 237.025 243.785 239.072 245.159C240.372 246.031 244.245 252.172 246.861 256.532C247.607 256.421 247.88 256.281 247.607 255.615Z" fill="#007AFF"/>
<path opacity="0.5" d="M247.607 255.615C245.508 250.908 241.385 243.334 239.249 242.868C237.114 242.403 224.152 244.198 224.152 244.198C224.152 244.198 199.39 227.202 196.678 225.362C193.918 225.602 191.21 226.258 188.645 227.306C192.554 229.523 218.61 244.302 221.898 244.96C225.386 245.699 237.025 243.785 239.072 245.159C240.372 246.031 244.245 252.172 246.861 256.532C247.607 256.421 247.902 256.273 247.607 255.615Z" fill="white"/>
</g>
<path d="M215.262 248.551C218.063 250.716 217.864 252.874 220.509 253.665C223.154 254.456 233.071 256.724 236.855 257.079C240.638 257.434 238.946 255.091 238.946 255.091L232.495 250.657L238.119 249.268C238.119 249.268 243.757 256.052 244.814 256.421C245.87 256.791 247.88 256.924 247.614 255.586C247.097 253 241.392 243.305 239.257 242.839C237.121 242.374 224.159 244.169 224.159 244.169C224.159 244.169 199.397 227.173 196.685 225.333C186.169 226.345 181.167 231.851 179.061 235.154L179.134 235.213C183.472 238.494 212.469 246.386 215.262 248.551Z" stroke="#263238" stroke-width="0.58" stroke-linecap="round" stroke-linejoin="round"/>
<path d="M149.953 119.514L127.695 128.802C127.425 132.714 126.457 136.546 124.835 140.116C122.205 145.68 123.742 156.211 126.269 161.893C128.796 167.576 139.932 165.352 144.004 164.642C146.766 164.117 149.47 163.327 152.081 162.285C153.27 162.743 154.555 162.891 155.817 162.715C157.079 162.539 158.275 162.046 159.293 161.28C159.293 161.28 147.381 127.842 149.953 119.514Z" fill="white"/>
<mask id="mask14_11_364" style="mask-type:luminance" maskUnits="userSpaceOnUse" x="123" y="119" width="37" height="47">
<path d="M149.953 119.514L127.695 128.802C127.425 132.714 126.457 136.546 124.835 140.116C122.205 145.68 123.742 156.211 126.269 161.893C128.796 167.576 139.932 165.352 144.004 164.642C146.766 164.117 149.47 163.327 152.081 162.285C153.27 162.743 154.555 162.891 155.817 162.715C157.079 162.539 158.275 162.046 159.293 161.28C159.293 161.28 147.381 127.842 149.953 119.514Z" fill="white"/>
</mask>
<g mask="url(#mask14_11_364)">
<path d="M149.953 119.514L127.695 128.802C127.425 132.714 126.457 136.546 124.835 140.116C122.205 145.68 123.742 156.211 126.269 161.893C126.692 162.807 127.372 163.578 128.227 164.11V163.682C128.227 163.682 124.096 153.447 124.88 147.543C125.663 141.638 129.018 138.675 129.409 134.943C129.801 131.211 129.602 129.438 137.087 126.682C144.573 123.925 147.714 121.368 148.497 124.117C149.28 126.866 152.436 144.986 154.601 149.316C156.766 153.646 156.566 158.184 153.226 160.142C149.85 162.168 146.233 163.762 142.46 164.886L144.034 164.613C146.795 164.087 149.5 163.298 152.11 162.255C153.299 162.713 154.585 162.862 155.847 162.686C157.108 162.51 158.304 162.016 159.323 161.25C159.323 161.25 147.381 127.842 149.953 119.514Z" fill="#007AFF"/>
<path opacity="0.5" d="M149.953 119.514L127.695 128.802C127.425 132.714 126.457 136.546 124.835 140.116C122.205 145.68 123.742 156.211 126.269 161.893C126.692 162.807 127.372 163.578 128.227 164.11V163.682C128.227 163.682 124.096 153.447 124.88 147.543C125.663 141.638 129.018 138.675 129.409 134.943C129.801 131.211 129.602 129.438 137.087 126.682C144.573 123.925 147.714 121.368 148.497 124.117C149.28 126.866 152.436 144.986 154.601 149.316C156.766 153.646 156.566 158.184 153.226 160.142C149.85 162.168 146.233 163.762 142.46 164.886L144.034 164.613C146.795 164.087 149.5 163.298 152.11 162.255C153.299 162.713 154.585 162.862 155.847 162.686C157.108 162.51 158.304 162.016 159.323 161.25C159.323 161.25 147.381 127.842 149.953 119.514Z" fill="white"/>
</g>
<path d="M149.953 119.514L127.695 128.802C127.425 132.714 126.457 136.546 124.835 140.116C122.205 145.68 123.742 156.211 126.269 161.893C128.796 167.576 139.932 165.352 144.004 164.642C146.766 164.117 149.47 163.327 152.081 162.285C153.27 162.743 154.555 162.891 155.817 162.715C157.079 162.539 158.275 162.046 159.293 161.28C159.293 161.28 147.381 127.842 149.953 119.514Z" stroke="#263238" stroke-width="0.58" stroke-linecap="round" stroke-linejoin="round"/>
<path d="M138.706 134.078C138.766 135.387 138.604 136.696 138.225 137.95C137.634 139.428 132.055 145.236 132.225 145.865C132.395 146.493 132.897 148.51 133.888 148.702" stroke="#263238" stroke-width="0.58" stroke-linecap="round" stroke-linejoin="round"/>
<path d="M144.891 139.273C145.667 137.721 148.216 139.236 148.179 142.731" stroke="#263238" stroke-width="0.58" stroke-linecap="round" stroke-linejoin="round"/>
<path d="M132.255 134.707C132.255 134.707 134.427 133.753 136.371 137.271" stroke="#263238" stroke-width="0.58" stroke-linecap="round" stroke-linejoin="round"/>
<path d="M141.802 144.394C144.312 144.52 146.699 145.521 148.549 147.224" stroke="#263238" stroke-width="0.58" stroke-linecap="round" stroke-linejoin="round"/>
<path d="M129.631 139.775C130.929 139.949 132.197 140.299 133.4 140.817" stroke="#263238" stroke-width="0.58" stroke-linecap="round" stroke-linejoin="round"/>
<path d="M138.462 130.797C137.888 130.494 137.252 130.328 136.603 130.313C135.954 130.297 135.31 130.433 134.723 130.709C132.735 131.662 131.516 132.711 131.649 131.492C131.782 130.273 134.117 128.928 134.819 128.75C135.521 128.573 138.661 128.085 138.462 130.797Z" fill="#263238"/>
<path d="M144.033 128.041C146.105 129.717 147.751 131.859 148.837 134.292C150.315 137.987 151.482 133.952 150.315 131.536C149.147 129.119 145.77 126.548 144.033 128.041Z" fill="#263238"/>
<path d="M159.618 167.597C159.618 169.319 158.643 170.715 157.446 170.715C156.249 170.715 155.281 169.319 155.281 167.597C155.281 165.875 156.249 161.493 157.446 161.493C158.643 161.493 159.618 165.875 159.618 167.597Z" fill="#007AFF" stroke="#263238" stroke-width="0.58" stroke-linecap="round" stroke-linejoin="round"/>
<path d="M145.083 138.601C144.998 138.826 144.931 139.059 144.883 139.295C144.669 140.389 144.455 142.672 144.883 142.768C145.312 142.864 146.361 140.729 146.546 139.635C146.588 139.421 146.612 139.203 146.62 138.985C146.116 138.827 145.602 138.698 145.083 138.601Z" fill="#263238"/>
<path d="M132.476 134.492C132.411 134.685 132.359 134.882 132.321 135.083C132.099 136.177 132.107 138.578 132.572 138.667C133.038 138.756 133.799 136.509 134.013 135.415C134.067 135.15 134.096 134.881 134.102 134.61C133.573 134.464 133.021 134.424 132.476 134.492Z" fill="#263238"/>
<path d="M144.891 139.31L145.63 137.936C146.801 138.164 147.863 138.778 148.645 139.679" stroke="#263238" stroke-width="0.58" stroke-linecap="round" stroke-linejoin="round"/>
<path d="M132.476 134.492L133.215 133.628C133.215 133.628 133.533 133.472 135.277 134.263" stroke="#263238" stroke-width="0.58" stroke-linecap="round" stroke-linejoin="round"/>
<path d="M129.676 154.532C129.676 154.532 130.917 152.249 132.58 152.249C134.242 152.249 135.484 155.981 135.484 155.981" stroke="#263238" stroke-width="0.58" stroke-linecap="round" stroke-linejoin="round"/>
<path d="M76.167 253.007C74.5602 252.927 72.9819 252.551 71.5115 251.899C71.3065 251.823 71.119 251.706 70.9606 251.555C70.8021 251.405 70.676 251.224 70.5898 251.023C70.5036 250.822 70.4592 250.605 70.4593 250.387C70.4594 250.168 70.504 249.952 70.5903 249.751C70.6767 249.55 70.803 249.369 70.9616 249.219C71.1201 249.068 71.3077 248.952 71.5128 248.876C71.7179 248.801 71.9362 248.767 72.1545 248.779C72.3728 248.79 72.5865 248.846 72.7825 248.943C74.2605 249.571 76.1744 249.962 76.6843 249.741C77.6227 248.691 79.0637 242.351 77.2015 239.292C76.7803 238.612 76.3887 238.486 76.13 238.457C75.0733 238.309 73.5067 239.395 72.9525 239.935C72.7982 240.08 72.6167 240.194 72.4185 240.269C72.2202 240.345 72.0091 240.381 71.797 240.374C71.585 240.368 71.3762 240.32 71.1827 240.233C70.9892 240.147 70.8147 240.023 70.6691 239.868C70.5235 239.714 70.4098 239.532 70.3344 239.334C70.2589 239.136 70.2233 238.925 70.2294 238.713C70.2356 238.501 70.2835 238.292 70.3703 238.098C70.4572 237.905 70.5813 237.73 70.7356 237.585C71.0238 237.304 73.6915 234.902 76.5365 235.287C77.2421 235.39 77.9145 235.654 78.5014 236.059C79.0884 236.464 79.5741 236.999 79.9209 237.622C82.6625 242.092 80.7855 250.598 78.6795 252.283C77.9476 252.801 77.0622 253.056 76.167 253.007Z" fill="white"/>
<mask id="mask15_11_364" style="mask-type:luminance" maskUnits="userSpaceOnUse" x="70" y="235" width="12" height="19">
<path d="M76.167 253.007C74.5602 252.927 72.9819 252.551 71.5115 251.899C71.3065 251.823 71.119 251.706 70.9606 251.555C70.8021 251.405 70.676 251.224 70.5898 251.023C70.5036 250.822 70.4592 250.605 70.4593 250.387C70.4594 250.168 70.504 249.952 70.5903 249.751C70.6767 249.55 70.803 249.369 70.9616 249.219C71.1201 249.068 71.3077 248.952 71.5128 248.876C71.7179 248.801 71.9362 248.767 72.1545 248.779C72.3728 248.79 72.5865 248.846 72.7825 248.943C74.2605 249.571 76.1744 249.962 76.6843 249.741C77.6227 248.691 79.0637 242.351 77.2015 239.292C76.7803 238.612 76.3887 238.486 76.13 238.457C75.0733 238.309 73.5067 239.395 72.9525 239.935C72.7982 240.08 72.6167 240.194 72.4185 240.269C72.2202 240.345 72.0091 240.381 71.797 240.374C71.585 240.368 71.3762 240.32 71.1827 240.233C70.9892 240.147 70.8147 240.023 70.6691 239.868C70.5235 239.714 70.4098 239.532 70.3344 239.334C70.2589 239.136 70.2233 238.925 70.2294 238.713C70.2356 238.501 70.2835 238.292 70.3703 238.098C70.4572 237.905 70.5813 237.73 70.7356 237.585C71.0238 237.304 73.6915 234.902 76.5365 235.287C77.2421 235.39 77.9145 235.654 78.5014 236.059C79.0884 236.464 79.5741 236.999 79.9209 237.622C82.6625 242.092 80.7855 250.598 78.6795 252.283C77.9476 252.801 77.0622 253.056 76.167 253.007Z" fill="white"/>
</mask>
<g mask="url(#mask15_11_364)">
<path d="M78.3321 238.804C78.1384 238.345 77.8349 237.94 77.4484 237.626C77.0619 237.311 76.6041 237.097 76.1153 237.001C74.2679 236.705 72.5313 238.56 72.3392 238.767C72.1625 238.979 72.0534 239.24 72.0258 239.515C71.9981 239.79 72.0532 240.068 72.184 240.311C72.4747 240.253 72.7433 240.115 72.9599 239.912C73.5141 239.395 75.0807 238.309 76.1374 238.434C76.3961 238.434 76.7877 238.589 77.2089 239.269C79.0711 242.299 77.6301 248.669 76.6917 249.718C76.1818 249.94 74.2752 249.548 72.7899 248.92C72.6071 248.843 72.4117 248.801 72.2135 248.794C72.227 248.997 72.2908 249.193 72.3992 249.365C72.5076 249.536 72.6572 249.678 72.8343 249.777C73.7686 250.276 74.7994 250.569 75.8566 250.634C76.4599 250.663 77.0508 250.457 77.5045 250.058C78.8938 248.78 80.1204 242.24 78.3321 238.804Z" fill="#007AFF"/>
<path opacity="0.5" d="M78.3321 238.804C78.1384 238.345 77.8349 237.94 77.4484 237.626C77.0619 237.311 76.6041 237.097 76.1153 237.001C74.2679 236.705 72.5313 238.56 72.3392 238.767C72.1625 238.979 72.0534 239.24 72.0258 239.515C71.9981 239.79 72.0532 240.068 72.184 240.311C72.4747 240.253 72.7433 240.115 72.9599 239.912C73.5141 239.395 75.0807 238.309 76.1374 238.434C76.3961 238.434 76.7877 238.589 77.2089 239.269C79.0711 242.299 77.6301 248.669 76.6917 249.718C76.1818 249.94 74.2752 249.548 72.7899 248.92C72.6071 248.843 72.4117 248.801 72.2135 248.794C72.227 248.997 72.2908 249.193 72.3992 249.365C72.5076 249.536 72.6572 249.678 72.8343 249.777C73.7686 250.276 74.7994 250.569 75.8566 250.634C76.4599 250.663 77.0508 250.457 77.5045 250.058C78.8938 248.78 80.1204 242.24 78.3321 238.804Z" fill="white"/>
</g>
<path d="M76.167 253.007C74.5602 252.927 72.9819 252.551 71.5115 251.899C71.3065 251.823 71.119 251.706 70.9606 251.555C70.8021 251.405 70.676 251.224 70.5898 251.023C70.5036 250.822 70.4592 250.605 70.4593 250.387C70.4594 250.168 70.504 249.952 70.5903 249.751C70.6767 249.55 70.803 249.369 70.9616 249.219C71.1201 249.068 71.3077 248.952 71.5128 248.876C71.7179 248.801 71.9362 248.767 72.1545 248.779C72.3728 248.79 72.5865 248.846 72.7825 248.943C74.2605 249.571 76.1744 249.962 76.6843 249.741C77.6227 248.691 79.0637 242.351 77.2015 239.292C76.7803 238.612 76.3887 238.486 76.13 238.457C75.0733 238.309 73.5067 239.395 72.9525 239.935C72.7982 240.08 72.6167 240.194 72.4185 240.269C72.2202 240.345 72.0091 240.381 71.797 240.374C71.585 240.368 71.3762 240.32 71.1827 240.233C70.9892 240.147 70.8147 240.023 70.6691 239.868C70.5235 239.714 70.4098 239.532 70.3344 239.334C70.2589 239.136 70.2233 238.925 70.2294 238.713C70.2356 238.501 70.2835 238.292 70.3703 238.098C70.4572 237.905 70.5813 237.73 70.7356 237.585C71.0238 237.304 73.6915 234.902 76.5365 235.287C77.2421 235.39 77.9145 235.654 78.5014 236.059C79.0884 236.464 79.5741 236.999 79.9209 237.622C82.6625 242.092 80.7855 250.598 78.6795 252.283C77.9476 252.801 77.0622 253.056 76.167 253.007Z" stroke="#263238" stroke-width="0.58" stroke-linecap="round" stroke-linejoin="round"/>
<path d="M73.3441 233.941H55.572V257.529H73.3441V233.941Z" fill="white"/>
<mask id="mask16_11_364" style="mask-type:luminance" maskUnits="userSpaceOnUse" x="55" y="233" width="19" height="25">
<path d="M73.3441 233.941H55.572V257.529H73.3441V233.941Z" fill="white"/>
</mask>
<g mask="url(#mask16_11_364)">
<path d="M62.8508 233.941H55.572V257.529H62.8508V233.941Z" fill="#007AFF"/>
<path opacity="0.5" d="M62.8508 233.941H55.572V257.529H62.8508V233.941Z" fill="white"/>
</g>
<path d="M73.3441 233.941H55.572V257.529H73.3441V233.941Z" stroke="#263238" stroke-width="0.58" stroke-linecap="round" stroke-linejoin="round"/>
<path d="M171.006 257.203H95.0846L92.609 215.467C92.5406 215.062 92.5608 214.647 92.6682 214.251C92.7756 213.855 92.9676 213.487 93.231 213.172C93.4945 212.858 93.823 212.604 94.1941 212.428C94.5651 212.253 94.9698 212.16 95.3802 212.156H170.681C171.093 212.156 171.501 212.246 171.876 212.419C172.251 212.593 172.583 212.846 172.85 213.161C173.116 213.476 173.311 213.846 173.42 214.244C173.529 214.642 173.55 215.06 173.481 215.467L171.006 257.203Z" fill="#263238" stroke="#263238" stroke-width="0.58" stroke-linecap="round" stroke-linejoin="round"/>
<path d="M98.8237 213.154H170.134C170.537 213.15 170.935 213.234 171.302 213.4C171.669 213.567 171.996 213.811 172.258 214.117C172.521 214.422 172.713 214.781 172.822 215.169C172.932 215.557 172.955 215.964 172.89 216.362" stroke="white" stroke-width="0.58" stroke-linecap="round" stroke-linejoin="round"/>
<path d="M93.1633 215.704C93.2228 215.005 93.5434 214.355 94.0611 213.882C94.5789 213.41 95.2557 213.15 95.9566 213.154" stroke="white" stroke-width="0.58" stroke-linecap="round" stroke-linejoin="round"/>
<path d="M171.323 253.14H94.7668V257.204H171.323V253.14Z" fill="white" stroke="#263238" stroke-width="0.58" stroke-linecap="round" stroke-linejoin="round"/>
<path d="M132.772 238.094C135.767 238.094 138.196 236.638 138.196 234.842C138.196 233.047 135.767 231.591 132.772 231.591C129.776 231.591 127.348 233.047 127.348 234.842C127.348 236.638 129.776 238.094 132.772 238.094Z" fill="white" stroke="#263238" stroke-width="0.58" stroke-linecap="round" stroke-linejoin="round"/>
<path d="M286.794 256.723H1.65723V263.259H286.794V256.723Z" fill="#263238"/>
<path d="M212.86 0H75.6867C71.0627 0 67.3142 3.74848 67.3142 8.37246V87.0794C67.3142 91.7034 71.0627 95.4519 75.6867 95.4519H212.86C217.484 95.4519 221.233 91.7034 221.233 87.0794V8.37246C221.233 3.74848 217.484 0 212.86 0Z" fill="#007AFF"/>
<path d="M147.893 54.8534C160.336 52.8537 168.802 41.1455 166.802 28.7025C164.803 16.2595 153.094 7.79349 140.651 9.79323C128.208 11.793 119.742 23.5011 121.742 35.9441C123.742 48.3872 135.45 56.8531 147.893 54.8534Z" fill="#263238"/>
<path d="M144.1 36.5422L136.496 46.3039C136.237 46.7102 135.882 47.0459 135.461 47.2807C135.041 47.5154 134.569 47.6419 134.087 47.6488C133.426 47.6578 132.789 47.4055 132.313 46.9468C132.072 46.7251 131.881 46.4539 131.753 46.1517C131.626 45.8494 131.565 45.5233 131.575 45.1954C131.598 44.4612 131.857 43.754 132.313 43.1781L140.982 32.4557L132.853 21.7259C132.475 21.2224 132.268 20.6114 132.262 19.982C132.26 19.6066 132.336 19.2349 132.484 18.8902C132.633 18.5456 132.852 18.2355 133.126 17.9794C133.384 17.7102 133.694 17.4961 134.037 17.35C134.38 17.204 134.749 17.129 135.122 17.1296C135.599 17.1373 136.067 17.2645 136.482 17.4994C136.898 17.7343 137.248 18.0695 137.501 18.4745L144.846 28.1475L152.236 18.6371C152.5 18.1934 152.87 17.8217 153.312 17.5549C153.754 17.2881 154.255 17.1344 154.771 17.1074C155.091 17.1066 155.407 17.1718 155.701 17.299C155.995 17.4261 156.259 17.6125 156.478 17.8464C156.71 18.0657 156.896 18.3301 157.023 18.6237C157.15 18.9172 157.216 19.2336 157.217 19.5534C157.209 20.1258 157.011 20.6793 156.655 21.1274L147.957 32.2562L156.359 43.3406C156.757 43.8361 156.978 44.4496 156.987 45.0846C156.99 45.4517 156.912 45.815 156.761 46.1493C156.609 46.4836 156.386 46.7809 156.108 47.0207C155.566 47.5421 154.843 47.8333 154.091 47.8335C153.611 47.8276 153.14 47.7013 152.722 47.4664C152.304 47.2314 151.951 46.8952 151.696 46.4886L144.1 36.5422Z" fill="white"/>
<path d="M187.751 78.9215H100.767C99.0033 78.9215 97.3116 78.2208 96.0644 76.9735C94.8172 75.7263 94.1165 74.0347 94.1165 72.2708C94.1165 70.5069 94.8172 68.8153 96.0644 67.568C97.3116 66.3208 99.0033 65.6201 100.767 65.6201H187.751C189.514 65.6201 191.206 66.3208 192.453 67.568C193.7 68.8153 194.401 70.5069 194.401 72.2708C194.401 74.0347 193.7 75.7263 192.453 76.9735C191.206 78.2208 189.514 78.9215 187.751 78.9215Z" fill="white"/>
<path d="M112.686 74.4136C112.628 74.4136 112.571 74.4018 112.518 74.379C112.464 74.3561 112.416 74.3226 112.376 74.2806C112.332 74.2372 112.298 74.1853 112.275 74.1281C112.252 74.0709 112.241 74.0096 112.243 73.9481C112.243 73.844 112.271 73.7419 112.324 73.6525L112.989 72.6179H111.63C111.567 72.6212 111.504 72.611 111.445 72.588C111.387 72.5651 111.334 72.5299 111.29 72.4849C111.214 72.3965 111.172 72.2838 111.172 72.1672C111.172 72.0506 111.214 71.9379 111.29 71.8494C111.334 71.8044 111.387 71.7692 111.445 71.7463C111.504 71.7234 111.567 71.7132 111.63 71.7164L112.967 71.7534L112.376 70.7927C112.317 70.6943 112.284 70.5824 112.28 70.4675C112.278 70.406 112.289 70.3447 112.312 70.2875C112.335 70.2303 112.369 70.1784 112.413 70.135C112.454 70.0928 112.504 70.0592 112.558 70.0364C112.613 70.0135 112.672 70.0019 112.731 70.002C112.814 70.0008 112.895 70.024 112.964 70.0686C113.034 70.1133 113.089 70.1775 113.122 70.2533L113.773 71.4134L114.393 70.305C114.433 70.2187 114.495 70.1449 114.573 70.0914C114.651 70.038 114.742 70.0071 114.837 70.002C114.895 70.002 114.952 70.0138 115.006 70.0367C115.059 70.0595 115.107 70.093 115.147 70.135C115.191 70.1756 115.225 70.2249 115.248 70.2797C115.271 70.3344 115.282 70.3934 115.28 70.4528C115.279 70.5577 115.249 70.6602 115.192 70.7484L114.541 71.7903L115.894 71.7534C115.956 71.7496 116.019 71.7596 116.078 71.7826C116.137 71.8055 116.19 71.8409 116.234 71.8864C116.309 71.9748 116.351 72.0875 116.351 72.2041C116.351 72.3207 116.309 72.4334 116.234 72.5219C116.19 72.5673 116.137 72.6027 116.078 72.6257C116.019 72.6486 115.956 72.6586 115.894 72.6549H114.527L115.132 73.6008C115.201 73.7149 115.239 73.8446 115.243 73.9776C115.245 74.0375 115.235 74.0972 115.214 74.1531C115.192 74.2089 115.159 74.2599 115.118 74.3028C115.079 74.3442 115.032 74.3774 114.98 74.4003C114.928 74.4231 114.872 74.4352 114.815 74.4358C114.723 74.4336 114.634 74.4052 114.558 74.3542C114.482 74.3031 114.423 74.2315 114.386 74.1476L113.773 73.0613L113.159 74.1476C113.115 74.2332 113.047 74.3039 112.963 74.3512C112.879 74.3984 112.783 74.4201 112.686 74.4136Z" fill="black"/>
<path d="M119.47 74.4135C119.412 74.4135 119.355 74.4017 119.301 74.3788C119.248 74.3559 119.2 74.3225 119.16 74.2804C119.116 74.237 119.082 74.1851 119.059 74.128C119.036 74.0708 119.025 74.0095 119.027 73.9479C119.027 73.8439 119.055 73.7417 119.108 73.6523L119.773 72.6178H118.413C118.351 72.621 118.288 72.6108 118.229 72.5879C118.171 72.5649 118.118 72.5298 118.074 72.4848C117.998 72.3963 117.956 72.2836 117.956 72.167C117.956 72.0504 117.998 71.9377 118.074 71.8492C118.118 71.8042 118.171 71.7691 118.229 71.7461C118.288 71.7232 118.351 71.713 118.413 71.7162L119.751 71.7532L119.123 70.7556C119.064 70.6572 119.031 70.5452 119.027 70.4304C119.025 70.3689 119.036 70.3076 119.059 70.2504C119.082 70.1932 119.116 70.1413 119.16 70.0979C119.201 70.0557 119.251 70.0221 119.305 69.9993C119.36 69.9764 119.418 69.9647 119.478 69.9649C119.56 69.9637 119.642 69.9868 119.711 70.0315C119.781 70.0762 119.836 70.1404 119.869 70.2161L120.519 71.3763L121.14 70.2679C121.179 70.1816 121.241 70.1078 121.32 70.0543C121.398 70.0009 121.489 69.97 121.584 69.9649C121.642 69.9649 121.699 69.9767 121.752 69.9996C121.806 70.0224 121.854 70.0559 121.894 70.0979C121.937 70.1385 121.972 70.1878 121.994 70.2426C122.017 70.2973 122.028 70.3563 122.027 70.4157C122.026 70.5206 121.995 70.6231 121.938 70.7113L121.288 71.7532L122.64 71.7162C122.703 71.7125 122.766 71.7225 122.825 71.7455C122.884 71.7684 122.937 71.8038 122.98 71.8492C123.056 71.9377 123.098 72.0504 123.098 72.167C123.098 72.2836 123.056 72.3963 122.98 72.4848C122.937 72.5302 122.884 72.5656 122.825 72.5886C122.766 72.6115 122.703 72.6215 122.64 72.6178H121.273L121.879 73.5636C121.948 73.6778 121.986 73.8075 121.99 73.9405C121.992 74.0004 121.982 74.0601 121.961 74.116C121.939 74.1718 121.906 74.2228 121.864 74.2657C121.825 74.3071 121.779 74.3403 121.727 74.3632C121.674 74.386 121.618 74.3981 121.561 74.3987C121.47 74.3974 121.38 74.3694 121.304 74.3183C121.228 74.2671 121.169 74.1949 121.133 74.1105L120.519 73.0242L119.906 74.1105C119.87 74.1972 119.809 74.2717 119.732 74.3253C119.655 74.379 119.564 74.4096 119.47 74.4135Z" fill="black"/>
<path d="M126.254 74.4135C126.196 74.4135 126.138 74.4017 126.085 74.3788C126.032 74.3559 125.984 74.3225 125.943 74.2804C125.9 74.237 125.865 74.1851 125.843 74.128C125.82 74.0708 125.809 74.0095 125.81 73.9479C125.81 73.8439 125.838 73.7417 125.892 73.6523L126.557 72.6178H125.197C125.134 72.621 125.071 72.6108 125.013 72.5879C124.954 72.5649 124.901 72.5298 124.857 72.4848C124.781 72.3963 124.74 72.2836 124.74 72.167C124.74 72.0504 124.781 71.9377 124.857 71.8492C124.901 71.8042 124.954 71.7691 125.013 71.7461C125.071 71.7232 125.134 71.713 125.197 71.7162L126.535 71.7532L125.907 70.7556C125.847 70.6572 125.814 70.5452 125.81 70.4304C125.809 70.3689 125.82 70.3076 125.843 70.2504C125.865 70.1932 125.9 70.1413 125.943 70.0979C125.985 70.0557 126.034 70.0221 126.089 69.9993C126.144 69.9764 126.202 69.9647 126.261 69.9649C126.344 69.9637 126.425 69.9868 126.495 70.0315C126.565 70.0762 126.62 70.1404 126.653 70.2161L127.303 71.3763L127.924 70.2679C127.963 70.1816 128.025 70.1078 128.103 70.0543C128.181 70.0009 128.273 69.97 128.367 69.9649C128.425 69.9649 128.483 69.9767 128.536 69.9996C128.589 70.0224 128.638 70.0559 128.678 70.0979C128.721 70.1385 128.755 70.1878 128.778 70.2426C128.801 70.2973 128.812 70.3563 128.811 70.4157C128.81 70.5206 128.779 70.6231 128.722 70.7113L128.072 71.7532L129.424 71.7162C129.487 71.7125 129.55 71.7225 129.609 71.7455C129.667 71.7684 129.72 71.8038 129.764 71.8492C129.84 71.9377 129.882 72.0504 129.882 72.167C129.882 72.2836 129.84 72.3963 129.764 72.4848C129.72 72.5302 129.667 72.5656 129.609 72.5886C129.55 72.6115 129.487 72.6215 129.424 72.6178H128.057L128.663 73.5636C128.731 73.6778 128.769 73.8075 128.774 73.9405C128.776 74.0004 128.766 74.0601 128.744 74.116C128.723 74.1718 128.69 74.2228 128.648 74.2657C128.609 74.3071 128.562 74.3403 128.51 74.3632C128.458 74.386 128.402 74.3981 128.345 74.3987C128.253 74.3974 128.164 74.3694 128.088 74.3183C128.012 74.2671 127.952 74.1949 127.917 74.1105L127.303 73.0242L126.69 74.1105C126.653 74.1972 126.593 74.2717 126.516 74.3253C126.439 74.379 126.348 74.4096 126.254 74.4135Z" fill="black"/>
<path d="M133.067 74.4135C133.009 74.4135 132.952 74.4017 132.898 74.3788C132.845 74.3559 132.797 74.3225 132.757 74.2804C132.713 74.237 132.679 74.1851 132.656 74.128C132.633 74.0708 132.622 74.0095 132.624 73.9479C132.624 73.8439 132.652 73.7417 132.705 73.6523L133.37 72.6178H132.01C131.948 72.621 131.885 72.6108 131.826 72.5879C131.767 72.5649 131.714 72.5298 131.67 72.4848C131.594 72.3963 131.553 72.2836 131.553 72.167C131.553 72.0504 131.594 71.9377 131.67 71.8492C131.714 71.8042 131.767 71.7691 131.826 71.7461C131.885 71.7232 131.948 71.713 132.01 71.7162L133.348 71.7532L132.72 70.7556C132.661 70.6572 132.627 70.5452 132.624 70.4304C132.622 70.3689 132.633 70.3076 132.656 70.2504C132.679 70.1932 132.713 70.1413 132.757 70.0979C132.798 70.0557 132.848 70.0221 132.902 69.9993C132.957 69.9764 133.015 69.9647 133.074 69.9649C133.157 69.9637 133.239 69.9868 133.308 70.0315C133.378 70.0762 133.433 70.1404 133.466 70.2161L134.116 71.3763L134.737 70.2679C134.776 70.1816 134.838 70.1078 134.916 70.0543C134.995 70.0009 135.086 69.97 135.181 69.9649C135.239 69.9649 135.296 69.9767 135.349 69.9996C135.403 70.0224 135.451 70.0559 135.491 70.0979C135.534 70.1385 135.568 70.1878 135.591 70.2426C135.614 70.2973 135.625 70.3563 135.624 70.4157C135.623 70.5206 135.592 70.6231 135.535 70.7113L134.885 71.7532L136.237 71.7162C136.3 71.7125 136.363 71.7225 136.422 71.7455C136.48 71.7684 136.533 71.8038 136.577 71.8492C136.653 71.9377 136.695 72.0504 136.695 72.167C136.695 72.2836 136.653 72.3963 136.577 72.4848C136.533 72.5302 136.48 72.5656 136.422 72.5886C136.363 72.6115 136.3 72.6215 136.237 72.6178H134.87L135.476 73.5636C135.544 73.6778 135.583 73.8075 135.587 73.9405C135.589 74.0004 135.579 74.0601 135.557 74.116C135.536 74.1718 135.503 74.2228 135.461 74.2657C135.422 74.3071 135.376 74.3403 135.323 74.3632C135.271 74.386 135.215 74.3981 135.158 74.3987C135.067 74.3964 134.978 74.3681 134.902 74.3171C134.826 74.266 134.766 74.1943 134.73 74.1105L134.116 73.0242L133.503 74.1105C133.467 74.1972 133.406 74.2717 133.329 74.3253C133.252 74.379 133.161 74.4096 133.067 74.4135Z" fill="black"/>
<path d="M139.821 74.4135C139.763 74.4135 139.706 74.4017 139.652 74.3788C139.599 74.3559 139.551 74.3225 139.511 74.2804C139.467 74.237 139.433 74.1851 139.41 74.128C139.387 74.0708 139.376 74.0095 139.378 73.9479C139.381 73.8444 139.409 73.7431 139.459 73.6523L140.124 72.6178H138.765C138.702 72.621 138.639 72.6108 138.58 72.5879C138.522 72.5649 138.469 72.5298 138.425 72.4848C138.349 72.3963 138.307 72.2836 138.307 72.167C138.307 72.0504 138.349 71.9377 138.425 71.8493C138.469 71.8042 138.522 71.7691 138.58 71.7461C138.639 71.7232 138.702 71.713 138.765 71.7162L140.102 71.7532L139.474 70.7556C139.415 70.6572 139.382 70.5453 139.378 70.4304C139.376 70.3689 139.387 70.3076 139.41 70.2504C139.433 70.1932 139.467 70.1413 139.511 70.0979C139.552 70.0557 139.602 70.0221 139.656 69.9993C139.711 69.9764 139.769 69.9647 139.829 69.9649C139.911 69.9637 139.993 69.9868 140.062 70.0315C140.132 70.0762 140.187 70.1404 140.22 70.2161L140.871 71.3763L141.491 70.2679C141.53 70.1816 141.592 70.1078 141.671 70.0543C141.749 70.0009 141.84 69.97 141.935 69.9649C141.993 69.964 142.051 69.9754 142.104 69.9983C142.158 70.0212 142.206 70.0552 142.245 70.0979C142.288 70.1385 142.323 70.1878 142.346 70.2426C142.368 70.2973 142.38 70.3563 142.378 70.4157C142.377 70.5206 142.346 70.6231 142.289 70.7113L141.639 71.7532L142.991 71.7162C143.054 71.7125 143.117 71.7225 143.176 71.7455C143.235 71.7684 143.288 71.8038 143.331 71.8493C143.407 71.9377 143.449 72.0504 143.449 72.167C143.449 72.2836 143.407 72.3963 143.331 72.4848C143.288 72.5302 143.235 72.5656 143.176 72.5886C143.117 72.6115 143.054 72.6215 142.991 72.6178H141.624L142.23 73.5637C142.299 73.6778 142.337 73.8075 142.341 73.9405C142.343 74.0004 142.333 74.0601 142.312 74.116C142.29 74.1718 142.257 74.2228 142.215 74.2657C142.177 74.3071 142.13 74.3403 142.078 74.3632C142.026 74.386 141.969 74.3981 141.913 74.3987C141.821 74.3964 141.732 74.3681 141.656 74.3171C141.58 74.266 141.52 74.1943 141.484 74.1105L140.871 73.0242L140.257 74.1105C140.221 74.1972 140.16 74.2717 140.083 74.3253C140.006 74.379 139.915 74.4096 139.821 74.4135Z" fill="black"/>
<path d="M146.605 74.4135C146.547 74.4135 146.489 74.4017 146.436 74.3788C146.383 74.3559 146.335 74.3225 146.295 74.2804C146.251 74.237 146.216 74.1851 146.194 74.128C146.171 74.0708 146.16 74.0095 146.162 73.9479C146.165 73.8444 146.193 73.7431 146.243 73.6523L146.908 72.6178H145.556C145.492 72.6216 145.427 72.6117 145.368 72.5888C145.308 72.5658 145.253 72.5304 145.208 72.4848C145.132 72.3963 145.091 72.2836 145.091 72.167C145.091 72.0504 145.132 71.9377 145.208 71.8493C145.253 71.8036 145.308 71.7682 145.368 71.7453C145.427 71.7223 145.492 71.7124 145.556 71.7162L146.886 71.7532L146.258 70.7556C146.198 70.6572 146.165 70.5453 146.162 70.4304C146.16 70.3689 146.171 70.3076 146.194 70.2504C146.216 70.1932 146.251 70.1413 146.295 70.0979C146.336 70.0557 146.385 70.0221 146.44 69.9993C146.495 69.9764 146.553 69.9647 146.612 69.9649C146.695 69.9637 146.776 69.9868 146.846 70.0315C146.916 70.0762 146.971 70.1404 147.004 70.2161L147.654 71.3763L148.275 70.2679C148.314 70.1816 148.376 70.1078 148.454 70.0543C148.532 70.0009 148.624 69.97 148.718 69.9649C148.777 69.964 148.834 69.9754 148.888 69.9983C148.941 70.0212 148.989 70.0552 149.029 70.0979C149.072 70.1385 149.106 70.1878 149.129 70.2426C149.152 70.2973 149.163 70.3563 149.162 70.4157C149.161 70.5206 149.13 70.6231 149.073 70.7113L148.423 71.7532L149.775 71.7162C149.838 71.7125 149.901 71.7225 149.96 71.7455C150.018 71.7684 150.071 71.8038 150.115 71.8493C150.191 71.9377 150.233 72.0504 150.233 72.167C150.233 72.2836 150.191 72.3963 150.115 72.4848C150.071 72.5302 150.018 72.5656 149.96 72.5886C149.901 72.6115 149.838 72.6215 149.775 72.6178H148.408L149.014 73.5637C149.082 73.6778 149.12 73.8075 149.125 73.9405C149.127 74.0004 149.117 74.0601 149.095 74.116C149.074 74.1718 149.041 74.2228 148.999 74.2657C148.96 74.3071 148.913 74.3403 148.861 74.3632C148.809 74.386 148.753 74.3981 148.696 74.3987C148.605 74.3964 148.516 74.3681 148.44 74.3171C148.364 74.266 148.304 74.1943 148.268 74.1105L147.654 73.0242L147.041 74.1105C147.005 74.1972 146.944 74.2717 146.867 74.3253C146.79 74.379 146.699 74.4096 146.605 74.4135Z" fill="black"/>
<path d="M153.389 74.4136C153.331 74.4136 153.273 74.4018 153.22 74.379C153.167 74.3561 153.119 74.3226 153.078 74.2806C153.035 74.2372 153 74.1853 152.978 74.1281C152.955 74.0709 152.944 74.0096 152.945 73.9481C152.945 73.844 152.973 73.7419 153.027 73.6525L153.692 72.6179H152.332C152.269 72.6212 152.206 72.611 152.148 72.588C152.089 72.5651 152.036 72.5299 151.992 72.4849C151.916 72.3965 151.875 72.2838 151.875 72.1672C151.875 72.0506 151.916 71.9379 151.992 71.8494C152.036 71.8044 152.089 71.7692 152.148 71.7463C152.206 71.7234 152.269 71.7132 152.332 71.7164L153.67 71.7534L153.019 70.7927C152.96 70.6943 152.927 70.5824 152.923 70.4676C152.922 70.406 152.932 70.3447 152.955 70.2875C152.978 70.2303 153.013 70.1784 153.056 70.135C153.098 70.0928 153.147 70.0592 153.202 70.0364C153.256 70.0135 153.315 70.0019 153.374 70.002C153.457 70.0008 153.538 70.024 153.608 70.0686C153.677 70.1133 153.732 70.1775 153.766 70.2533L154.416 71.4134L155.037 70.305C155.076 70.2187 155.138 70.1449 155.216 70.0915C155.294 70.038 155.386 70.0071 155.48 70.002C155.538 70.0011 155.596 70.0125 155.649 70.0354C155.703 70.0583 155.751 70.0923 155.79 70.135C155.834 70.1756 155.868 70.2249 155.891 70.2797C155.914 70.3344 155.925 70.3934 155.923 70.4528C155.923 70.5577 155.892 70.6602 155.835 70.7484L155.185 71.7903L156.537 71.7534C156.6 71.7496 156.663 71.7596 156.721 71.7826C156.78 71.8055 156.833 71.8409 156.877 71.8864C156.953 71.9748 156.994 72.0875 156.994 72.2041C156.994 72.3207 156.953 72.4334 156.877 72.5219C156.833 72.5673 156.78 72.6027 156.721 72.6257C156.663 72.6486 156.6 72.6586 156.537 72.6549H155.17L155.776 73.6008C155.844 73.7149 155.882 73.8446 155.887 73.9776C155.889 74.0375 155.879 74.0972 155.857 74.1531C155.835 74.209 155.803 74.2599 155.761 74.3028C155.722 74.3442 155.675 74.3774 155.623 74.4003C155.571 74.4231 155.515 74.4352 155.458 74.4358C155.366 74.4336 155.278 74.4052 155.202 74.3542C155.126 74.3031 155.066 74.2315 155.029 74.1476L154.416 73.0613L153.803 74.1476C153.763 74.2241 153.704 74.289 153.631 74.3356C153.559 74.3823 153.475 74.4092 153.389 74.4136Z" fill="black"/>
<path d="M160.172 74.4136C160.114 74.4136 160.057 74.4018 160.003 74.379C159.95 74.3561 159.902 74.3226 159.862 74.2806C159.818 74.2372 159.784 74.1853 159.761 74.1281C159.738 74.0709 159.727 74.0096 159.729 73.9481C159.732 73.8445 159.76 73.7432 159.81 73.6525L160.475 72.6179H159.123C159.06 72.6227 158.997 72.6132 158.938 72.5902C158.879 72.5671 158.826 72.5312 158.783 72.4849C158.702 72.3987 158.658 72.2851 158.658 72.1672C158.658 72.0492 158.702 71.9356 158.783 71.8494C158.826 71.8032 158.879 71.7672 158.938 71.7442C158.997 71.7211 159.06 71.7117 159.123 71.7164L160.453 71.7533L159.825 70.7557C159.766 70.6573 159.733 70.5454 159.729 70.4306C159.727 70.3702 159.737 70.31 159.759 70.2536C159.781 70.1972 159.814 70.1457 159.856 70.1023C159.898 70.0588 159.948 70.0243 160.004 70.0007C160.059 69.9772 160.119 69.965 160.18 69.965C160.262 69.9638 160.344 69.987 160.413 70.0317C160.483 70.0764 160.538 70.1406 160.571 70.2163L161.222 71.3765L161.842 70.268C161.881 70.1818 161.943 70.1079 162.022 70.0545C162.1 70.0011 162.191 69.9701 162.286 69.965C162.344 69.9632 162.402 69.9741 162.456 69.9971C162.509 70.0201 162.557 70.0546 162.596 70.0981C162.639 70.1387 162.674 70.188 162.697 70.2427C162.719 70.2975 162.731 70.3565 162.729 70.4158C162.728 70.5208 162.697 70.6233 162.64 70.7114L161.99 71.7533L163.342 71.7164C163.405 71.7127 163.468 71.7227 163.527 71.7456C163.586 71.7686 163.639 71.804 163.682 71.8494C163.758 71.9379 163.8 72.0506 163.8 72.1672C163.8 72.2837 163.758 72.3965 163.682 72.4849C163.639 72.5303 163.586 72.5657 163.527 72.5887C163.468 72.6117 163.405 72.6216 163.342 72.6179H161.975L162.581 73.5638C162.65 73.678 162.688 73.8077 162.692 73.9407C162.694 73.9989 162.685 74.057 162.664 74.1115C162.644 74.1661 162.613 74.216 162.573 74.2586C162.533 74.3011 162.485 74.3354 162.432 74.3595C162.379 74.3836 162.322 74.3969 162.264 74.3988C162.172 74.3966 162.083 74.3683 162.007 74.3172C161.931 74.2662 161.872 74.1945 161.835 74.1106L161.222 73.0244L160.608 74.1106C160.572 74.1973 160.512 74.2718 160.434 74.3255C160.357 74.3792 160.266 74.4097 160.172 74.4136Z" fill="black"/>
<path d="M166.956 74.4136C166.898 74.4136 166.84 74.4018 166.787 74.379C166.734 74.3561 166.686 74.3226 166.646 74.2806C166.602 74.2372 166.568 74.1853 166.545 74.1281C166.522 74.0709 166.511 74.0096 166.513 73.9481C166.516 73.8445 166.544 73.7432 166.594 73.6525L167.259 72.6179H165.899C165.837 72.6216 165.776 72.6115 165.718 72.5885C165.661 72.5655 165.609 72.5302 165.567 72.4849C165.486 72.3987 165.441 72.2851 165.441 72.1672C165.441 72.0492 165.486 71.9356 165.567 71.8494C165.609 71.8042 165.661 71.7688 165.718 71.7458C165.776 71.7228 165.837 71.7128 165.899 71.7164L167.237 71.7533L166.609 70.7557C166.549 70.6573 166.516 70.5454 166.513 70.4306C166.511 70.3702 166.521 70.31 166.543 70.2536C166.564 70.1972 166.597 70.1457 166.639 70.1023C166.681 70.0588 166.732 70.0243 166.787 70.0007C166.843 69.9772 166.903 69.965 166.963 69.965C167.046 69.9638 167.127 69.987 167.197 70.0317C167.267 70.0764 167.322 70.1406 167.355 70.2163L168.005 71.3765L168.626 70.268C168.665 70.1818 168.727 70.1079 168.805 70.0545C168.884 70.0011 168.975 69.9701 169.069 69.965C169.128 69.9632 169.186 69.9741 169.239 69.9971C169.293 70.0201 169.341 70.0546 169.38 70.0981C169.423 70.1387 169.457 70.188 169.48 70.2427C169.503 70.2975 169.514 70.3565 169.513 70.4158C169.512 70.5208 169.481 70.6233 169.424 70.7114L168.774 71.7533L170.126 71.7164C170.189 71.7127 170.252 71.7227 170.311 71.7456C170.369 71.7686 170.422 71.804 170.466 71.8494C170.542 71.9379 170.584 72.0506 170.584 72.1672C170.584 72.2837 170.542 72.3965 170.466 72.4849C170.422 72.5303 170.369 72.5657 170.311 72.5887C170.252 72.6117 170.189 72.6216 170.126 72.6179H168.759L169.365 73.5638C169.433 73.678 169.471 73.8077 169.476 73.9407C169.478 73.9989 169.468 74.057 169.448 74.1115C169.427 74.1661 169.396 74.216 169.357 74.2586C169.317 74.3011 169.269 74.3354 169.216 74.3595C169.163 74.3836 169.105 74.3969 169.047 74.3988C168.956 74.3966 168.867 74.3683 168.791 74.3172C168.715 74.2662 168.655 74.1945 168.619 74.1106L168.005 73.0244L167.392 74.1106C167.356 74.1973 167.295 74.2718 167.218 74.3255C167.141 74.3792 167.05 74.4097 166.956 74.4136Z" fill="black"/>
<path d="M173.71 74.4136C173.652 74.4136 173.595 74.4018 173.541 74.379C173.488 74.3561 173.44 74.3226 173.4 74.2806C173.356 74.2372 173.322 74.1853 173.299 74.1281C173.276 74.0709 173.265 74.0096 173.267 73.9481C173.27 73.8445 173.298 73.7432 173.348 73.6525L174.013 72.6179H172.653C172.592 72.6216 172.53 72.6115 172.472 72.5885C172.415 72.5655 172.363 72.5302 172.321 72.4849C172.24 72.3987 172.196 72.2851 172.196 72.1672C172.196 72.0492 172.24 71.9356 172.321 71.8494C172.363 71.8042 172.415 71.7688 172.472 71.7458C172.53 71.7228 172.592 71.7128 172.653 71.7164L173.991 71.7533L173.363 70.7557C173.304 70.6573 173.27 70.5454 173.267 70.4306C173.265 70.369 173.276 70.3078 173.299 70.2506C173.322 70.1934 173.356 70.1415 173.4 70.0981C173.441 70.0558 173.491 70.0223 173.545 69.9994C173.6 69.9766 173.658 69.9649 173.718 69.965C173.8 69.9638 173.882 69.987 173.951 70.0317C174.021 70.0764 174.076 70.1406 174.109 70.2163L174.759 71.3765L175.38 70.268C175.419 70.1818 175.481 70.1079 175.559 70.0545C175.638 70.0011 175.729 69.9701 175.824 69.965C175.882 69.9632 175.94 69.9741 175.993 69.9971C176.047 70.0201 176.095 70.0546 176.134 70.0981C176.177 70.1387 176.211 70.188 176.234 70.2427C176.257 70.2975 176.268 70.3565 176.267 70.4158C176.266 70.5208 176.235 70.6233 176.178 70.7114L175.528 71.7533L176.88 71.7164C176.943 71.7127 177.006 71.7227 177.065 71.7456C177.123 71.7686 177.177 71.804 177.22 71.8494C177.296 71.9379 177.338 72.0506 177.338 72.1672C177.338 72.2837 177.296 72.3965 177.22 72.4849C177.177 72.5303 177.123 72.5657 177.065 72.5887C177.006 72.6117 176.943 72.6216 176.88 72.6179H175.513L176.119 73.5638C176.187 73.678 176.226 73.8077 176.23 73.9407C176.232 74.0005 176.222 74.0602 176.2 74.1161C176.179 74.172 176.146 74.2229 176.104 74.2658C176.065 74.3073 176.019 74.3405 175.966 74.3633C175.914 74.3862 175.858 74.3983 175.801 74.3988C175.71 74.3966 175.621 74.3683 175.545 74.3172C175.469 74.2662 175.409 74.1945 175.373 74.1106L174.759 73.0244L174.146 74.1106C174.11 74.1973 174.049 74.2718 173.972 74.3255C173.895 74.3792 173.804 74.4097 173.71 74.4136Z" fill="black"/>
<path d="M196.958 90.7598H205.996" stroke="white" stroke-width="0.58" stroke-linecap="round" stroke-linejoin="round"/>
<path d="M71.6077 24.2158V84.2418C71.6077 85.9802 72.2982 87.6474 73.5275 88.8766C74.7567 90.1058 76.4239 90.7964 78.1623 90.7964H188.379" stroke="white" stroke-width="0.58" stroke-linecap="round" stroke-linejoin="round"/>
<path d="M71.6077 8.29883V17.2994" stroke="white" stroke-width="0.58" stroke-linecap="round" stroke-linejoin="round"/>
</svg>
