<svg width="28" height="28" viewBox="0 0 28 28" fill="none" xmlns="http://www.w3.org/2000/svg">
<path d="M14 7.70027C14 9.37113 13.3363 10.9736 12.1548 12.155C10.9733 13.3365 9.37089 14.0003 7.70002 14.0003C6.02916 14.0003 4.42673 13.3365 3.24525 12.155C2.06377 10.9736 1.40002 9.37113 1.40002 7.70027C1.40002 6.02941 2.06377 4.42698 3.24525 3.2455C4.42673 2.06402 6.02916 1.40027 7.70002 1.40027C9.37089 1.40027 10.9733 2.06402 12.1548 3.2455C13.3363 4.42698 14 6.02941 14 7.70027ZM8.40002 4.90027C8.40002 4.71462 8.32627 4.53657 8.195 4.40529C8.06372 4.27402 7.88568 4.20027 7.70002 4.20027C7.51437 4.20027 7.33633 4.27402 7.20505 4.40529C7.07377 4.53657 7.00002 4.71462 7.00002 4.90027V7.00027H4.90002C4.71437 7.00027 4.53633 7.07402 4.40505 7.20529C4.27377 7.33657 4.20002 7.51462 4.20002 7.70027C4.20002 7.88592 4.27377 8.06397 4.40505 8.19524C4.53633 8.32652 4.71437 8.40027 4.90002 8.40027H7.00002V10.5003C7.00002 10.6859 7.07377 10.864 7.20505 10.9952C7.33633 11.1265 7.51437 11.2003 7.70002 11.2003C7.88568 11.2003 8.06372 11.1265 8.195 10.9952C8.32627 10.864 8.40002 10.6859 8.40002 10.5003V8.40027H10.5C10.6857 8.40027 10.8637 8.32652 10.995 8.19524C11.1263 8.06397 11.2 7.88592 11.2 7.70027C11.2 7.51462 11.1263 7.33657 10.995 7.20529C10.8637 7.07402 10.6857 7.00027 10.5 7.00027H8.40002V4.90027ZM7.70002 15.4003C9.01802 15.4005 10.314 15.0624 11.4639 14.4184C12.6139 13.7744 13.5793 12.846 14.2677 11.7221C14.9561 10.5981 15.3445 9.31633 15.3956 7.99933C15.4468 6.68233 15.1591 5.37424 14.56 4.20027H19.6C20.6713 4.20021 21.7021 4.60952 22.4816 5.34447C23.261 6.07941 23.7302 7.08442 23.793 8.15387L23.8 8.40027V14.0003H18.2L17.9536 14.0073C16.9266 14.0676 15.9574 14.5027 15.23 15.2302C14.5025 15.9577 14.0673 16.9268 14.007 17.9539L14 18.2003V23.8003H8.40002C7.32873 23.8003 6.2979 23.391 5.51846 22.6561C4.73901 21.9211 4.26987 20.9161 4.20702 19.8467L4.20002 19.6003V14.5603C5.25002 15.0979 6.44002 15.4003 7.70002 15.4003ZM23.66 15.4017C23.5515 15.7346 23.3815 16.0442 23.1588 16.3145L22.9796 16.5105L16.5102 22.9799C16.1966 23.2935 15.8158 23.5259 15.4014 23.6617L15.4 18.2003L15.407 17.9903C15.4571 17.3236 15.7441 16.6969 16.216 16.2234C16.688 15.7499 17.3138 15.4609 17.9802 15.4087L18.2 15.4003L23.66 15.4017Z" fill="#063466"/>
</svg>
