<svg width="18" height="18" viewBox="0 0 18 18" fill="none" xmlns="http://www.w3.org/2000/svg">
<path d="M15.75 1.5L14.25 3M14.25 3L16.5 5.25L13.875 7.875L11.625 5.625M14.25 3L11.625 5.625M8.54246 8.7075C8.92972 9.0896 9.23756 9.54453 9.44828 10.0461C9.65899 10.5477 9.76841 11.0859 9.77023 11.63C9.77205 12.174 9.66625 12.713 9.4589 13.216C9.25155 13.7189 8.94676 14.1759 8.56207 14.5606C8.17738 14.9453 7.7204 15.2501 7.21744 15.4574C6.71447 15.6648 6.17546 15.7706 5.63144 15.7688C5.08741 15.7669 4.54912 15.6575 4.04755 15.4468C3.54599 15.2361 3.09106 14.9283 2.70896 14.541C1.95756 13.763 1.54178 12.721 1.55118 11.6395C1.56058 10.5579 1.9944 9.52331 2.75921 8.7585C3.52402 7.99369 4.55862 7.55987 5.64018 7.55047C6.72174 7.54107 7.76373 7.95685 8.54171 8.70825L8.54246 8.7075ZM8.54246 8.7075L11.625 5.625" stroke="#69818C" stroke-width="1.5" stroke-linecap="round" stroke-linejoin="round"/>
</svg>
