<svg width="24" height="24" viewBox="0 0 24 24" fill="none" xmlns="http://www.w3.org/2000/svg">
<path d="M14 4V6C14 6.26522 14.1054 6.51957 14.2929 6.70711C14.4804 6.89464 14.7348 7 15 7C15.2652 7 15.5196 6.89464 15.7071 6.70711C15.8946 6.51957 16 6.26522 16 6V4H19C19.7956 4 20.5587 4.31607 21.1213 4.87868C21.6839 5.44129 22 6.20435 22 7V10C22 10.2449 21.91 10.4813 21.7473 10.6644C21.5845 10.8474 21.3603 10.9643 21.117 10.993L21 11C20.7451 11.0003 20.5 11.0979 20.3146 11.2728C20.1293 11.4478 20.0178 11.687 20.0028 11.9414C19.9879 12.1958 20.0707 12.4464 20.2343 12.6418C20.3979 12.8373 20.6299 12.9629 20.883 12.993L21 13C21.2652 13 21.5196 13.1054 21.7071 13.2929C21.8946 13.4804 22 13.7348 22 14V17C22 17.7956 21.6839 18.5587 21.1213 19.1213C20.5587 19.6839 19.7956 20 19 20H16V18C16 17.7551 15.91 17.5187 15.7473 17.3356C15.5845 17.1526 15.3603 17.0357 15.117 17.007L15 17C14.7348 17 14.4804 17.1054 14.2929 17.2929C14.1054 17.4804 14 17.7348 14 18V20H5C4.20435 20 3.44129 19.6839 2.87868 19.1213C2.31607 18.5587 2 17.7956 2 17V14C2.00003 13.7551 2.08996 13.5187 2.25272 13.3356C2.41548 13.1526 2.63975 13.0357 2.883 13.007L3 13C3.25488 12.9997 3.50003 12.9021 3.68537 12.7272C3.87071 12.5522 3.98224 12.313 3.99717 12.0586C4.01211 11.8042 3.92933 11.5536 3.76574 11.3582C3.60215 11.1627 3.3701 11.0371 3.117 11.007L3 11C2.73478 11 2.48043 10.8946 2.29289 10.7071C2.10536 10.5196 2 10.2652 2 10V7C1.9995 6.25172 2.27912 5.53036 2.78381 4.97792C3.28851 4.42547 3.98173 4.08196 4.727 4.015L4.949 4.001L14 4ZM15 10C14.7348 10 14.4804 10.1054 14.2929 10.2929C14.1054 10.4804 14 10.7348 14 11V13C14 13.2652 14.1054 13.5196 14.2929 13.7071C14.4804 13.8946 14.7348 14 15 14C15.2652 14 15.5196 13.8946 15.7071 13.7071C15.8946 13.5196 16 13.2652 16 13V11C16 10.7348 15.8946 10.4804 15.7071 10.2929C15.5196 10.1054 15.2652 10 15 10Z" fill="white"/>
</svg>
