<svg width="28" height="28" viewBox="0 0 28 28" fill="none" xmlns="http://www.w3.org/2000/svg">
<path d="M16.3333 16.6273V25.6666H4.66663C4.66626 24.242 4.99203 22.8362 5.61897 21.5569C6.24591 20.2776 7.15739 19.1589 8.28355 18.2863C9.40971 17.4138 10.7207 16.8106 12.116 16.523C13.5113 16.2355 14.9539 16.2711 16.3333 16.6273ZM14 15.1666C10.1325 15.1666 6.99996 12.0341 6.99996 8.16663C6.99996 4.29913 10.1325 1.16663 14 1.16663C17.8675 1.16663 21 4.29913 21 8.16663C21 12.0341 17.8675 15.1666 14 15.1666ZM21 19.8333V16.3333H23.3333V19.8333H26.8333V22.1666H23.3333V25.6666H21V22.1666H17.5V19.8333H21Z" fill="#063466"/>
</svg>
