<svg width="396" height="296" viewBox="0 0 396 296" fill="none" xmlns="http://www.w3.org/2000/svg">
<path d="M396 259.301H0V259.499H396V259.301Z" fill="#EBEBEB"/>
<path d="M356.321 272.044H330.09V272.242H356.321V272.044Z" fill="#EBEBEB"/>
<path d="M262.326 274.198H255.444V274.396H262.326V274.198Z" fill="#EBEBEB"/>
<path d="M329.298 264.694H314.099V264.892H329.298V264.694Z" fill="#EBEBEB"/>
<path d="M75.7548 266.024H41.5483V266.222H75.7548V266.024Z" fill="#EBEBEB"/>
<path d="M87.8249 266.024H82.8115V266.222H87.8249V266.024Z" fill="#EBEBEB"/>
<path d="M178.319 269.367H104.124V269.565H178.319V269.367Z" fill="#EBEBEB"/>
<path d="M187.704 223.977H34.7766C33.5786 223.975 32.4303 223.498 31.584 222.65C30.7376 221.802 30.2622 220.653 30.2622 219.455V4.48272C30.2726 3.29157 30.7526 2.15264 31.5979 1.31331C32.4431 0.473979 33.5854 0.0020405 34.7766 0H187.704C188.903 0 190.053 0.476457 190.902 1.32456C191.75 2.17266 192.226 3.32292 192.226 4.52232V219.455C192.226 220.655 191.75 221.805 190.902 222.653C190.053 223.501 188.903 223.977 187.704 223.977ZM34.7766 0.158401C33.6311 0.160499 32.5332 0.617019 31.724 1.42776C30.9147 2.2385 30.4602 3.33721 30.4602 4.48272V219.455C30.4602 220.601 30.9147 221.699 31.724 222.51C32.5332 223.321 33.6311 223.777 34.7766 223.779H187.704C188.85 223.777 189.949 223.321 190.759 222.511C191.57 221.7 192.026 220.601 192.028 219.455V4.48272C192.026 3.33648 191.57 2.23779 190.759 1.42728C189.949 0.616762 188.85 0.160494 187.704 0.158401H34.7766Z" fill="#EBEBEB"/>
<path d="M359.021 223.977H206.086C204.888 223.975 203.738 223.498 202.891 222.651C202.043 221.803 201.566 220.654 201.564 219.455V4.48272C201.576 3.29085 202.058 2.15192 202.905 1.31281C203.751 0.473702 204.894 0.00201824 206.086 0H359.021C360.211 0.00412196 361.351 0.476981 362.195 1.31609C363.039 2.15519 363.517 3.29294 363.528 4.48272V219.455C363.528 220.652 363.054 221.8 362.209 222.647C361.364 223.495 360.218 223.973 359.021 223.977ZM206.086 0.158401C204.94 0.160494 203.841 0.616762 203.031 1.42728C202.22 2.23779 201.764 3.33648 201.762 4.48272V219.455C201.764 220.601 202.22 221.7 203.031 222.511C203.841 223.321 204.94 223.777 206.086 223.779H359.021C360.168 223.777 361.266 223.321 362.077 222.511C362.887 221.7 363.344 220.601 363.346 219.455V4.48272C363.344 3.33648 362.887 2.23779 362.077 1.42728C361.266 0.616762 360.168 0.160494 359.021 0.158401H206.086Z" fill="#EBEBEB"/>
<path d="M176.37 101.954H52.3909V258.944H176.37V101.954Z" fill="#F0F0F0"/>
<path d="M171.983 107.681H56.7705V141.254H171.983V107.681Z" fill="#E0E0E0"/>
<path d="M63.3124 113.113H56.7705V141.245H63.3124V113.113Z" fill="#EBEBEB"/>
<path d="M94.9606 113.113H88.4187V141.245H94.9606V113.113Z" fill="#EBEBEB"/>
<path d="M130.886 112.399L124.439 113.511L129.218 141.234L135.664 140.122L130.886 112.399Z" fill="#EBEBEB"/>
<path d="M71.4225 116.82H64.8806V141.246H71.4225V116.82Z" fill="#EBEBEB"/>
<path d="M86.4626 116.82H79.9207V141.246H86.4626V116.82Z" fill="#EBEBEB"/>
<path d="M124.431 116.82H117.889V141.246H124.431V116.82Z" fill="#EBEBEB"/>
<path d="M103.555 115.978L97.1689 117.397L102.468 141.241L108.854 139.822L103.555 115.978Z" fill="#EBEBEB"/>
<path d="M77.0854 111.712H73.8145V141.246H77.0854V111.712Z" fill="#EBEBEB"/>
<path d="M116.012 111.712H112.741V141.246H116.012V111.712Z" fill="#EBEBEB"/>
<path d="M56.7705 180.133H171.983V146.56H56.7705V180.133Z" fill="#E0E0E0"/>
<path d="M165.441 180.133H171.983V152.001H165.441V180.133Z" fill="#EBEBEB"/>
<path d="M133.793 180.133H140.334V152.001H133.793V180.133Z" fill="#EBEBEB"/>
<path d="M93.09 179.024L99.5369 180.136L104.315 152.413L97.8686 151.302L93.09 179.024Z" fill="#EBEBEB"/>
<path d="M157.323 180.133H163.865V155.708H157.323V180.133Z" fill="#EBEBEB"/>
<path d="M142.291 180.133H148.833V155.708H142.291V180.133Z" fill="#EBEBEB"/>
<path d="M104.314 180.133H110.856V155.708H104.314V180.133Z" fill="#EBEBEB"/>
<path d="M119.908 178.708L126.294 180.127L131.594 156.283L125.207 154.864L119.908 178.708Z" fill="#EBEBEB"/>
<path d="M151.668 180.133H154.939V150.599H151.668V180.133Z" fill="#EBEBEB"/>
<path d="M112.741 180.133H116.012V150.599H112.741V180.133Z" fill="#EBEBEB"/>
<path d="M63.3124 152.001H56.7705V180.133H63.3124V152.001Z" fill="#EBEBEB"/>
<path d="M71.4225 155.707H64.8806V180.132H71.4225V155.707Z" fill="#EBEBEB"/>
<path d="M86.4626 155.707H79.9207V180.132H86.4626V155.707Z" fill="#EBEBEB"/>
<path d="M77.0854 150.599H73.8145V180.132H77.0854V150.599Z" fill="#EBEBEB"/>
<path d="M171.983 185.446H56.7705V219.019H171.983V185.446Z" fill="#E0E0E0"/>
<path d="M129.436 190.88H122.895V219.012H129.436V190.88Z" fill="#EBEBEB"/>
<path d="M165.368 190.171L158.921 191.282L163.7 219.005L170.147 217.894L165.368 190.171Z" fill="#EBEBEB"/>
<path d="M105.898 194.595H99.3564V219.02H105.898V194.595Z" fill="#EBEBEB"/>
<path d="M120.946 194.595H114.404V219.02H120.946V194.595Z" fill="#EBEBEB"/>
<path d="M158.915 194.595H152.373V219.02H158.915V194.595Z" fill="#EBEBEB"/>
<path d="M138.045 193.749L131.659 195.168L136.958 219.011L143.344 217.592L138.045 193.749Z" fill="#EBEBEB"/>
<path d="M111.561 189.486H108.29V219.02H111.561V189.486Z" fill="#EBEBEB"/>
<path d="M150.488 189.486H147.217V219.02H150.488V189.486Z" fill="#EBEBEB"/>
<path d="M90.0738 190.178L83.627 191.289L88.4056 219.012L94.8524 217.901L90.0738 190.178Z" fill="#EBEBEB"/>
<path d="M83.6193 194.595H77.0774V219.02H83.6193V194.595Z" fill="#EBEBEB"/>
<path d="M62.7447 193.753L56.3586 195.172L61.6577 219.015L68.0438 217.596L62.7447 193.753Z" fill="#EBEBEB"/>
<path d="M75.1923 189.486H71.9214V219.02H75.1923V189.486Z" fill="#EBEBEB"/>
<path d="M241.781 165.234H311.652C313.456 165.234 315.243 165.59 316.91 166.282C318.577 166.974 320.091 167.988 321.365 169.266C322.64 170.544 323.649 172.061 324.336 173.73C325.023 175.399 325.374 177.187 325.369 178.991V233.544H228.096V178.991C228.087 175.353 229.524 171.859 232.091 169.28C234.657 166.7 238.143 165.245 241.781 165.234Z" fill="#E6E6E6"/>
<path d="M207.409 205.674H219.907C220.981 205.67 222.046 205.878 223.04 206.286C224.034 206.695 224.937 207.296 225.698 208.055C226.459 208.814 227.063 209.715 227.474 210.708C227.886 211.701 228.097 212.765 228.096 213.839V258.983H199.251V213.839C199.25 212.767 199.46 211.706 199.87 210.715C200.279 209.725 200.88 208.824 201.638 208.066C202.395 207.308 203.295 206.706 204.285 206.296C205.275 205.885 206.337 205.674 207.409 205.674Z" fill="#E0E0E0"/>
<path d="M207.409 205.675H207.67C208.742 205.675 209.804 205.886 210.794 206.297C211.784 206.707 212.684 207.309 213.441 208.067C214.199 208.825 214.8 209.725 215.209 210.716C215.619 211.707 215.829 212.768 215.828 213.84V258.984H199.251V213.84C199.25 212.768 199.46 211.707 199.87 210.716C200.279 209.725 200.88 208.825 201.638 208.067C202.395 207.309 203.295 206.707 204.285 206.297C205.275 205.886 206.337 205.675 207.409 205.675Z" fill="#EBEBEB"/>
<path d="M315.192 238.218H219.312V258.944H315.192V238.218Z" fill="#E6E6E6"/>
<path d="M311.644 219.265H219.178C214.598 219.265 210.886 222.977 210.886 227.557V232.713C210.886 237.292 214.598 241.005 219.178 241.005H311.644C316.224 241.005 319.936 237.292 319.936 232.713V227.557C319.936 222.977 316.224 219.265 311.644 219.265Z" fill="#F5F5F5"/>
<path d="M311.485 219.265H300.025C295.445 219.265 291.733 222.977 291.733 227.557V232.713C291.733 237.292 295.445 241.005 300.025 241.005H311.485C316.065 241.005 319.778 237.292 319.778 232.713V227.557C319.778 222.977 316.065 219.265 311.485 219.265Z" fill="#E0E0E0"/>
<path d="M312.729 205.675H325.235C326.306 205.675 327.367 205.886 328.357 206.297C329.347 206.707 330.246 207.309 331.003 208.067C331.76 208.826 332.36 209.726 332.769 210.717C333.177 211.707 333.386 212.769 333.384 213.84V258.984H304.579V213.84C304.577 212.769 304.787 211.707 305.195 210.717C305.604 209.726 306.204 208.826 306.961 208.067C307.718 207.309 308.617 206.707 309.607 206.297C310.596 205.886 311.657 205.675 312.729 205.675Z" fill="#E0E0E0"/>
<path d="M312.729 205.675H312.998C314.07 205.675 315.131 205.886 316.121 206.297C317.111 206.707 318.01 207.309 318.767 208.067C319.524 208.826 320.124 209.726 320.532 210.717C320.941 211.707 321.15 212.769 321.148 213.84V258.984H304.579V213.84C304.577 212.769 304.787 211.707 305.195 210.717C305.604 209.726 306.204 208.826 306.961 208.067C307.718 207.309 308.617 206.707 309.607 206.297C310.596 205.886 311.657 205.675 312.729 205.675Z" fill="#F0F0F0"/>
<path d="M119.002 82.8699C129.17 81.2194 136.075 71.6387 134.424 61.4708C132.774 51.3029 123.193 44.3982 113.025 46.0486C102.857 47.6991 95.9527 57.2798 97.6032 67.4477C99.2537 77.6156 108.834 84.5204 119.002 82.8699Z" fill="#E0E0E0"/>
<path d="M118.556 80.1176C127.204 78.7138 133.076 70.5651 131.673 61.917C130.269 53.2689 122.12 47.3962 113.472 48.8C104.824 50.2038 98.9512 58.3525 100.355 67.0006C101.759 75.6487 109.907 81.5214 118.556 80.1176Z" fill="#F0F0F0"/>
<path d="M115.26 75.3507V64.2627L107.918 68.4207" fill="#F0F0F0"/>
<path d="M115.26 76.1433C115.05 76.1433 114.848 76.0598 114.7 75.9113C114.551 75.7628 114.468 75.5613 114.468 75.3513V65.6176L108.306 69.1103C108.123 69.2129 107.907 69.2389 107.705 69.1825C107.503 69.126 107.332 68.9919 107.229 68.8094C107.126 68.6275 107.098 68.4122 107.153 68.2104C107.208 68.0086 107.341 67.8367 107.522 67.7323L114.872 63.5743C114.992 63.5066 115.128 63.4716 115.266 63.4727C115.404 63.4738 115.54 63.5111 115.659 63.5807C115.778 63.6504 115.877 63.75 115.946 63.8697C116.015 63.9895 116.051 64.1252 116.052 64.2633V75.3513C116.052 75.5613 115.968 75.7628 115.82 75.9113C115.671 76.0598 115.47 76.1433 115.26 76.1433Z" fill="#E0E0E0"/>
<path d="M339.459 40.9307H220.065V146.876H339.459V40.9307Z" fill="#E6E6E6"/>
<path d="M336.315 43.8369H223.051V144.033H336.315V43.8369Z" fill="#F0F0F0"/>
<path d="M249.63 43.8369L223.051 143.811V96.8375L237.085 43.8369H249.63Z" fill="white"/>
<path d="M259.047 43.8369L232.23 144.033H227.953L254.77 43.8369H259.047Z" fill="white"/>
<path d="M336.315 107.062V123.069L330.889 144.033H326.613L336.315 107.062Z" fill="white"/>
<path d="M262.556 42.0391H260.647V146.274H262.556V42.0391Z" fill="#E6E6E6"/>
<path d="M299.534 42.0391H297.625V146.274H299.534V42.0391Z" fill="#E6E6E6"/>
<path d="M198 295.068C282.809 295.068 351.561 291.054 351.561 286.102C351.561 281.151 282.809 277.137 198 277.137C113.191 277.137 44.4392 281.151 44.4392 286.102C44.4392 291.054 113.191 295.068 198 295.068Z" fill="#F5F5F5"/>
<path d="M318.304 266.294C318.304 266.294 322.066 258.089 317.766 249.995C313.465 241.901 312.222 240 314.962 238.337C317.703 236.674 318.962 244.815 318.962 244.815C320.317 241.139 320.456 237.124 319.358 233.363C317.457 227.51 316.261 217.974 318.859 216.953C321.457 215.931 319.358 228.833 321.623 233.252C322.772 230.159 323.514 226.93 323.833 223.645C324.141 218.941 323.658 211.433 325.71 209.508C327.761 207.583 329.084 208.914 327.064 219.289C325.85 225.492 325.18 231.788 325.06 238.107C325.06 238.107 329.519 224.493 332.521 224.097C335.523 223.701 335.515 228.104 332.949 231.929C330.382 235.755 325.432 242.606 324.625 246.13C324.625 246.13 329.527 235.882 333.931 239.002C338.334 242.122 330.097 248.324 326.422 250.565C322.748 252.807 320.197 266.809 320.197 266.809L318.304 266.294Z" fill="#007AFF"/>
<path opacity="0.2" d="M318.304 266.294C318.304 266.294 322.066 258.089 317.766 249.995C313.465 241.901 312.222 240 314.962 238.337C317.703 236.674 318.962 244.815 318.962 244.815C320.317 241.139 320.456 237.124 319.358 233.363C317.457 227.51 316.261 217.974 318.859 216.953C321.457 215.931 319.358 228.833 321.623 233.252C322.772 230.159 323.514 226.93 323.833 223.645C324.141 218.941 323.658 211.433 325.71 209.508C327.761 207.583 329.084 208.914 327.064 219.289C325.85 225.492 325.18 231.788 325.06 238.107C325.06 238.107 329.519 224.493 332.521 224.097C335.523 223.701 335.515 228.104 332.949 231.929C330.382 235.755 325.432 242.606 324.625 246.13C324.625 246.13 329.527 235.882 333.931 239.002C338.334 242.122 330.097 248.324 326.422 250.565C322.748 252.807 320.197 266.809 320.197 266.809L318.304 266.294Z" fill="black"/>
<path d="M321.275 269.66C321.275 269.66 317.608 261.4 322.003 253.369C326.399 245.338 327.666 243.453 324.95 241.758C322.233 240.063 320.871 248.173 320.871 248.173C319.558 244.483 319.467 240.468 320.609 236.721C322.581 230.892 323.896 221.372 321.306 220.311C318.716 219.25 320.665 232.191 318.352 236.571C317.239 233.462 316.534 230.222 316.253 226.932C316 222.228 316.578 214.727 314.543 212.771C312.507 210.815 311.177 212.13 313.077 222.536C314.216 228.751 314.809 235.053 314.852 241.37C314.852 241.37 310.551 227.692 307.565 227.257C304.579 226.821 304.524 231.217 307.042 235.082C309.561 238.947 314.424 245.869 315.216 249.401C315.216 249.401 310.464 239.105 305.997 242.162C301.53 245.219 309.719 251.539 313.363 253.836C317.006 256.133 319.398 270.175 319.398 270.175L321.275 269.66Z" fill="#007AFF"/>
<path d="M304.373 263.768H334.636L332.188 285.429H306.821L304.373 263.768Z" fill="#263238"/>
<path d="M192.139 281.952V284.795C192.139 284.879 192.122 284.963 192.09 285.041C192.058 285.118 192.011 285.189 191.951 285.249C191.892 285.308 191.821 285.356 191.743 285.388C191.665 285.42 191.582 285.437 191.498 285.437H111.173C110.488 285.437 109.813 285.269 109.208 284.948C108.603 284.626 108.086 284.162 107.702 283.594C107.318 283.027 107.08 282.374 107.007 281.692C106.934 281.011 107.029 280.323 107.284 279.687L132.739 216.644L173.876 216.921L172.474 225.102L163.397 278.047C163.33 278.449 163.35 278.86 163.457 279.253C163.564 279.645 163.756 280.01 164.018 280.321C164.28 280.632 164.607 280.883 164.976 281.055C165.345 281.227 165.747 281.317 166.154 281.318H191.498C191.581 281.317 191.665 281.333 191.742 281.364C191.82 281.396 191.891 281.442 191.951 281.501C192.01 281.56 192.058 281.63 192.09 281.708C192.122 281.785 192.139 281.868 192.139 281.952Z" fill="#263238"/>
<path opacity="0.5" d="M192.139 281.952V284.795C192.139 284.879 192.122 284.963 192.09 285.041C192.058 285.118 192.011 285.189 191.951 285.249C191.892 285.308 191.821 285.356 191.743 285.388C191.665 285.42 191.582 285.437 191.498 285.437H111.173C110.488 285.437 109.813 285.269 109.208 284.948C108.603 284.626 108.086 284.162 107.702 283.594C107.318 283.027 107.08 282.374 107.007 281.692C106.934 281.011 107.029 280.323 107.284 279.687L123.069 240.602L132.739 216.644L173.876 216.921L172.474 225.102L168.514 248.126L163.39 278.047C163.322 278.449 163.342 278.86 163.449 279.253C163.556 279.645 163.748 280.01 164.01 280.321C164.272 280.632 164.599 280.883 164.968 281.055C165.337 281.227 165.739 281.317 166.146 281.318H191.49C191.574 281.316 191.658 281.331 191.737 281.362C191.816 281.393 191.887 281.439 191.948 281.498C192.008 281.557 192.057 281.628 192.089 281.706C192.122 281.784 192.139 281.867 192.139 281.952Z" fill="white"/>
<path opacity="0.2" d="M166.153 281.31H113.882C113.58 281.309 113.284 281.234 113.019 281.092C112.753 280.95 112.527 280.744 112.359 280.494C112.192 280.244 112.089 279.956 112.059 279.656C112.028 279.357 112.072 279.054 112.187 278.775L134.505 225.094H172.466L163.389 278.039C163.321 278.441 163.342 278.853 163.45 279.246C163.557 279.639 163.749 280.004 164.012 280.316C164.276 280.627 164.603 280.877 164.973 281.049C165.343 281.221 165.746 281.31 166.153 281.31Z" fill="black"/>
<path opacity="0.1" d="M173.876 216.912L172.474 225.093L168.522 248.117L123.069 240.601L132.739 216.635L173.876 216.912Z" fill="black"/>
<path d="M253.86 99.3955H63.4233C62.7836 99.3955 62.1503 99.5215 61.5593 99.7663C60.9684 100.011 60.4314 100.37 59.9791 100.822C59.5268 101.274 59.168 101.811 58.9233 102.402C58.6785 102.993 58.5525 103.627 58.5525 104.266V233.196C58.5525 234.488 59.0657 235.727 59.9791 236.64C60.8926 237.554 62.1315 238.067 63.4233 238.067H253.86C255.152 238.067 256.392 237.554 257.307 236.641C258.221 235.727 258.736 234.488 258.738 233.196V104.266C258.736 102.974 258.221 101.735 257.307 100.822C256.392 99.9084 255.152 99.3955 253.86 99.3955Z" fill="#263238"/>
<path opacity="0.6" d="M253.86 99.3955H63.4233C62.7836 99.3955 62.1503 99.5215 61.5593 99.7663C60.9684 100.011 60.4314 100.37 59.9791 100.822C59.5268 101.274 59.168 101.811 58.9233 102.402C58.6785 102.993 58.5525 103.627 58.5525 104.266V233.196C58.5525 234.488 59.0657 235.727 59.9791 236.64C60.8926 237.554 62.1315 238.067 63.4233 238.067H253.86C255.152 238.067 256.392 237.554 257.307 236.641C258.221 235.727 258.736 234.488 258.738 233.196V104.266C258.736 102.974 258.221 101.735 257.307 100.822C256.392 99.9084 255.152 99.3955 253.86 99.3955Z" fill="white"/>
<path opacity="0.2" d="M67.4625 238.059H63.4233C62.1328 238.059 60.8951 237.547 59.9819 236.635C59.0687 235.723 58.5546 234.486 58.5525 233.196V104.274C58.5515 103.634 58.6767 103 58.921 102.408C59.1653 101.816 59.5239 101.278 59.9763 100.825C60.4287 100.372 60.966 100.012 61.5575 99.7671C62.149 99.5218 62.783 99.3956 63.4233 99.3956H67.4625C66.8202 99.3924 66.1836 99.5164 65.5894 99.7602C64.9952 100.004 64.4551 100.363 64.0001 100.817C63.5452 101.27 63.1845 101.809 62.9387 102.402C62.6929 102.996 62.5669 103.632 62.5679 104.274V233.196C62.5679 233.837 62.6947 234.472 62.9411 235.064C63.1875 235.656 63.5485 236.194 64.0034 236.646C64.4583 237.098 64.9982 237.455 65.5918 237.698C66.1855 237.94 66.8212 238.063 67.4625 238.059Z" fill="black"/>
<path d="M254.351 103.585H66.9873V227.905H254.351V103.585Z" fill="#007AFF"/>
<path opacity="0.4" d="M158.083 150.907C167.067 150.907 174.351 143.624 174.351 134.64C174.351 125.655 167.067 118.372 158.083 118.372C149.099 118.372 141.815 125.655 141.815 134.64C141.815 143.624 149.099 150.907 158.083 150.907Z" fill="white"/>
<path d="M154.202 132.169V130.68C154.202 129.97 154.484 129.289 154.986 128.787C155.488 128.285 156.169 128.003 156.879 128.003H159.255C159.609 127.999 159.961 128.065 160.289 128.198C160.618 128.33 160.917 128.527 161.169 128.776C161.421 129.025 161.621 129.321 161.757 129.648C161.894 129.975 161.964 130.326 161.964 130.68V132.201H163.698V130.68C163.696 129.511 163.231 128.39 162.404 127.563C161.577 126.736 160.456 126.271 159.287 126.269H156.911C155.742 126.271 154.621 126.736 153.794 127.563C152.967 128.39 152.502 129.511 152.5 130.68V132.201L154.202 132.169Z" fill="white"/>
<path d="M150.282 134.172V142.163C150.282 142.28 150.305 142.395 150.35 142.503C150.394 142.611 150.459 142.708 150.542 142.791C150.624 142.873 150.722 142.938 150.83 142.983C150.937 143.028 151.053 143.051 151.169 143.051H164.997C165.114 143.051 165.229 143.028 165.337 142.983C165.444 142.938 165.542 142.873 165.625 142.791C165.707 142.708 165.772 142.611 165.817 142.503C165.861 142.395 165.884 142.28 165.884 142.163V134.172C165.884 133.937 165.791 133.711 165.625 133.545C165.458 133.379 165.233 133.285 164.997 133.285H151.169C151.053 133.285 150.937 133.308 150.83 133.353C150.722 133.397 150.624 133.463 150.542 133.545C150.459 133.627 150.394 133.725 150.35 133.833C150.305 133.94 150.282 134.056 150.282 134.172ZM158.582 138.695V140.279H157.608V138.695C157.466 138.615 157.346 138.501 157.26 138.362C157.174 138.224 157.125 138.065 157.117 137.903C157.117 137.64 157.221 137.388 157.407 137.202C157.593 137.017 157.844 136.913 158.107 136.913C158.37 136.913 158.621 137.017 158.807 137.202C158.993 137.388 159.097 137.64 159.097 137.903C159.087 138.068 159.034 138.228 158.944 138.366C158.854 138.505 158.729 138.618 158.582 138.695Z" fill="white"/>
<path d="M118.396 164.379H103.031C102.117 164.379 101.376 165.12 101.376 166.034V181.399C101.376 182.313 102.117 183.054 103.031 183.054H118.396C119.31 183.054 120.051 182.313 120.051 181.399V166.034C120.051 165.12 119.31 164.379 118.396 164.379Z" fill="white"/>
<path d="M142.085 164.355H126.72C125.806 164.355 125.065 165.097 125.065 166.011V181.376C125.065 182.29 125.806 183.031 126.72 183.031H142.085C142.999 183.031 143.74 182.29 143.74 181.376V166.011C143.74 165.097 142.999 164.355 142.085 164.355Z" fill="white"/>
<path d="M165.765 164.332H150.401C149.486 164.332 148.745 165.073 148.745 165.987V181.352C148.745 182.266 149.486 183.007 150.401 183.007H165.765C166.68 183.007 167.421 182.266 167.421 181.352V165.987C167.421 165.073 166.68 164.332 165.765 164.332Z" fill="white"/>
<path d="M189.446 164.3H174.082C173.167 164.3 172.426 165.041 172.426 165.955V181.32C172.426 182.234 173.167 182.975 174.082 182.975H189.446C190.361 182.975 191.102 182.234 191.102 181.32V165.955C191.102 165.041 190.361 164.3 189.446 164.3Z" fill="white"/>
<path d="M213.127 164.276H197.762C196.848 164.276 196.107 165.017 196.107 165.932V181.296C196.107 182.211 196.848 182.952 197.762 182.952H213.127C214.041 182.952 214.782 182.211 214.782 181.296V165.932C214.782 165.017 214.041 164.276 213.127 164.276Z" fill="white"/>
<path d="M201.334 173.978C201.334 170.691 203.092 168.822 205.453 168.822C207.813 168.822 209.563 170.691 209.563 173.978C209.563 177.265 207.805 179.134 205.453 179.134C203.1 179.134 201.334 177.265 201.334 173.978ZM208.122 173.978C208.122 171.396 207.021 170.105 205.453 170.105C203.884 170.105 202.776 171.396 202.776 173.978C202.776 176.56 203.869 177.851 205.453 177.851C207.037 177.851 208.122 176.552 208.122 173.978Z" fill="#263238"/>
<path d="M114.468 173.852C114.468 177.289 112.519 179.134 109.716 179.134C108.841 179.165 107.973 178.96 107.205 178.54L107.712 177.408C108.3 177.748 108.974 177.913 109.652 177.883C111.696 177.883 112.995 176.6 112.995 174.073V173.717C112.657 174.159 112.214 174.511 111.707 174.741C111.2 174.97 110.643 175.07 110.088 175.032C108.084 175.032 106.643 173.836 106.643 171.982C106.643 170.129 108.227 168.814 110.199 168.814C112.939 168.822 114.468 170.636 114.468 173.852ZM112.694 171.935C112.694 170.897 111.902 169.987 110.318 169.987C110.04 169.953 109.759 169.979 109.493 170.061C109.226 170.144 108.98 170.283 108.77 170.467C108.561 170.652 108.393 170.879 108.277 171.133C108.162 171.388 108.101 171.664 108.1 171.943C108.1 173.131 108.979 173.891 110.397 173.891C111.815 173.891 112.694 173.044 112.694 171.935Z" fill="#263238"/>
<path d="M130.284 173.978C130.284 170.691 132.042 168.822 134.402 168.822C136.762 168.822 138.513 170.691 138.513 173.978C138.513 177.265 136.755 179.134 134.402 179.134C132.05 179.134 130.284 177.265 130.284 173.978ZM137.071 173.978C137.071 171.396 135.978 170.105 134.402 170.105C132.826 170.105 131.725 171.396 131.725 173.978C131.725 176.56 132.818 177.851 134.402 177.851C135.986 177.851 137.071 176.56 137.071 173.978Z" fill="#263238"/>
<path d="M161.726 177.764V178.992H154.479V178.041L158.582 174.081C159.651 173.044 159.849 172.41 159.849 171.777C159.849 170.739 159.12 170.105 157.703 170.105C157.219 170.078 156.735 170.163 156.289 170.352C155.842 170.542 155.446 170.831 155.129 171.198L154.147 170.351C154.61 169.838 155.182 169.435 155.82 169.171C156.458 168.906 157.147 168.787 157.837 168.822C159.936 168.822 161.291 169.899 161.291 171.626C161.291 172.608 161.005 173.487 159.635 174.794L156.554 177.756L161.726 177.764Z" fill="#263238"/>
<path d="M182.952 168.934V178.992H181.526V170.193H179.245V168.934H182.952Z" fill="#263238"/>
<g opacity="0.6">
<path d="M140.366 159.817V160.173H137.618V156.284H140.279V156.641H138.03V158.027H140.034V158.399H138.03V159.84L140.366 159.817Z" fill="white"/>
<path d="M143.93 158.478V160.173H143.534V158.518C143.558 158.395 143.552 158.268 143.517 158.148C143.482 158.027 143.419 157.917 143.333 157.826C143.247 157.735 143.141 157.665 143.023 157.623C142.906 157.581 142.779 157.567 142.655 157.583C142.516 157.573 142.376 157.594 142.245 157.644C142.114 157.693 141.996 157.771 141.899 157.872C141.802 157.972 141.727 158.092 141.681 158.225C141.636 158.357 141.619 158.497 141.633 158.636V160.173H141.245V157.25H141.618V157.789C141.737 157.606 141.902 157.459 142.097 157.361C142.292 157.264 142.509 157.22 142.726 157.234C142.891 157.22 143.058 157.243 143.213 157.301C143.368 157.359 143.508 157.451 143.624 157.57C143.739 157.689 143.826 157.833 143.879 157.99C143.932 158.147 143.95 158.313 143.93 158.478Z" fill="white"/>
<path d="M146.52 159.983C146.346 160.124 146.126 160.197 145.902 160.189C145.788 160.198 145.673 160.183 145.566 160.144C145.458 160.105 145.361 160.043 145.279 159.962C145.198 159.882 145.135 159.784 145.095 159.677C145.055 159.57 145.038 159.455 145.047 159.341V157.607H144.524V157.274H145.047V156.641H145.443V157.274H146.33V157.607H145.443V159.349C145.443 159.698 145.617 159.88 145.942 159.88C146.099 159.885 146.253 159.834 146.377 159.737L146.52 159.983Z" fill="white"/>
<path d="M149.688 158.834H147.249C147.267 159.121 147.398 159.389 147.613 159.579C147.829 159.769 148.11 159.866 148.397 159.848C148.565 159.854 148.732 159.822 148.886 159.757C149.041 159.691 149.179 159.593 149.292 159.468L149.514 159.722C149.298 159.924 149.029 160.062 148.738 160.12C148.448 160.178 148.147 160.153 147.87 160.048C147.592 159.944 147.35 159.763 147.17 159.528C146.991 159.292 146.88 159.011 146.853 158.716C146.842 158.523 146.871 158.33 146.938 158.149C147.005 157.968 147.108 157.803 147.242 157.664C147.376 157.525 147.537 157.415 147.715 157.341C147.894 157.267 148.085 157.231 148.278 157.235C148.47 157.231 148.661 157.267 148.839 157.341C149.016 157.415 149.177 157.525 149.309 157.665C149.442 157.804 149.544 157.969 149.609 158.15C149.674 158.331 149.701 158.524 149.688 158.716C149.688 158.716 149.688 158.787 149.688 158.834ZM147.249 158.541H149.316C149.293 158.283 149.174 158.042 148.983 157.867C148.792 157.692 148.542 157.594 148.282 157.594C148.023 157.594 147.773 157.692 147.581 157.867C147.39 158.042 147.271 158.283 147.249 158.541Z" fill="white"/>
<path d="M151.961 157.235V157.607H151.866C151.727 157.6 151.588 157.624 151.459 157.677C151.33 157.73 151.214 157.811 151.12 157.914C151.026 158.017 150.956 158.139 150.915 158.272C150.875 158.406 150.864 158.547 150.884 158.684V160.173H150.48V157.251H150.86V157.821C150.962 157.623 151.122 157.46 151.319 157.356C151.516 157.251 151.74 157.209 151.961 157.235Z" fill="white"/>
<path d="M156.618 157.251L155.161 160.522C154.915 161.092 154.606 161.274 154.187 161.274C154.057 161.279 153.928 161.258 153.807 161.211C153.686 161.165 153.575 161.095 153.482 161.005L153.664 160.712C153.731 160.785 153.814 160.842 153.905 160.88C153.997 160.918 154.095 160.937 154.194 160.934C154.456 160.934 154.63 160.815 154.796 160.451L154.923 160.166L153.648 157.251H154.06L155.153 159.73L156.254 157.251H156.618Z" fill="white"/>
<path d="M156.816 158.716C156.814 158.421 156.9 158.132 157.063 157.886C157.226 157.64 157.458 157.448 157.73 157.334C158.002 157.22 158.301 157.19 158.591 157.246C158.88 157.303 159.146 157.444 159.355 157.652C159.564 157.86 159.707 158.125 159.765 158.414C159.823 158.703 159.794 159.003 159.681 159.276C159.569 159.548 159.378 159.781 159.133 159.945C158.888 160.109 158.6 160.197 158.305 160.197C158.108 160.204 157.912 160.171 157.728 160.1C157.544 160.028 157.377 159.92 157.238 159.781C157.098 159.642 156.988 159.475 156.916 159.292C156.843 159.109 156.809 158.913 156.816 158.716ZM159.382 158.716C159.373 158.503 159.301 158.298 159.176 158.126C159.051 157.953 158.878 157.822 158.679 157.747C158.479 157.672 158.262 157.658 158.055 157.706C157.847 157.753 157.659 157.861 157.512 158.015C157.365 158.17 157.267 158.364 157.23 158.573C157.193 158.783 157.218 158.999 157.302 159.194C157.387 159.389 157.527 159.556 157.705 159.672C157.884 159.788 158.092 159.85 158.305 159.848C158.45 159.847 158.593 159.817 158.726 159.759C158.858 159.701 158.978 159.616 159.077 159.51C159.175 159.404 159.251 159.278 159.3 159.142C159.348 159.005 159.368 158.86 159.358 158.716H159.382Z" fill="white"/>
<path d="M163.192 157.251V160.173H162.819V159.635C162.711 159.815 162.556 159.962 162.37 160.061C162.185 160.16 161.976 160.207 161.766 160.197C161.599 160.214 161.43 160.193 161.271 160.135C161.113 160.078 160.97 159.986 160.852 159.866C160.735 159.746 160.645 159.601 160.591 159.441C160.536 159.282 160.519 159.113 160.538 158.946V157.251H160.926V158.906C160.903 159.029 160.909 159.156 160.944 159.276C160.979 159.397 161.042 159.507 161.127 159.598C161.213 159.689 161.319 159.759 161.437 159.801C161.555 159.843 161.681 159.857 161.806 159.841C161.943 159.849 162.081 159.826 162.209 159.775C162.337 159.724 162.452 159.646 162.547 159.545C162.641 159.445 162.712 159.325 162.755 159.194C162.798 159.063 162.812 158.924 162.796 158.787V157.251H163.192Z" fill="white"/>
<path d="M165.766 157.235V157.607H165.671C165.531 157.6 165.392 157.624 165.263 157.677C165.134 157.73 165.019 157.811 164.925 157.914C164.831 158.017 164.761 158.139 164.72 158.273C164.679 158.406 164.668 158.547 164.688 158.685V160.174H164.292V157.251H164.673V157.821C164.774 157.624 164.933 157.463 165.128 157.358C165.323 157.254 165.545 157.211 165.766 157.235Z" fill="white"/>
<path d="M167.706 158.233C167.692 157.826 167.8 157.424 168.015 157.079C168.231 156.734 168.545 156.461 168.917 156.295C169.289 156.129 169.702 156.079 170.103 156.149C170.504 156.22 170.874 156.409 171.167 156.691C171.46 156.974 171.662 157.338 171.747 157.736C171.832 158.134 171.795 158.549 171.643 158.926C171.491 159.304 171.229 159.627 170.892 159.855C170.554 160.083 170.157 160.205 169.749 160.205C169.484 160.216 169.22 160.172 168.972 160.078C168.724 159.984 168.497 159.84 168.306 159.656C168.115 159.471 167.964 159.25 167.86 159.006C167.757 158.761 167.705 158.498 167.706 158.233ZM171.373 158.233C171.382 157.906 171.294 157.584 171.118 157.309C170.942 157.033 170.688 156.817 170.388 156.688C170.088 156.558 169.756 156.522 169.435 156.584C169.115 156.645 168.82 156.801 168.589 157.032C168.358 157.263 168.201 157.558 168.14 157.879C168.078 158.2 168.115 158.532 168.244 158.832C168.373 159.132 168.59 159.386 168.865 159.562C169.141 159.737 169.462 159.826 169.789 159.817C170.209 159.817 170.612 159.65 170.909 159.353C171.206 159.056 171.373 158.653 171.373 158.233Z" fill="white"/>
<path d="M173.401 156.641H172.038V156.284H175.206V156.641H173.836V160.173H173.424L173.401 156.641Z" fill="white"/>
<path d="M178.873 157.607C178.873 158.399 178.271 158.93 177.289 158.93H176.252V160.157H175.824V156.269H177.273C178.271 156.284 178.873 156.815 178.873 157.607ZM178.461 157.607C178.461 156.981 178.049 156.625 177.273 156.625H176.244V158.565H177.273C178.049 158.581 178.461 158.233 178.461 157.607Z" fill="white"/>
</g>
<g opacity="0.6">
<path d="M142.679 193.161L142.837 192.852C143.193 193.161 143.649 193.327 144.12 193.32C144.841 193.32 145.158 193.019 145.158 192.63C145.158 191.569 142.782 192.219 142.782 190.785C142.782 190.215 143.225 189.724 144.207 189.724C144.633 189.718 145.051 189.836 145.411 190.064L145.276 190.389C144.957 190.185 144.586 190.075 144.207 190.072C143.502 190.072 143.186 190.389 143.186 190.777C143.186 191.838 145.562 191.197 145.562 192.607C145.562 193.185 145.11 193.668 144.12 193.668C143.593 193.688 143.078 193.507 142.679 193.161Z" fill="white"/>
<path d="M148.896 192.298H146.457C146.475 192.584 146.606 192.852 146.821 193.042C147.037 193.232 147.318 193.329 147.605 193.311C147.773 193.317 147.94 193.286 148.094 193.22C148.249 193.154 148.387 193.056 148.5 192.931L148.722 193.185C148.582 193.344 148.409 193.47 148.214 193.554C148.02 193.637 147.809 193.676 147.597 193.668C147.396 193.68 147.195 193.65 147.006 193.58C146.817 193.51 146.645 193.402 146.501 193.262C146.356 193.122 146.242 192.953 146.167 192.767C146.091 192.58 146.055 192.38 146.061 192.179C146.051 191.986 146.081 191.794 146.148 191.614C146.216 191.433 146.319 191.268 146.453 191.13C146.587 190.991 146.747 190.881 146.925 190.807C147.103 190.732 147.294 190.695 147.486 190.698C147.679 190.693 147.871 190.728 148.049 190.802C148.228 190.875 148.389 190.985 148.522 191.125C148.656 191.264 148.759 191.43 148.824 191.612C148.89 191.793 148.917 191.986 148.904 192.179C148.904 192.179 148.896 192.258 148.896 192.298ZM146.457 192.005H148.524C148.501 191.746 148.382 191.505 148.191 191.33C148 191.155 147.75 191.058 147.49 191.058C147.231 191.058 146.981 191.155 146.789 191.33C146.598 191.505 146.479 191.746 146.457 192.005Z" fill="white"/>
<path d="M152.405 191.941V193.636H152.016V191.981C152.039 191.858 152.032 191.732 151.996 191.613C151.96 191.494 151.897 191.385 151.812 191.295C151.726 191.205 151.62 191.136 151.503 191.094C151.386 191.052 151.261 191.038 151.137 191.054C150.998 191.044 150.858 191.065 150.727 191.115C150.597 191.165 150.478 191.242 150.381 191.343C150.284 191.443 150.21 191.564 150.164 191.696C150.118 191.828 150.101 191.968 150.116 192.108V193.636H149.688V190.722H150.068V191.26C150.186 191.076 150.351 190.927 150.546 190.828C150.741 190.729 150.959 190.684 151.177 190.698C151.344 190.68 151.513 190.7 151.671 190.756C151.829 190.813 151.972 190.904 152.09 191.024C152.208 191.143 152.298 191.288 152.352 191.447C152.407 191.605 152.425 191.774 152.405 191.941Z" fill="white"/>
<path d="M156.151 189.518V193.636H155.77V193.058C155.655 193.251 155.489 193.409 155.291 193.516C155.094 193.623 154.871 193.676 154.646 193.668C154.271 193.64 153.92 193.472 153.664 193.196C153.408 192.921 153.265 192.559 153.265 192.183C153.265 191.807 153.408 191.444 153.664 191.169C153.92 190.893 154.271 190.725 154.646 190.698C154.865 190.69 155.082 190.739 155.276 190.84C155.471 190.942 155.636 191.092 155.755 191.276V189.518H156.151ZM155.763 192.179C155.753 191.966 155.682 191.761 155.557 191.589C155.432 191.417 155.26 191.286 155.061 191.211C154.862 191.136 154.645 191.121 154.438 191.168C154.231 191.215 154.042 191.322 153.895 191.476C153.748 191.629 153.649 191.822 153.611 192.031C153.573 192.24 153.597 192.456 153.68 192.652C153.764 192.847 153.903 193.014 154.08 193.131C154.257 193.248 154.465 193.311 154.677 193.311C154.825 193.314 154.971 193.286 155.107 193.229C155.243 193.172 155.365 193.088 155.467 192.982C155.569 192.876 155.648 192.749 155.699 192.611C155.75 192.473 155.771 192.326 155.763 192.179Z" fill="white"/>
<path d="M160.903 191.83V193.636H160.522V193.184C160.412 193.347 160.261 193.477 160.085 193.562C159.908 193.647 159.712 193.683 159.517 193.667C158.859 193.667 158.455 193.319 158.455 192.812C158.455 192.305 158.74 192.02 159.58 192.02H160.507V191.846C160.518 191.739 160.505 191.631 160.469 191.53C160.433 191.429 160.375 191.337 160.299 191.261C160.224 191.185 160.132 191.127 160.03 191.091C159.929 191.055 159.821 191.043 159.715 191.054C159.358 191.048 159.012 191.172 158.74 191.402L158.566 191.109C158.901 190.842 159.319 190.702 159.746 190.713C159.899 190.695 160.054 190.711 160.2 190.76C160.346 190.809 160.479 190.89 160.589 190.997C160.7 191.104 160.786 191.234 160.84 191.378C160.894 191.522 160.915 191.677 160.903 191.83ZM160.507 192.757V192.281H159.588C159.026 192.281 158.843 192.503 158.843 192.804C158.843 193.105 159.113 193.351 159.58 193.351C159.778 193.364 159.974 193.313 160.141 193.206C160.308 193.099 160.436 192.942 160.507 192.757Z" fill="white"/>
<path d="M164.681 190.722V193.248C164.712 193.446 164.695 193.649 164.633 193.84C164.571 194.032 164.465 194.205 164.322 194.347C164.18 194.489 164.007 194.596 163.816 194.658C163.625 194.72 163.422 194.736 163.223 194.705C162.731 194.725 162.248 194.567 161.861 194.262L162.059 193.961C162.384 194.223 162.79 194.363 163.207 194.357C163.952 194.357 164.285 194.024 164.285 193.303V192.931C164.159 193.114 163.99 193.261 163.791 193.359C163.593 193.458 163.373 193.504 163.152 193.494C162.957 193.508 162.762 193.482 162.578 193.418C162.394 193.353 162.225 193.252 162.082 193.119C161.939 192.986 161.825 192.826 161.747 192.647C161.669 192.468 161.628 192.275 161.628 192.08C161.628 191.885 161.669 191.692 161.747 191.513C161.825 191.334 161.939 191.173 162.082 191.041C162.225 190.908 162.394 190.806 162.578 190.742C162.762 190.677 162.957 190.651 163.152 190.666C163.377 190.655 163.601 190.703 163.802 190.804C164.003 190.905 164.175 191.057 164.3 191.244V190.69L164.681 190.722ZM164.3 192.108C164.308 191.887 164.25 191.669 164.133 191.481C164.016 191.294 163.846 191.145 163.644 191.055C163.442 190.965 163.218 190.938 163.001 190.976C162.783 191.014 162.582 191.116 162.423 191.27C162.264 191.423 162.154 191.621 162.108 191.837C162.062 192.053 162.081 192.278 162.164 192.483C162.247 192.688 162.389 192.863 162.572 192.987C162.755 193.11 162.971 193.177 163.192 193.177C163.336 193.186 163.481 193.164 163.617 193.114C163.753 193.064 163.877 192.986 163.981 192.886C164.085 192.785 164.167 192.664 164.222 192.53C164.277 192.396 164.304 192.252 164.3 192.108Z" fill="white"/>
<path d="M167.983 191.83V193.636H167.611V193.184C167.5 193.346 167.349 193.476 167.173 193.561C166.996 193.645 166.8 193.682 166.605 193.668C165.94 193.668 165.536 193.319 165.536 192.812C165.536 192.305 165.829 192.02 166.668 192.02H167.587V191.846C167.587 191.347 167.31 191.054 166.795 191.054C166.442 191.05 166.098 191.173 165.829 191.402L165.647 191.109C165.984 190.842 166.405 190.702 166.835 190.713C166.987 190.696 167.141 190.713 167.286 190.763C167.431 190.813 167.563 190.894 167.672 191.001C167.782 191.107 167.867 191.237 167.921 191.381C167.974 191.524 167.996 191.677 167.983 191.83ZM167.587 192.757V192.282H166.676C166.106 192.282 165.924 192.503 165.924 192.804C165.924 193.105 166.201 193.351 166.668 193.351C166.865 193.365 167.061 193.314 167.227 193.207C167.393 193.1 167.519 192.942 167.587 192.757Z" fill="white"/>
<path d="M168.965 189.795C168.976 189.726 169.012 189.664 169.065 189.619C169.118 189.574 169.185 189.55 169.254 189.55C169.324 189.55 169.391 189.574 169.444 189.619C169.497 189.664 169.532 189.726 169.543 189.795C169.532 189.863 169.497 189.925 169.444 189.97C169.391 190.015 169.324 190.04 169.254 190.04C169.185 190.04 169.118 190.015 169.065 189.97C169.012 189.925 168.976 189.863 168.965 189.795ZM169.052 190.721H169.448V193.636H169.052V190.721Z" fill="white"/>
<path d="M173.226 191.941V193.636H172.838V191.981C172.86 191.858 172.853 191.732 172.818 191.613C172.782 191.494 172.719 191.385 172.633 191.295C172.548 191.204 172.442 191.136 172.325 191.094C172.208 191.052 172.082 191.038 171.959 191.054C171.819 191.044 171.679 191.065 171.549 191.115C171.418 191.165 171.3 191.242 171.203 191.343C171.105 191.443 171.031 191.564 170.985 191.696C170.939 191.828 170.923 191.968 170.937 192.107V193.636H170.549V190.721H170.921V191.26C171.039 191.076 171.204 190.927 171.399 190.828C171.594 190.729 171.812 190.684 172.03 190.698C172.195 190.685 172.36 190.709 172.514 190.767C172.668 190.826 172.807 190.918 172.922 191.037C173.036 191.156 173.123 191.299 173.175 191.455C173.228 191.611 173.245 191.777 173.226 191.941Z" fill="white"/>
</g>
<path opacity="0.4" d="M180.148 213.435H136.01C134.266 213.433 132.594 212.739 131.361 211.505C130.129 210.271 129.437 208.598 129.437 206.854C129.437 205.11 130.129 203.437 131.361 202.203C132.594 200.969 134.266 200.275 136.01 200.272H180.148C181.894 200.272 183.568 200.966 184.802 202.2C186.036 203.434 186.73 205.108 186.73 206.854C186.73 208.6 186.036 210.274 184.802 211.508C183.568 212.742 181.894 213.435 180.148 213.435Z" fill="white"/>
<path d="M140.865 206.522C140.861 206.213 140.921 205.908 141.04 205.623C141.16 205.339 141.336 205.082 141.559 204.869C141.782 204.656 142.046 204.491 142.336 204.384C142.625 204.277 142.933 204.231 143.241 204.249C143.556 204.237 143.869 204.294 144.16 204.414C144.451 204.534 144.713 204.716 144.928 204.946L144.516 205.342C144.357 205.17 144.163 205.035 143.947 204.945C143.731 204.855 143.498 204.812 143.265 204.819C142.983 204.822 142.707 204.894 142.461 205.029C142.214 205.165 142.005 205.359 141.852 205.595C141.699 205.831 141.607 206.101 141.584 206.381C141.561 206.662 141.607 206.943 141.72 207.201C141.832 207.459 142.006 207.685 142.227 207.859C142.448 208.033 142.709 208.15 142.986 208.199C143.262 208.247 143.547 208.227 143.814 208.139C144.081 208.051 144.322 207.898 144.516 207.694L144.928 208.09C144.712 208.321 144.448 208.502 144.156 208.622C143.864 208.743 143.549 208.799 143.233 208.787C142.926 208.804 142.619 208.758 142.331 208.652C142.042 208.546 141.779 208.381 141.557 208.169C141.335 207.956 141.159 207.701 141.04 207.417C140.921 207.134 140.861 206.829 140.865 206.522Z" fill="white"/>
<path d="M145.356 206.521C145.333 206.047 145.454 205.577 145.701 205.172C145.948 204.767 146.311 204.445 146.743 204.248C147.175 204.052 147.655 203.988 148.123 204.067C148.591 204.146 149.025 204.363 149.369 204.69C149.712 205.018 149.95 205.441 150.051 205.904C150.152 206.368 150.111 206.851 149.935 207.292C149.759 207.733 149.455 208.11 149.062 208.377C148.67 208.643 148.206 208.786 147.732 208.786C147.425 208.802 147.118 208.756 146.829 208.649C146.541 208.542 146.278 208.378 146.055 208.166C145.833 207.954 145.656 207.698 145.536 207.416C145.415 207.133 145.354 206.828 145.356 206.521ZM149.434 206.521C149.439 206.178 149.342 205.842 149.155 205.555C148.967 205.267 148.699 205.042 148.383 204.908C148.068 204.774 147.72 204.737 147.383 204.802C147.046 204.866 146.736 205.03 146.493 205.271C146.249 205.512 146.083 205.82 146.015 206.157C145.948 206.493 145.982 206.841 146.113 207.158C146.244 207.475 146.467 207.745 146.752 207.935C147.037 208.125 147.373 208.225 147.716 208.224C147.942 208.231 148.168 208.193 148.379 208.11C148.59 208.027 148.781 207.903 148.942 207.743C149.103 207.584 149.23 207.393 149.315 207.183C149.399 206.973 149.44 206.748 149.434 206.521Z" fill="white"/>
<path d="M154.852 204.336V208.771H154.329L151.668 205.461V208.771H151.034V204.336H151.557L154.218 207.639V204.336H154.852Z" fill="white"/>
<path d="M157.061 204.851H155.541V204.336H159.192V204.882H157.687V208.771H157.061V204.851Z" fill="white"/>
<path d="M159.897 204.336H160.53V208.771H159.897V204.336Z" fill="white"/>
<path d="M165.678 204.336V208.771H165.156L162.494 205.461V208.771H161.861V204.336H162.36L165.021 207.639V204.336H165.678Z" fill="white"/>
<path d="M166.969 206.823V204.336H167.603V206.831C167.603 207.813 168.054 208.256 168.854 208.256C169.654 208.256 170.106 207.813 170.106 206.831V204.336H170.723V206.854C170.723 207.352 170.526 207.83 170.174 208.182C169.822 208.534 169.344 208.732 168.846 208.732C168.348 208.732 167.871 208.534 167.519 208.182C167.167 207.83 166.969 207.352 166.969 206.854V206.823Z" fill="white"/>
<path d="M175.238 208.185V208.739H172.022V204.336H175.19V204.882H172.656V206.245H174.873V206.783H172.656V208.217L175.238 208.185Z" fill="white"/>
<path opacity="0.1" d="M234.82 104.163C208.914 130.117 142.378 187.885 66.9873 183.609V104.163H234.82Z" fill="white"/>
<path opacity="0.1" d="M254.343 151.866V228.492H141.546C145.87 213.016 154.519 191.822 171.294 176.679C201.469 149.434 236.491 149.514 254.343 151.866Z" fill="white"/>
<path d="M278.174 91.9434L280.803 103.554L283.433 91.9434H278.174Z" fill="#007AFF"/>
<path opacity="0.7" d="M278.174 91.9434L280.803 103.554L283.433 91.9434H278.174Z" fill="white"/>
<path d="M310.234 59.0674H251.381C247.623 59.0674 244.577 62.1133 244.577 65.8707V87.714C244.577 91.4713 247.623 94.5173 251.381 94.5173H310.234C313.991 94.5173 317.037 91.4713 317.037 87.714V65.8707C317.037 62.1133 313.991 59.0674 310.234 59.0674Z" fill="#007AFF"/>
<path opacity="0.7" d="M310.234 59.0674H251.381C247.623 59.0674 244.577 62.1133 244.577 65.8707V87.714C244.577 91.4713 247.623 94.5173 251.381 94.5173H310.234C313.991 94.5173 317.037 91.4713 317.037 87.714V65.8707C317.037 62.1133 313.991 59.0674 310.234 59.0674Z" fill="white"/>
<g opacity="0.5">
<path d="M259.047 72.0723V73.6009H258.422V72.0723L256.663 69.1895H257.344L258.762 71.5655L260.188 69.1895H260.813L259.047 72.0723Z" fill="#263238"/>
<path d="M260.671 71.9295C260.665 71.582 260.762 71.2405 260.95 70.9486C261.139 70.6566 261.41 70.4273 261.729 70.29C262.048 70.1526 262.401 70.1134 262.743 70.1773C263.084 70.2412 263.399 70.4054 263.647 70.6489C263.895 70.8924 264.065 71.2041 264.135 71.5445C264.205 71.8849 264.173 72.2384 264.041 72.5601C263.91 72.8818 263.685 73.157 263.397 73.3508C263.108 73.5445 262.769 73.6481 262.421 73.6481C262.191 73.6591 261.961 73.6225 261.746 73.5404C261.531 73.4584 261.335 73.3327 261.17 73.1713C261.006 73.0099 260.877 72.8163 260.791 72.6026C260.705 72.3889 260.664 72.1597 260.671 71.9295ZM263.546 71.9295C263.559 71.7733 263.539 71.6161 263.489 71.4679C263.438 71.3196 263.357 71.1835 263.251 71.0682C263.145 70.9528 263.016 70.8608 262.872 70.7978C262.729 70.7348 262.574 70.7023 262.417 70.7023C262.261 70.7023 262.106 70.7348 261.962 70.7978C261.819 70.8608 261.69 70.9528 261.584 71.0682C261.478 71.1835 261.397 71.3196 261.346 71.4679C261.295 71.6161 261.276 71.7733 261.289 71.9295C261.276 72.0856 261.295 72.2428 261.346 72.391C261.397 72.5393 261.478 72.6754 261.584 72.7907C261.69 72.9061 261.819 72.9982 261.962 73.0612C262.106 73.1241 262.261 73.1566 262.417 73.1566C262.574 73.1566 262.729 73.1241 262.872 73.0612C263.016 72.9982 263.145 72.9061 263.251 72.7907C263.357 72.6754 263.438 72.5393 263.489 72.391C263.539 72.2428 263.559 72.0856 263.546 71.9295Z" fill="#263238"/>
<path d="M268.131 70.251V73.6091H267.561V73.1022C267.429 73.2787 267.257 73.4206 267.058 73.5158C266.86 73.611 266.641 73.6566 266.421 73.6487C266.224 73.6689 266.025 73.6447 265.839 73.578C265.653 73.5113 265.484 73.4037 265.345 73.2631C265.206 73.1225 265.1 72.9526 265.036 72.7657C264.971 72.5789 264.949 72.3799 264.971 72.1835V70.251H265.581V72.1201C265.581 72.7775 265.914 73.1022 266.492 73.1022C266.637 73.1116 266.782 73.0888 266.917 73.0354C267.052 72.982 267.174 72.8992 267.273 72.7932C267.372 72.6871 267.447 72.5604 267.491 72.4221C267.535 72.2838 267.549 72.1374 267.53 71.9934V70.251H268.131Z" fill="#263238"/>
<path d="M271.101 70.2195V70.8135H270.959C270.811 70.8039 270.663 70.8272 270.525 70.8819C270.388 70.9366 270.264 71.0212 270.163 71.1297C270.062 71.2381 269.987 71.3676 269.942 71.5088C269.898 71.65 269.885 71.7994 269.905 71.946V73.6172H269.28V70.2512H269.866V70.8214C269.993 70.6135 270.177 70.4464 270.396 70.3397C270.615 70.2331 270.859 70.1913 271.101 70.2195Z" fill="#263238"/>
<path d="M273.327 71.3911C273.306 70.9173 273.428 70.4482 273.676 70.0442C273.925 69.6401 274.288 69.3196 274.72 69.1239C275.152 68.9282 275.633 68.8662 276.1 68.9459C276.568 69.0256 277.001 69.2434 277.343 69.5712C277.686 69.8991 277.923 70.3219 278.023 70.7854C278.123 71.2489 278.083 71.7318 277.906 72.172C277.73 72.6122 277.426 72.9895 277.033 73.2554C276.64 73.5213 276.177 73.6637 275.703 73.6641C275.395 73.6815 275.087 73.6354 274.798 73.5287C274.508 73.422 274.244 73.2569 274.021 73.0437C273.798 72.8305 273.622 72.5738 273.502 72.2895C273.383 72.0052 273.323 71.6994 273.327 71.3911ZM277.406 71.3911C277.41 71.0483 277.313 70.7118 277.126 70.4246C276.939 70.1374 276.67 69.9124 276.355 69.7783C276.039 69.6442 275.691 69.6071 275.354 69.6717C275.018 69.7362 274.708 69.8995 274.464 70.1408C274.221 70.3821 274.054 70.6904 273.987 71.0265C273.919 71.3626 273.953 71.7112 274.084 72.0279C274.215 72.3447 274.438 72.6152 274.723 72.805C275.009 72.9949 275.344 73.0954 275.687 73.0939C275.914 73.1015 276.139 73.0628 276.35 72.9801C276.561 72.8974 276.753 72.7725 276.914 72.6131C277.075 72.4537 277.201 72.263 277.286 72.0529C277.37 71.8428 277.411 71.6175 277.406 71.3911Z" fill="#263238"/>
<path d="M279.829 69.6959H278.309V69.1494H281.952V69.6959H280.431V73.5767H279.805L279.829 69.6959Z" fill="#263238"/>
<path d="M286.244 70.726C286.244 71.6844 285.547 72.2704 284.391 72.2704H283.298V73.6089H282.665V69.1816H284.391C285.547 69.1816 286.244 69.7598 286.244 70.726ZM285.611 70.726C285.611 70.0924 285.183 69.7281 284.375 69.7281H283.298V71.716H284.375C285.183 71.716 285.611 71.3596 285.611 70.726Z" fill="#263238"/>
<path d="M288.581 71.3907C288.602 70.9324 288.756 70.49 289.023 70.1171C289.29 69.7441 289.66 69.4565 290.087 69.289C290.514 69.1215 290.98 69.0813 291.43 69.1731C291.88 69.265 292.293 69.485 292.62 69.8067L292.208 70.2106C292.049 70.0382 291.856 69.9017 291.64 69.8102C291.424 69.7187 291.191 69.6743 290.957 69.68C290.505 69.68 290.072 69.8594 289.753 70.1787C289.433 70.4981 289.254 70.9312 289.254 71.3828C289.254 71.8344 289.433 72.2675 289.753 72.5869C290.072 72.9062 290.505 73.0856 290.957 73.0856C291.191 73.0913 291.424 73.0469 291.64 72.9553C291.856 72.8638 292.049 72.7273 292.208 72.5549L292.62 72.9589C292.293 73.2805 291.88 73.5006 291.43 73.5925C290.98 73.6843 290.514 73.6441 290.087 73.4766C289.66 73.3091 289.29 73.0215 289.023 72.6485C288.756 72.2756 288.602 71.8332 288.581 71.3749V71.3907Z" fill="#263238"/>
<path d="M292.984 71.9295C292.978 71.582 293.075 71.2405 293.264 70.9486C293.452 70.6566 293.723 70.4273 294.043 70.29C294.362 70.1526 294.715 70.1134 295.056 70.1773C295.398 70.2412 295.713 70.4054 295.961 70.6489C296.209 70.8924 296.379 71.2041 296.449 71.5445C296.519 71.8849 296.486 72.2384 296.355 72.5601C296.223 72.8818 295.999 73.157 295.71 73.3508C295.422 73.5445 295.082 73.6481 294.735 73.6481C294.505 73.6591 294.275 73.6225 294.059 73.5404C293.844 73.4584 293.648 73.3327 293.484 73.1713C293.32 73.0099 293.19 72.8163 293.104 72.6026C293.018 72.3889 292.978 72.1597 292.984 71.9295ZM295.859 71.9295C295.872 71.7733 295.853 71.6161 295.802 71.4679C295.751 71.3196 295.67 71.1835 295.564 71.0682C295.458 70.9528 295.329 70.8608 295.186 70.7978C295.042 70.7348 294.887 70.7023 294.731 70.7023C294.574 70.7023 294.419 70.7348 294.276 70.7978C294.132 70.8608 294.003 70.9528 293.897 71.0682C293.791 71.1835 293.71 71.3196 293.659 71.4679C293.608 71.6161 293.589 71.7733 293.602 71.9295C293.589 72.0856 293.608 72.2428 293.659 72.391C293.71 72.5393 293.791 72.6754 293.897 72.7907C294.003 72.9061 294.132 72.9982 294.276 73.0612C294.419 73.1241 294.574 73.1566 294.731 73.1566C294.887 73.1566 295.042 73.1241 295.186 73.0612C295.329 72.9982 295.458 72.9061 295.564 72.7907C295.67 72.6754 295.751 72.5393 295.802 72.391C295.853 72.2428 295.872 72.0856 295.859 71.9295Z" fill="#263238"/>
<path d="M300.485 68.9043V73.6008H299.907V73.0702C299.768 73.255 299.587 73.4034 299.379 73.5027C299.171 73.602 298.941 73.6493 298.711 73.6405C298.276 73.6109 297.869 73.4174 297.571 73.0991C297.274 72.7808 297.109 72.3614 297.109 71.9258C297.109 71.4901 297.274 71.0708 297.571 70.7525C297.869 70.4341 298.276 70.2406 298.711 70.2111C298.934 70.2043 299.157 70.2493 299.36 70.3428C299.563 70.4362 299.742 70.5755 299.883 70.7497V68.9043H300.485ZM299.883 71.9218C299.872 71.7002 299.796 71.4866 299.665 71.3076C299.534 71.1287 299.353 70.9922 299.145 70.9151C298.937 70.8381 298.71 70.8239 298.494 70.8743C298.278 70.9247 298.082 71.0375 297.929 71.1987C297.777 71.3598 297.675 71.5623 297.636 71.7808C297.598 71.9994 297.624 72.2244 297.713 72.428C297.801 72.6316 297.947 72.8047 298.133 72.926C298.319 73.0472 298.536 73.1111 298.758 73.1098C298.912 73.1135 299.064 73.0851 299.206 73.0264C299.348 72.9676 299.476 72.8799 299.582 72.7688C299.688 72.6576 299.769 72.5256 299.821 72.3811C299.873 72.2366 299.894 72.0829 299.883 71.9297V71.9218Z" fill="#263238"/>
<path d="M304.658 72.1354H301.942C301.98 72.4232 302.126 72.6855 302.352 72.8683C302.577 73.051 302.864 73.1402 303.154 73.1175C303.334 73.1239 303.514 73.0912 303.681 73.0214C303.848 72.9517 303.998 72.8467 304.12 72.7135L304.46 73.1016C304.212 73.3531 303.897 73.5274 303.552 73.6034C303.207 73.6794 302.847 73.6539 302.516 73.5299C302.185 73.406 301.897 73.1889 301.687 72.9049C301.477 72.6209 301.354 72.2821 301.332 71.9295C301.323 71.7045 301.361 71.4801 301.442 71.2702C301.524 71.0602 301.647 70.8692 301.805 70.7089C301.963 70.5486 302.153 70.4224 302.361 70.3381C302.57 70.2538 302.794 70.2132 303.019 70.2188C303.246 70.2075 303.473 70.2452 303.685 70.3295C303.896 70.4138 304.086 70.5426 304.244 70.7072C304.401 70.8718 304.52 71.0683 304.595 71.2833C304.669 71.4983 304.696 71.7268 304.674 71.9532C304.673 72.0142 304.667 72.075 304.658 72.1354ZM301.942 71.6998H304.128C304.105 71.4311 303.982 71.1808 303.783 70.9985C303.584 70.8161 303.324 70.7149 303.055 70.7149C302.785 70.7149 302.525 70.8161 302.326 70.9985C302.128 71.1808 302.005 71.4311 301.981 71.6998H301.942Z" fill="#263238"/>
</g>
<g opacity="0.5">
<path d="M271.656 80.5468C271.656 83.0416 270.254 84.3722 268.203 84.3722C267.571 84.3945 266.944 84.2468 266.389 83.9445L266.785 83.1525C267.214 83.3963 267.702 83.5144 268.195 83.493C269.676 83.493 270.618 82.5664 270.618 80.7369V80.4834C270.374 80.8046 270.053 81.0602 269.685 81.2274C269.318 81.3946 268.915 81.4683 268.512 81.4418C268.2 81.4761 267.884 81.4447 267.585 81.3496C267.286 81.2545 267.01 81.0979 266.775 80.8897C266.54 80.6816 266.351 80.4266 266.22 80.1411C266.09 79.8556 266.02 79.546 266.017 79.2321C266.024 78.908 266.098 78.589 266.234 78.2945C266.369 78 266.563 77.7363 266.804 77.5197C267.045 77.3031 267.328 77.1381 267.635 77.0349C267.943 76.9316 268.268 76.8924 268.591 76.9195C270.547 76.9036 271.656 78.2183 271.656 80.5468ZM270.365 79.2004C270.365 78.448 269.763 77.7907 268.623 77.7907C268.423 77.7696 268.222 77.7906 268.031 77.8521C267.841 77.9137 267.665 78.0145 267.516 78.1481C267.367 78.2816 267.247 78.445 267.165 78.6276C267.083 78.8102 267.04 79.0081 267.039 79.2083C267.039 80.0637 267.672 80.6181 268.694 80.6181C268.897 80.6387 269.103 80.6181 269.298 80.5574C269.494 80.4967 269.675 80.3972 269.831 80.2648C269.987 80.1324 270.115 79.9699 270.206 79.787C270.298 79.6041 270.352 79.4046 270.365 79.2004Z" fill="#263238"/>
<path d="M272.654 80.6416C272.654 78.2656 273.929 76.9033 275.64 76.9033C277.35 76.9033 278.61 78.2656 278.61 80.6416C278.61 83.0176 277.335 84.3719 275.64 84.3719C273.945 84.3719 272.654 83.0176 272.654 80.6416ZM277.564 80.6416C277.564 78.7724 276.772 77.8379 275.64 77.8379C274.507 77.8379 273.699 78.7724 273.699 80.6416C273.699 82.5107 274.491 83.4452 275.64 83.4452C276.788 83.4452 277.564 82.5107 277.564 80.6416Z" fill="#263238"/>
<path d="M284.716 83.382V84.2928H279.465V83.58L282.443 80.713C283.235 79.9606 283.354 79.5012 283.354 79.0418C283.354 78.2974 282.823 77.838 281.77 77.838C281.419 77.8174 281.069 77.8782 280.746 78.0156C280.423 78.153 280.137 78.3633 279.909 78.63L279.196 78.0122C279.531 77.6413 279.944 77.3493 280.406 77.1576C280.867 76.9658 281.366 76.879 281.865 76.9034C283.385 76.9034 284.368 77.6954 284.368 78.9389C284.356 79.3874 284.242 79.8273 284.035 80.2253C283.827 80.6233 283.532 80.9688 283.172 81.2357L280.938 83.382H284.716Z" fill="#263238"/>
<path d="M287.836 76.9902V84.2925H286.799V77.901H285.12V76.9902H287.836Z" fill="#263238"/>
<path d="M289.428 80.6416C289.428 78.2656 290.703 76.9033 292.414 76.9033C294.125 76.9033 295.384 78.2656 295.384 80.6416C295.384 83.0176 294.117 84.3719 292.414 84.3719C290.711 84.3719 289.428 83.0176 289.428 80.6416ZM294.347 80.6416C294.347 78.7724 293.555 77.8379 292.414 77.8379C291.274 77.8379 290.474 78.7724 290.474 80.6416C290.474 82.5107 291.266 83.4452 292.414 83.4452C293.562 83.4452 294.347 82.5107 294.347 80.6416Z" fill="#263238"/>
</g>
<path d="M274.293 126C279.021 129.272 284.309 131.648 289.895 133.009H289.951C289.533 132.997 289.121 133.113 288.771 133.342C288.426 133.557 288.151 133.868 287.979 134.237C287.921 134.35 287.889 134.474 287.884 134.601C288.011 132.938 287.29 131.069 286.783 129.271C285.872 126.428 284.803 123.513 283.734 120.654L286.791 119.015C289.317 122.888 297.752 135.148 291.994 138.696C291.007 139.272 289.841 139.458 288.723 139.219C282.449 138.289 276.466 135.956 271.22 132.392C270.856 132.138 270.539 131.916 270.111 131.6L274.309 125.984L274.293 126Z" fill="#DC897C"/>
<path d="M273.406 125.137C276.179 125.471 278.812 126.54 281.033 128.233L277.865 138.038C277.865 138.038 262.469 123.846 273.406 125.137Z" fill="#007AFF"/>
<path opacity="0.6" d="M273.374 133.381C274.784 134.995 276.275 136.536 277.841 137.998L279.148 133.967L281.033 128.194C278.814 126.502 276.184 125.432 273.414 125.097C266.682 124.344 269.897 129.382 273.374 133.381Z" fill="white"/>
<path opacity="0.2" d="M273.374 133.381C274.784 134.995 276.275 136.537 277.841 137.999L279.148 133.967C277.505 132.687 275.481 131.99 273.398 131.987C273.351 132.45 273.343 132.917 273.374 133.381Z" fill="black"/>
<path d="M239.184 110.635C239.184 110.635 231.818 135.123 247.333 138.41C262.849 141.697 264.528 130.427 264.528 130.427C264.528 130.427 251.776 111.134 239.184 110.635Z" fill="#263238"/>
<path d="M235.548 118.745C235.52 118.753 235.49 118.753 235.461 118.745C235.439 118.734 235.419 118.718 235.403 118.7C235.387 118.681 235.374 118.659 235.367 118.635C235.36 118.611 235.357 118.586 235.36 118.562C235.362 118.537 235.37 118.513 235.382 118.491C235.614 118.069 235.94 117.706 236.336 117.431C236.732 117.156 237.186 116.977 237.663 116.907C237.712 116.909 237.76 116.928 237.796 116.962C237.832 116.995 237.855 117.04 237.861 117.089C237.863 117.114 237.86 117.14 237.853 117.163C237.845 117.187 237.833 117.209 237.817 117.229C237.801 117.248 237.781 117.264 237.759 117.275C237.736 117.286 237.712 117.293 237.687 117.295C237.274 117.363 236.882 117.523 236.54 117.765C236.198 118.006 235.916 118.322 235.715 118.689C235.694 118.712 235.668 118.73 235.639 118.739C235.61 118.749 235.579 118.751 235.548 118.745Z" fill="#263238"/>
<path d="M237.766 121.786C237.667 122.741 237.451 123.68 237.125 124.582C237.37 124.728 237.65 124.806 237.936 124.806C238.222 124.806 238.503 124.728 238.748 124.582L237.766 121.786Z" fill="#DE5753"/>
<path d="M236.269 120.717C236.435 121.152 236.808 121.413 237.061 121.303C237.315 121.192 237.457 120.756 237.291 120.321C237.124 119.885 236.752 119.624 236.499 119.734C236.245 119.845 236.111 120.281 236.269 120.717Z" fill="#263238"/>
<path d="M236.626 119.711H235.541C235.541 119.711 236.317 120.313 236.626 119.711Z" fill="#263238"/>
<path d="M252.038 124.827C252.011 124.898 251.973 124.965 251.927 125.025C251.856 125.16 251.777 125.287 251.697 125.421C251.233 126.256 250.615 126.995 249.876 127.599C247.5 129.492 245.433 130.063 243.635 129.516L243.374 129.429C240.705 128.344 238.622 125.152 236.966 120.931C236.232 119.279 235.769 117.519 235.596 115.719C235.596 115.719 235.596 115.656 235.596 115.64C235.596 115.624 235.596 115.498 235.596 115.434C235.534 114.403 235.731 113.372 236.168 112.436C236.605 111.5 237.268 110.687 238.099 110.072C238.809 109.515 239.579 109.04 240.396 108.655C248.308 104.798 256.006 117.359 252.038 124.827Z" fill="#E4897B"/>
<path opacity="0.2" d="M251.697 125.422C251.233 126.256 250.615 126.995 249.876 127.6C247.5 129.492 245.433 130.063 243.635 129.516C245.383 129.092 246.957 128.138 248.141 126.784C248.598 126.31 249.154 125.943 249.768 125.708C250.382 125.472 251.041 125.375 251.697 125.422Z" fill="black"/>
<path d="M235.556 115.672C235.556 115.672 237.766 121.486 244.221 121.383C244.221 121.383 249.258 126.135 252.656 124.622C257.289 122.571 258.239 114.144 253.519 108.259C247.389 100.624 234.02 106.129 235.556 115.672Z" fill="#263238"/>
<path d="M240.768 121.049C240.356 120.17 240.364 118.372 241.813 117.929C243.262 117.485 245.773 120.566 242.653 122.974C242.209 123.322 241.623 122.871 240.768 121.049Z" fill="#E4897B"/>
<path d="M242.502 105.091C242.502 105.091 236.515 106.271 234.582 109.843C232.317 113.993 232.206 117.208 238.226 119.347C238.226 119.347 245.837 112.219 249.116 111.427C251.026 110.953 252.974 110.64 254.937 110.492C252.751 104.164 244.918 102.469 242.502 105.091Z" fill="#263238"/>
<path d="M248.307 127.75C248.307 127.75 252.426 130.601 253.495 135.306L266.333 127.813C266.333 127.813 256.283 125.524 254.556 121.636C254.556 121.636 247.84 122.467 248.307 127.75Z" fill="#E4897B"/>
<path d="M261.059 158.599C261.059 158.599 244.427 142.26 242.637 137.128C242.637 137.128 249.63 126.238 263.609 125.778C277.588 125.319 287.1 151.914 287.1 151.914L261.059 158.599Z" fill="#007AFF"/>
<path opacity="0.6" d="M287.1 151.922L261.067 158.606C261.067 158.606 257.439 155.034 253.384 150.686C252.133 149.332 250.826 147.906 249.567 146.496C246.264 142.75 243.35 139.091 242.645 137.103C242.645 137.103 249.63 126.213 263.609 125.754C277.588 125.295 287.1 151.922 287.1 151.922Z" fill="white"/>
<path d="M245.52 118.594C245.52 118.594 247.951 126.673 256.489 129.35C265.027 132.027 262.88 140.747 271.157 139.717C275.56 139.171 279.33 130.213 265.827 122.293C257.954 117.692 261.011 102.564 244.3 103.982C244.284 103.99 247.753 114.357 245.52 118.594Z" fill="#263238"/>
<path d="M253.812 281.738L249.852 280.835C250.446 261.035 253.305 237.093 255.832 219.107C256.228 216.287 256.624 213.626 256.988 211.139C257.17 209.959 257.336 208.827 257.503 207.734C258.295 202.34 259.023 198.079 259.459 195.442C259.784 193.517 259.966 192.464 259.966 192.464L274.222 195.941L273.2 199.536L269.834 211.416L269.454 212.771L267.221 220.604L263.435 233.933C263.672 254.058 253.812 281.738 253.812 281.738Z" fill="#E4897B"/>
<path d="M287.71 278.428L283.655 278.222C280.566 256.933 279.267 230.306 278.705 211.797C278.625 208.93 278.554 206.253 278.499 203.813C278.499 203.695 278.499 203.576 278.499 203.457C278.396 198.634 278.348 194.8 278.324 192.369C278.324 190.468 278.324 189.431 278.324 189.431L292.953 190.389L292.327 196.487L291.408 205.437L291.226 207.195L290.593 213.294L288.882 229.68C292.62 249.48 287.71 278.428 287.71 278.428Z" fill="#E4897B"/>
<path d="M289.23 277.636C289.23 277.129 282.974 277.525 282.974 277.525C282.974 277.525 279.132 281.43 275.402 282.277C271.672 283.125 273.763 285.398 277.928 285.398H288.224C291.202 285.429 289.349 282.903 289.23 277.636Z" fill="#263238"/>
<path d="M279.14 278.975C279.05 278.893 278.987 278.785 278.96 278.666C278.933 278.547 278.943 278.422 278.99 278.309C279.014 278.221 279.056 278.138 279.114 278.066C279.171 277.994 279.242 277.934 279.322 277.89C279.766 277.709 280.251 277.654 280.724 277.731C280.217 277.462 279.774 277.137 279.75 276.805C279.75 276.591 279.877 276.417 280.162 276.282C280.286 276.225 280.421 276.196 280.558 276.196C280.694 276.196 280.829 276.225 280.954 276.282C281.801 276.638 282.324 278.096 282.348 278.151C282.365 278.192 282.365 278.237 282.348 278.278V278.317C282.333 278.335 282.314 278.348 282.292 278.357C281.485 278.771 280.611 279.039 279.71 279.149C279.505 279.163 279.303 279.101 279.14 278.975ZM279.489 278.183C279.446 278.205 279.407 278.235 279.376 278.271C279.345 278.308 279.321 278.351 279.307 278.397C279.243 278.642 279.307 278.705 279.307 278.729C279.607 278.975 280.748 278.626 281.683 278.238C280.971 278.014 280.212 277.992 279.489 278.175V278.183ZM280.281 276.599C280.194 276.599 280.051 276.718 280.059 276.805C280.059 277.082 280.97 277.597 281.888 277.921C281.684 277.373 281.309 276.904 280.819 276.583C280.74 276.546 280.653 276.527 280.566 276.527C280.476 276.527 280.387 276.546 280.304 276.583L280.281 276.599Z" fill="#263238"/>
<path d="M255.816 277.636C255.816 277.129 249.567 277.525 249.567 277.525C249.567 277.525 245.726 281.43 241.995 282.277C238.265 283.125 240.348 285.398 244.514 285.398H254.81C257.796 285.429 255.95 282.903 255.816 277.636Z" fill="#263238"/>
<path d="M245.733 278.975C245.645 278.891 245.583 278.784 245.557 278.665C245.53 278.547 245.539 278.423 245.583 278.309C245.608 278.221 245.65 278.138 245.707 278.066C245.764 277.994 245.835 277.934 245.916 277.89C246.359 277.709 246.845 277.654 247.317 277.731C246.811 277.462 246.367 277.137 246.351 276.805C246.351 276.593 246.486 276.419 246.755 276.282C246.88 276.225 247.015 276.196 247.151 276.196C247.288 276.196 247.423 276.225 247.547 276.282C248.395 276.638 248.917 278.096 248.941 278.151C248.951 278.171 248.956 278.192 248.956 278.214C248.956 278.236 248.951 278.258 248.941 278.278C248.941 278.278 248.941 278.278 248.941 278.317L248.886 278.357C248.075 278.769 247.198 279.037 246.296 279.149C246.094 279.159 245.894 279.098 245.733 278.975ZM246.082 278.183C246.04 278.205 246.003 278.235 245.973 278.272C245.943 278.308 245.921 278.351 245.908 278.397C245.844 278.642 245.908 278.705 245.947 278.729C246.24 278.975 247.381 278.626 248.323 278.238C247.597 278.005 246.82 277.983 246.082 278.175V278.183ZM246.874 276.599C246.787 276.599 246.644 276.718 246.652 276.805C246.652 277.082 247.563 277.597 248.49 277.921C248.282 277.372 247.905 276.903 247.413 276.583C247.334 276.545 247.247 276.526 247.159 276.527C247.069 276.527 246.98 276.546 246.898 276.583L246.874 276.599Z" fill="#263238"/>
<path d="M257.685 198.42L261.059 174.661V158.583C269.953 151.898 287.1 151.898 287.1 151.898C287.1 151.898 300.271 170.17 293.871 200.21L277.334 202.586L276.281 196.979L274.206 202.586L257.685 198.42Z" fill="#263238"/>
<path opacity="0.2" d="M257.685 198.42L261.059 174.661V158.583C269.953 151.898 287.1 151.898 287.1 151.898C287.1 151.898 300.271 170.17 293.871 200.21L277.334 202.586L276.281 196.979L274.206 202.586L257.685 198.42Z" fill="white"/>
<path opacity="0.2" d="M276.281 197.066L279.449 187.174C279.449 187.174 282.791 186.16 287.084 179.523C287.1 179.523 286.355 190.817 276.281 197.066Z" fill="black"/>
<path opacity="0.2" d="M269.232 163.152L276.653 162.447C277.838 165.222 278.248 168.265 277.841 171.254L273.089 174.113L269.644 171.666C269.644 171.666 269.533 165.386 269.232 163.152Z" fill="black"/>
<path opacity="0.2" d="M287.1 161.338C288.095 163.786 288.831 166.332 289.293 168.934L291.923 170.05L293.341 168.284C293.341 168.284 292.382 163.113 290.759 160.578L287.1 161.338Z" fill="black"/>
<path d="M257.376 197.065L274.927 202.213L273.826 204.574L257.154 199.441L257.376 197.065Z" fill="#263238"/>
<path d="M276.653 201.873L276.946 204.043L294.157 201.873L294.418 199.141L276.653 201.873Z" fill="#263238"/>
<path d="M280.265 155.233C283.08 154.757 285.925 154.479 288.779 154.401L287.717 152.651C284.942 152.577 282.165 152.742 279.417 153.142L280.265 155.233Z" fill="#263238"/>
<path d="M264.48 157.387C262.207 158.369 260.9 159.105 260.9 159.105V161.268C262.178 160.623 263.459 160.035 264.742 159.501L264.48 157.387Z" fill="#263238"/>
<path d="M265.573 159.192C269.975 157.466 274.543 156.195 279.204 155.399L278.412 153.292C273.893 154.045 269.477 155.316 265.249 157.078L265.573 159.192Z" fill="#263238"/>
<path d="M217.99 165.378L213.491 163.572L212.699 167.817C212.699 167.817 216.754 170.273 218.449 167.35L217.99 165.378Z" fill="#E4897B"/>
<path d="M211.258 163.834L209.816 167.113L212.731 167.817L213.491 163.572L211.258 163.834Z" fill="#E4897B"/>
<path d="M287.028 119.751L286.498 114.936L282.395 116.266C282.395 116.266 282.142 121.018 285.524 121.113L287.028 119.751Z" fill="#E4897B"/>
<path d="M285.207 113.09L281.635 113.375L282.395 116.266L286.498 114.935L285.207 113.09Z" fill="#E4897B"/>
<path opacity="0.2" d="M253.384 150.71C252.133 149.356 250.826 147.93 249.567 146.521C249.084 143.574 248.775 140.977 248.775 140.977C250.283 142.096 251.493 143.569 252.297 145.267C253.101 146.964 253.474 148.834 253.384 150.71Z" fill="black"/>
<path d="M249.234 139.614C247.42 146.928 244.682 153.981 241.085 160.602C237.521 167.374 223.97 168.189 217.158 168.364L216.842 164.911C220.944 163.944 233.695 161.402 235.438 157.703C238.282 151.295 240.623 144.675 242.439 137.903L249.234 139.598V139.614Z" fill="#DC897C"/>
<path d="M245.353 133.643C241.48 136.177 239.405 142.767 238.748 145.99L246.795 151.914L250.858 147.954C252.505 138.862 246.826 132.684 245.353 133.643Z" fill="#007AFF"/>
<path opacity="0.6" d="M245.353 133.643C241.48 136.177 239.405 142.767 238.748 145.99L246.795 151.914L250.858 147.954C252.505 138.862 246.826 132.684 245.353 133.643Z" fill="white"/>
<path d="M284.637 121.295L278.887 121.913C278.806 121.916 278.725 121.901 278.65 121.871C278.575 121.84 278.507 121.794 278.45 121.736C278.394 121.678 278.35 121.609 278.321 121.533C278.293 121.457 278.28 121.376 278.285 121.295L277.936 109.122C277.925 108.95 277.977 108.78 278.082 108.643C278.187 108.506 278.338 108.412 278.507 108.378L284.249 107.768C284.33 107.765 284.411 107.778 284.487 107.808C284.562 107.838 284.631 107.884 284.688 107.942C284.745 108.001 284.788 108.07 284.816 108.147C284.845 108.223 284.856 108.305 284.85 108.386L285.199 120.559C285.21 120.729 285.159 120.897 285.056 121.033C284.952 121.168 284.804 121.261 284.637 121.295Z" fill="#263238"/>
<path opacity="0.6" d="M284.637 121.295L278.887 121.913C278.806 121.916 278.725 121.901 278.65 121.871C278.575 121.84 278.507 121.794 278.45 121.736C278.394 121.678 278.35 121.609 278.321 121.533C278.293 121.457 278.28 121.376 278.285 121.295L277.936 109.122C277.925 108.95 277.977 108.78 278.082 108.643C278.187 108.506 278.338 108.412 278.507 108.378L284.249 107.768C284.33 107.765 284.411 107.778 284.487 107.808C284.562 107.838 284.631 107.884 284.688 107.942C284.745 108.001 284.788 108.07 284.816 108.147C284.845 108.223 284.856 108.305 284.85 108.386L285.199 120.559C285.21 120.729 285.159 120.897 285.056 121.033C284.952 121.168 284.804 121.261 284.637 121.295Z" fill="white"/>
<path d="M284.13 121.35L278.388 121.96C278.306 121.965 278.225 121.952 278.149 121.923C278.073 121.894 278.004 121.849 277.946 121.792C277.889 121.734 277.844 121.665 277.815 121.589C277.786 121.513 277.773 121.431 277.778 121.35L277.437 109.169C277.423 108.998 277.472 108.828 277.576 108.692C277.68 108.556 277.831 108.464 278 108.433L283.742 107.823C283.822 107.819 283.903 107.833 283.978 107.862C284.053 107.892 284.121 107.937 284.178 107.994C284.234 108.052 284.279 108.12 284.307 108.196C284.336 108.271 284.348 108.352 284.344 108.433L284.692 120.614C284.707 120.784 284.657 120.954 284.553 121.091C284.449 121.227 284.298 121.319 284.13 121.35Z" fill="#263238"/>
<path opacity="0.7" d="M284.13 121.35L278.388 121.96C278.306 121.965 278.225 121.952 278.149 121.923C278.073 121.894 278.004 121.849 277.946 121.792C277.889 121.734 277.844 121.665 277.815 121.589C277.786 121.513 277.773 121.431 277.778 121.35L277.437 109.169C277.423 108.998 277.472 108.828 277.576 108.692C277.68 108.556 277.831 108.464 278 108.433L283.742 107.823C283.822 107.819 283.903 107.833 283.978 107.862C284.053 107.892 284.121 107.937 284.178 107.994C284.234 108.052 284.279 108.12 284.307 108.196C284.336 108.271 284.348 108.352 284.344 108.433L284.692 120.614C284.707 120.784 284.657 120.954 284.553 121.091C284.449 121.227 284.298 121.319 284.13 121.35Z" fill="white"/>
<path d="M283.75 108.061L282.245 108.219L282.055 108.687L279.726 108.932L279.512 108.512L278.008 108.671C277.899 108.693 277.802 108.755 277.735 108.844C277.668 108.933 277.635 109.043 277.643 109.154L277.984 121.327C277.98 121.38 277.988 121.433 278.007 121.482C278.026 121.532 278.055 121.577 278.092 121.615C278.13 121.652 278.175 121.681 278.224 121.7C278.274 121.719 278.327 121.726 278.38 121.723L284.122 121.113C284.23 121.092 284.327 121.032 284.394 120.945C284.461 120.857 284.494 120.748 284.486 120.638L284.146 108.457C284.148 108.404 284.139 108.352 284.12 108.303C284.101 108.254 284.072 108.209 284.035 108.172C283.997 108.135 283.953 108.106 283.904 108.086C283.855 108.067 283.802 108.059 283.75 108.061Z" fill="#007AFF"/>
<path opacity="0.8" d="M282.981 112.464L278.76 112.916C278.708 112.918 278.657 112.909 278.609 112.891C278.561 112.872 278.517 112.844 278.481 112.807C278.444 112.771 278.416 112.727 278.397 112.679C278.378 112.631 278.37 112.579 278.372 112.528V111.355C278.362 111.246 278.393 111.137 278.459 111.049C278.525 110.962 278.621 110.901 278.728 110.88L282.958 110.429C283.009 110.428 283.061 110.437 283.108 110.457C283.156 110.477 283.199 110.506 283.235 110.543C283.271 110.58 283.298 110.625 283.316 110.673C283.334 110.722 283.341 110.773 283.338 110.825L283.377 111.997C283.384 112.111 283.347 112.223 283.273 112.31C283.199 112.397 283.095 112.452 282.981 112.464Z" fill="white"/>
</svg>
