<svg width="28" height="28" viewBox="0 0 28 28" fill="none" xmlns="http://www.w3.org/2000/svg">
<path d="M3.5 0V3.5H0V5.83333H3.5V9.33333H5.83333V5.83333H9.33333V3.5H5.83333V0H3.5ZM10.5 3.5V7H7V10.5H3.5V22.1667C3.5 22.7855 3.74583 23.379 4.18342 23.8166C4.621 24.2542 5.21449 24.5 5.83333 24.5H22.1667C23.4617 24.5 24.5 23.4617 24.5 22.1667V21H14C13.3812 21 12.7877 20.7542 12.3501 20.3166C11.9125 19.879 11.6667 19.2855 11.6667 18.6667V9.33333C11.6667 8.71449 11.9125 8.121 12.3501 7.68342C12.7877 7.24583 13.3812 7 14 7H24.5V5.83333C24.5 5.21449 24.2542 4.621 23.8166 4.18342C23.379 3.74583 22.7855 3.5 22.1667 3.5H10.5ZM14 9.33333V18.6667H25.6667V9.33333H14ZM18.6667 12.25C19.635 12.25 20.4167 13.0317 20.4167 14C20.4167 14.9683 19.635 15.75 18.6667 15.75C17.6983 15.75 16.9167 14.9683 16.9167 14C16.9167 13.0317 17.6983 12.25 18.6667 12.25Z" fill="#063466"/>
</svg>
